<svg xmlns="http://www.w3.org/2000/svg" viewBox="0 0 183 174.5"><path class="st0" d="M87 88s-1 0 0 0zM86 87h-1zM86 86c-1 0 0 0 0 0v0zM88 86h-1 1zM87 86h0zM87 85c0 1 0 1 0 0zM87 86s0-1 0 0zM87 86zM85 86zM88 85zM88 85h-1 1zM86 85h1-1zM88 85h1-1zM88 85h0c1 0 1 0 0 0zM88 85c1 0 0 0 0 0zM88 85zM88 85zM88 85zM87 85l-1-1 1 1zM87 85zM87 84v1zM88 84s0 1 0 0zM88 85zM88 84zM88 84c-1 0 0 0 0 0zM88 84zM88 85zM88 85v-1 1zM87 81v1l1 2v-1h-1 1l-1-2v0zM88 84h1-1z"></path><path class="st0" d="M88 84l-1-1v1h1zM85 84zM86 84h-1 2-1zM87 84v-1h-1v1h1zM89 84h-1zM89 84zM100 93zM100 92zM94 83v0zM99 86zM101 86zM97 96l1 1-1-1zM91 83s0-1 0 0zM96 90zM91 83zM83 93zM86 88zM89 82h-1 1zM92 80zM89 83h1-1zM90 83zM90 83zM90 96c0 1 0 1 0 0zM99 81zM99 81l-1 1 1-1z"></path><path class="st0" d="M99 94h1v1-2 1l-1-1h1v-1-1 1c2 0 0-1 1-1h0v-1h1l-1-1v-1h-1v-1h1l-1-1h-1-1 1-1 3-1v-1h1-3l2-1v1l1-1h-1l-1-1h0l-1-1 1-1-1 1-2 1 2-2-1 1 1-1h-1l1-1-1 1v-1l-2 1 1-2-2 3 2-3s0-1 0 0v-1l-1 1h1l-2 1 1-1v-1h-1l-1 4v-2-2 1h-1v1h-1v-1c-1 0 0 0 0 0l-1 1 1-1-1 3v-1 1l-1-1h1s0-1 0 0l-2-1v1h1v1s0 1 0 0h-1 0l1 1s0 1 0 0v1-1l1 1-1-1v-1 1-1l1 1h2v1-1h1c0-1 0 0 0 0h1v0h1v1l1-1v1h1-1 1v2c1-1-1 0 0 0h-1 0s1 0 0 0c0 1 0 0 0 0h2v1h-1 1v1c1 0 0 0 0 0-1 0 0 0 0 0v1h-2 0v1h1s-1 0 0 0h-1l1 1h-1s0 1 0 0v1l-1 1v-1l-1 1v-1c0 1 0 1 0 0l-1 1v1l1 1-1-1v-1h-2v1-1h-1v1l-1-1h-1s0 1 0 0v-1 0l-1-1s-1 0 0 0h-1v-1-2c0 1 0 1 0 0l-1 1 1-1h-3v1c-1 0-1 0 0 0h-1l1 1v2-1 2h1-1 0l1 1v-1l1 2h2l-1 1 1-1v1l1-1-1 1c1 1 2 0 1 1v-1l1-1v2h1v-1s0-1 0 0c1 0 0 0 0 0h1l-1 1c0 1 0 0 0 0h1v1h1l-1-1c1-1 1 1 1 1v-1l1 1v-1c0 1 0 0 0 0l1-1v0h1v0l1 1v-1 1h1v-1l1-1 1 1-1-1h1v-1zm2-3c-1 0 0 0 0 0zm-1-5zm-10-3zm0 0zm0 10zM101 86h-1 1zM97 96zM93 78v0zM89 84v-1 1zM87 82zM88 83v-1 1zM88 83z"></path><path class="st0" d="M90 83c-1 0 0 1 0 0 0 1 0 0 0 0zM87 81l1 1zM88 81s1 0 0 0zM88 81v1-1zM88 81zM90 81v-1 1zM89 80v-1 1zM90 79zM93 80v1zM97 79s0 1 0 0l-1 1 1-1zM97 80h-1 1zM87 88h-1zM86 88zM102 91zM101 93h-1zM99 96l1-1-1 1zM86 31h0zM85 30h1-1zM86 30h-1 1s-1 0 0 0zM87 30s0-1 0 0zM87 29v1h1l-1-1zM87 29zM87 29s-1 0 0 0zM87 29h-1 1zM85 29v0zM88 29h-1 1zM87 29zM86 29zM88 29zM88 29h1l-1-1v1zM88 28zM87 28l1 1-1-1zM87 28zM87 28zM87 29l-1-1 1 1zM87 28zM87 28zM88 28h-1 1zM87 28zM88 27zM87 28zM88 28zM88 28zM88 28h-1zM87 25l-1 1 2 1-1-1v-1zM88 27v0zM88 28l-1-1 1 1v-1 1zM85 27zM85 27l1 1-1-1 1 1-1-1zM87 27h-1 1zM88 27l1 1-1-1zM89 27v1-1zM100 37zM101 36zM94 27s0 1 0 0h1-1zM99 30zM101 30zM98 40v0zM91 26zM96 34h0zM91 26c0 1 0 1 0 0zM83 37zM86 32zM88 26v-1 1zM92 24zM89 27zM89 27zM90 27h-1zM90 40c0 1 0 1 0 0zM99 25zM99 25l-1 1 1-1z"></path><path class="st0" d="M99 38h1v1-2 0c0-1 0-1 0 0v-1h1l-1-1h1c1 1-1 0 0 0h2-2v-1c1 0 0 0 0 0h0l1-1h-1v-1h1-1v-1c-1 0 1 0 0 0l-1-1h1-3 2-1 1v-1h1l-2-1h1v-1h-1 0v-1 1c0-1 0-2-1-1l1-1-1 1-2 1 3-2-1-1v0l-1 1 1-1h-1v1l1-1-1-1v1l-1 1v-2l-2 3v-1 1l2-3v-1h1-1l-1 1v-1h1l-1 2v-2s0 1 0 0h-1s0-1 0 0l-1 3v-1-2 1l-1-1v2l-1-1s-1 0 0 0h-1v-1 1c0 1 0 0 0 0v2l-1 1v-2l1 1-1-1h1-2v1h1l-1 1s0-1 0 0v1h1v-1 0h1v0h2v1l1-1h1v1c0-1 0-1 0 0h1-1 1v-1 1l1-1v1h1v2c1 0-1 0 0 0v1h-1 2v2s1 0 0 0v1h-1c-1 0 0 0 0 0h-1l1 1s-1 0 0 0v1h-1c1 0 1 1 0 0v1l-1 1v-1h-1c0 1 0 0 0 0l-1 1v1l1 1-1-1v-1h-2v1-1c-1 0 0 0 0 0h-1v1l-1-1h-1v-1h-1 1l-1-1v-1 1h-1v-1-2h-1 1l-1-1v1h-3c1 0 1 0 0 0l1 1h-1v2h1v2s0-1 0 0h0v1-1l2 2v-1l1 1h1l-1 1 1-1h1l-1 1h1v0l1-1v2l1-1h-1 1l-1 1h2v1h1l-1-1c1-1 1 1 1 1v-1l1 1v-1c0 1 0 0 0 0l1-1v0h1v1h1v-1 1h1l1-1 1-1v0h1v-1h-1zm2-3zm-1-6zm-10-3zm0 0zm0 11zM101 30zM98 40zM93 22zM89 27zM86 26c1 0 0 0 0 0zM88 26zM88 26zM89 27h0zM87 25h1-1zM88 25zM88 25zM87 25h1zM90 24zM89 23zM90 23v-1 1zM93 24v1zM97 23c0-1 0 0 0 0zM97 23zM86 32h1-1zM86 32l-1-1 1 1zM102 35v-1 1zM101 37h-1zM100 40v-1 1zM86 144h0zM85 143h1-1zM86 142h-1l1 1v-1zM87 142zM87 142h0zM87 142zM87 142s-1 0 0 0zM87 142h-1 1zM85 142zM88 142l-1-1 1 1zM87 141zM86 141zM88 141zM88 141h0zM88 141zM87 141h1-1zM87 141zM87 141zM87 141h-1 1zM87 141zM87 141zM88 141v-1h-1l1 1zM87 141zM88 140zM87 140zM88 140zM88 141z"></path><path class="st0" d="M88 141l-1-1v1zM87 138h-1l2 2v-1h-1c0-1 0 0 0 0v-2 1zM88 140z"></path><path class="st0" d="M88 140l-1-1v1h1zM85 140zM85 140h1-1 0zM87 140l-1-1v1h1zM88 140h1-1zM89 140zM100 149zM101 148zM94 139v1h1l-1-1zM99 142zM101 142zM98 153zM91 139s0-1 0 0zM96 147h0zM91 139zM83 150zM86 145zM88 138zM92 136zM89 139zM89 139zM90 139h-1zM90 153zM99 137zM99 137c0 1 0 0 0 0l-1 1h1v-1z"></path><path class="st0" d="M99 151h1v1-2-1l1-1h-1v-1l1 1v-1 1l2-1h-2v-1h1l-1-1v-1h1-1v-1l-1-1h1-3 2-1 1c1 0 0 0 0 0h1v-1h-2l1-1v1h1l-1-1c1 0 0 0 0 0h-1 1c1-1-1 0-1-1l-1-1h0l-2 1 3-2h-1v0h-1l1-1-1 1 1-1h-1l-1 1v-1l-2 2 2-3h1l-1-1-1 1h1l-1 1v-2h-1l-1 4v-2-2 1l-1 2v-1h-1v-1c-1 0 0 0 0 0h-1 1l-1 3v-1 1l-1-1h1-1l1-1h-2v1l1 1s0 1 0 0h-1 1v2-1l1 1-1-1v-1l1 1h1v-1h1v1h1v-1l1 1h1v1l1-1v0h1l-1 1h1v2c1-1 0 0 0 0s-1 0 0 0v1h-1 2s-1 1 0 0v1c1 0 0 0 0 0v1c1 0 0 0 0 0h-1v1h-1 1v1s-1-1 0 0v1c-1-1-1-1 0 0h-1v1c-1 0-1 0 0 0h-1-1v1h-1l1 1h-1 1l-1-1h-2c0-1 0 0 0 0v-1l-1 1v-1 2l-1-1v-1h-1v-1l-1 1 1-1c-1 1 0 0-1-1v0s-1 1 0 0h-1v-1-1h-1 1v-1h-1l-2 1v1h-1 1v3h1-1 1l-1 1h1l1 1h1v1h1-1 2l-1 1h1c1 0 0 0 0 0l1-1v1l1 1v-1l1-1-1 1h1l-1 1s0-1 0 0l1-1v1h1-1c1-1 1 1 2 1l-1-1 1 1v-1-1 1l1-1v1-1 1h1v-1s0 1 0 0v1h1-1v-1h1v1-1l1 1 1-1v-1h1v-1 1c0-1 0-2 1-1h-1zm2-4s0 1 0 0zm-1-5zm-10-3zm0 0zm0 11zM101 142zM98 153zM93 134v0zM89 140zM86 138c1 0 0 0 0 0zM88 139c0-1 0-1 0 0zM88 139zM89 139h0zM87 137l1 1-1-1zM88 137v0zM88 137v1-1zM87 137h1zM90 137v-1 1zM89 136v-1 1zM90 135zM93 136v1zM97 135s0 1 0 0v0zM97 136zM86 144h1-1zM86 144h-1 1zM102 147zM101 150l-1-1zM100 152s-1 0 0 0zM35 93zM34 94zM34 94c-1 0 0 0 0 0zM34 92s-1 0 0 0zM33 92h1-1zM33 93c0-1 0-1 0 0zM33 92v0zM33 92v0zM33 94c0 1 0 0 0 0zM33 92zM33 92zM33 93zM33 91zM32 91h0c1 0 1 0 0 0zM32 91zM32 92zM32 92zM32 92zM33 93h-1 1zM32 93v-1 1zM32 93v-1zM32 92zM32 92zM31 91zM32 92zM32 91zM32 92zM32 92zM29 93c0-1 1-1 0 0l2-2-1 1h-1v1zM31 91h1-1zM32 92h-1 1v-1 0h-1l1 1zM31 94zM31 94h1v-1l-1 1zM31 93zM31 91h1-1zM31 91h1-1zM41 79zM40 79zM31 85s1 0 0 0zM34 80zM34 78zM44 82h1-1zM30 88s0 1 0 0zM38 83zM30 88s1 0 0 0zM41 96zM36 94zM29 91zM28 87zM31 90zM31 90zM31 90zM44 89c1 0 0 0 0 0zM29 81zM29 80v1h0v-1z"></path><path class="st0" d="M42 80l1-1c-1 1-1-1-2 1v-1h1l-1 1v-1h-1-1v-1-1 1h-1v-1 1l-1-1v1h-1l-1 1v-1l-1 1v2l-1-1h1v-1h-1v-1 0l-1 3v-2c0 1 0 0 0 0v-1 1h-1v1h-1v1l-1-1 1 1 1 2-2-2h-1l1 1-1-1 1 1-1-1v1h-1 1l1 2-2-1 3 2h-1 1l-3-2h-1v0l1 1h-1v1s-1 0 0 0l3 1h-3 1-1 1l-1 1h2l-1 1v1h-1 1c1 0 0 0 0 0h2l1 1h-2 1-1v1h2s-1 1 0 0h1v-1l-1 1 1-1h-1 1v-1h-1v-1-1h1-1v-1c1 0 0 0 0 0l1-1s-1 0 0 0l-1-1h1l-1-1h1v0l1 1-1-2v1l1-1h1c0-1 1 1 0 0l1 1v-1-1c0 1 0 1 0 0v1l1-1c0 1 0 0 0 0h1-1 1c0 1 0 0 0 0h1v2h1v-1s0 1 0 0v1l1-1v1s1 0 0 0h1l-1 1 1-1v1h1-1l1 1h-1v1h2l1-1-1 1h-1v2h1-1l1 1-1-1v1l1 1h-1v1s1 0 0 0h-1v0l-1 1v1h-3v0l-1 1h1v3c0-1 0 0 0 0h3v-1l1 1-1-1h2s-1 0 0 0h1-1l2-2v-1h1l-1-1h1l-1-1 1 1v-1h1-2l2-1-1-1v0l1 1v-1c-1 0 1 0 0 0v-1h1c-1 0 0 0 0 0h-1c-1-1 1 0 1-1h-1 0v-1h-1 1v-1h-1v-1l1 1v-1h-1 1l-1-1h1v-1h-1l-1-1 1-1-1 1v-1h-1zm-3-2c0 1 0 0 0 0zm-6 1zm-3 10zm0 1zm11-1zM34 78v1-1zM44 82zM26 86zM31 90zM30 93zM30 91zM30 91zM30 90h0zM29 92zM29 91zM29 91zM29 92zM28 89zM27 90zM27 89h-1 1zM28 86h1zM27 82c-1 0 0 0 0 0v0zM27 83zM36 93zM35 94v-1 1zM38 77zM41 79zM44 80l-1-1 1 1zM148 93zM147 94zM146 94h1-1zM146 92zM146 92zM145 93c1-1 1-1 0 0zM146 92h-1l1 1v-1zM146 92l-1 1 1-1zM146 94c0 1 0 0 0 0zM145 92zM145 92zM145 93zM145 91zM145 91zM145 91zM145 92zM145 92zM145 92zM145 93h-1 1zM145 93v-1 1zM144 93h1v-1zM144 92s1 0 0 0zM145 92zM144 91zM144 92zM144 91zM145 92zM145 92h-1 1zM141 93h1l2-2h-1v1c-1 0 0 0 0 0h-2 1l-1 1zM144 91z"></path><path class="st0" d="M144 92h-1 1c-1 0 0 0 0 0v-1 1zM144 94zM144 94v-1 1zM144 93h-1 1zM144 91zM144 91zM153 79zM152 79zM143 85h1-1c1 0 0 0 0 0zM146 80zM146 78zM157 82c0-1 0 0 0 0zM143 88s-1 1 0 0zM151 83zM143 88zM154 96zM149 94zM142 91zM140 87zM143 90zM143 90zM143 90zM157 89zM141 81zM141 80v1h1l-1-1z"></path><path class="st0" d="M155 80l1-1c-1 1-1-1-2 1v-1l-1 1v-1h-1 1-1-1 1-1 1c0-2-1 0-1-1v-1 1h-1c1 0 0 0 0 0v-1 0l-1 1h-1v1h-1v-1l-1 1v0l-1-1v0l-1 3v-2h1l-1-1v1l-1 1v-1 1l-1 1-1-1 1 2 1 1-2-2 1 1-2-1 1 1-1-1 1 1h-1l1 2-2-1 3 2-3-2h-1l1 1-1-1 2 2-2-1 1 1-1-1v1s-1 0 0 0l3 1h-3 1-1 1v1h1l-1 1v1h-1 1c1 0 0 0 0 0h2l1 1h-2 1-1v1h2s-1 0 0 0h1v-1 0h-1 1v-1s-1 0 0 0h-1v-1h1v-1c1 0 0 0 0 0l-1-1h1v-1-1 0c0 1 0 0 0 0v-1c0 1 0 0 0 0h1l-1-1 1 1v-1h1c0-1 1 1 0 0h1s0 1 0 0v-1h1s0 1 0 0h1c0-1 0 0 0 0h1c0-1 0 0 0 0v2h1v-1h1v1h1c0 1 0 0 0 0l1 1v1l1 1 1-1-1 1h1-1l-1 2h0l1 1h-1 1l-1 1v1h1-2l1 1-1-1-1 1 1 1-1-1s0 1 0 0v1h-3c1 0 1 0 0 0l1 1h-1v-1 4h1v-1 1h3v-1h-1 2v-1l1 1h-1 1l1-2v-1-1l1 1-1-1h1l-1-1 1 1 1-1h-1v-1h1v-1 1l-1-1h1v1l1-1-1-1h1v-1l-1 1 1-1h-1v-1c1-1-1 0 0 0v-1h1-1-1l1-1h0v-1h1-1v-1h-1l-1-1 1-1-1 1v-1h-1 1zm-4-2c0 1 0 0 0 0zm-5 1zm-3 10zm0 1s-1 0 0 0zm11-1zM146 78v1-1zM157 82zM138 86zM144 90h-1 1zM142 93zM142 91c1 0 1 0 0 0zM142 91c1 0 1 0 0 0zM143 90c1 0 0 0 0 0zM141 92h1-1zM141 91zM141 91zM141 92zM141 89h-1 1zM140 90h-1 1zM139 89s0 1 0 0zM140 86h1z"></path><path class="st0" d="M139 82s1 0 0 0l1 1-1-1zM140 83zM148 93zM148 94v-1 1zM151 77zM154 79h-1zM156 80v-1 1zM18 87l1 1-1-1zM18 76v-2zM21 65l-2 6v1l1-3 1-4zM24 61c-1 0 0-2-1 1l1-1zM25 57v1l1-1h-1zM25 55v0zM25 58v-2 2zM24 58v1-1zM20 65l-1 1v1l1-2zM30 49h-1v1l1-1zM29 49l1-1-1 1zM25 55v1l-1 1 1-1v-1-1 1zM33 44v0l1-1-1 1zM36 41h1l1-2-2 2zM39 37l-1 2 1-2zM31 46l1-1-1 1zM32 45v-1 1zM31 46zM27 51v-1 1zM30 46v1h-1l1 1v-1-1zM31 45l-1 1h1zM37 39l1-2-2 2h1zM34 42zM45 31h-1zM36 40l-1 1 1-2v1zM40 36h-1 1zM34 42c1 0 1 0 0 0zM34 42l1-1-1 1zM45 27l-3 3c-1 1 1 2 2 1l1-1s-3 2-2 0l3-1c-2 0 1-3 1-3l-1 1-1 1v-1z"></path><path class="st0" d="M42 33l-1 1 2-1 1-2-1 1-1 1v1-1zM39 36v-2l-1 3 1-1-1 1 1-1c1-1 0 0 0 0l1-1 1-1-2 2zM27 48zM28 47v1h-1 1l2-2-2 1zM33 41v-1h1l1-1h-1l-1 2zM45 31v0l1-1-1 1zM48 29v-1 1zM159 128zM162 122zM130 25l2 2v-1l-2-1zM166 73v-1 1zM168 73v0zM136 153l-1 1 1-1zM81 15h3-3zM156 123v0zM87 15l-1-1a78 78 0 011 1zM27 132v0zM18 98v0zM56 22v-1 1zM94 12zM59 22h0zM59 22zM61 21l-1 1 1-1zM81 164zM149 35zM151 37l-2-2v1l2 1z"></path><path class="st0" d="M150 140l2-2c-1 3-3 4-1 3l2-4 2-2v-2l1-1v1c2-2 0-2 2-5l1-1 1-2c0-1 1 0 0 0l1-1 1-2v-3c1-1 0 1 1 1v-1-2 3l1-2 2-4-1 1v1l3-5c-1 1-3 5-3 2l1-3c1 1 1-1 1-2h1v-3l1-2v-2-1-2-4c1-2 1 0 1 0v-2l-1-2v-3-4h1l-2-6v-1-1c0 2-1 0-2-2v0l-1-2 1 1v-1h1l-1 1 2 1-1-1 1 1-1-1 1-1-1-2v-2-1l-1-2-2-2-1-2-1-3h1l1 3 1 3 1-1-1-1v-1l-2-2v-2l-1-1-2-3 2 2c-1-3-3-3-3-5v1l-1-2v-1l-2-3-2-3-3-3h0l-2-1-2-1-1-1s0-3 3-1l-3-2v1l-3-4h-2 2l-2-1-2-1v-1l-1-1-2-1 1 1c-3-3-4-1-7-3 1 0 2-1 0-2h-7l-1-1h-1l-1-1h4l5 1-2-2 2 1-3-1-1-1-1-1h-4 1l2 1 2 1h-2l-4-1c-1-1 1-1 1-2l-4-1 2 1-3-1-3-1-2-1v4l-2-1-3-1c-1-1 2-1 1-2h-3l-4-1-4 2-1-1h-7-2-3c-2 0 2 0 0-1l-4 2h2l3-1-1 1-2 1-3 1h-4l-2 1-4 2-1-1 3-1 2-1-1 1 3-1h-3l-1 1h-2l-2 1h-2l-3 2-1 1 1-1c1 0-2 2 0 1l-3 2-1 1-1 1-1-1 2-1c-1 1-4 1-4 3l1-1-2 2-2 2 2-1c-2 0 4-3 2-2l5-2s-1 0 0 0l1-1-1 1 2-2 2-1c1 0 0 0 0 0h1v-1c1 1 3 0 1 1l2-1 4-1h2l1-1h2l5-1h6l2-1h2l1 1h7l2 1h9l3 1v-1l3 1 2 1 2 1h-1l2 1 3 1 3 1 2 1 1 1h1v1l2 1h1l1 1 3 2 2 1 2 2s1 0 0 0l2 2 1 1h2c0 2 1 2-1 2l3 2 2 1h-1l2 3 4 6 5 9v1l1 2s0 1 0 0l1 4 1 2h-1l1 1h-1l1 1v1l2 1a5 5 0 001 3c-1 1-1 2-1 0v4l1 2v7h1v3l-1 4v3-1 3l-1 4 1-1-2 2-1 3v-1c-2 3 0 0 0 3-1 0-1-1-1 1l-1 3-2 4c1 0 1-1 1 1l-3 6h-1a57 57 0 01-2 5l-2 1-1 3-3 3-1 2-2 1-2 2-1 2c-1 0 0 0 0 0l-4 3-2 2h-1l-9 5h1l-7 3-5 2-2 1-1 1h1l-2 1v-1l-5 1H84l1 1h-1-1-1c-1-1-1-1 1-1h-3c-4-1 1 0 0-1h-6v-1h-1-1l-1-1 1 1c-2 0-3-1-2 1l-6-3-4-2-2-1-2-1h-1l-3-2h-1l-1-2-3-2-2-1-1-1c-2-1 0 0-1-2l-10-10s1 1 0 0h-1v-1-2c-1 0-2 0-2-2l-1 1-6-14c-2-5-4-10-4-15v-1h-1v-2-1-1-3l-1-2v1l-1 1-1 2v4l1 5h-1l2 3h-1l1 4 1 3 1 3 1 4 1-1v3c2 1-1-4 0-3l1 2 1 3 1 3 1 2 1 1 1 1v1l1 2 2 2-1-1c4 4 8 9 13 12h-1l3 2 4 3h-1l3 1 1 1 3 1 2 1 3 1c-1 0 1 1-1 1l3 1 3 1 3 2-1-1-2-1h4l2 2a10 10 0 004 1h-1l2 1h5-4 8-2l2 1h-6 9v1h2-1 6-2l-1-1c5 0 3 2 9 1h-2 3c4-1 0-1 1-1l4-1h3l2-1-2 1 1-1h1v1l3-1 2-1 2-2h2l-2 1-1 1 4-2-1 1 2-2 2-1v1l2-1-1 1 1-1 2-1h1l4-2 3-2 1-1 1-1 2-1 2-2 1-1 1-1h1c2-2-2 1 0-2l2-1 2-2 3-3-2 2zm15-27v3-3zm1-45v0zM68 18c1 0 0 0 0 0zm-3 1l1-1-1 1zm9 141c-1 0 0 0 0 0zM168 73c0 1 0 1 0 0zM136 152v1zM105 11h0z"></path><path class="st0" d="M53 26l1-1h1-2v1zM40 32v0zM51 25l-2 1 2-1zM49 26l-1 1 1-1zM62 20v1c-1 1 3-2 0-1zM50 24v1l1-1zM58 20l-2 1 2-1zM56 21l-2 1 2-1zM52 23l1-1-1 1zM77 14l2-1h-1l-1 1zM71 14h1v-1l-1 1zM77 12s2-1 0 0c0 0-2 0 0 0zM108 13h-1v1zM135 22c-2-2-1 0-3-1l1 1h2zM133 22l-1-1 1 1zM18 92v-1-1 2zM17 89h1l-1-1v1zM168 110v-1l-1 2 1-1zM158 130l1-1-1 1zM147 145l2-2-2 2zM117 133c-1 0 0 0 0 0 1 0 0 0 0 0zM131 130h2-2zM144 126c-1-1-2 0-3 1l-4 1-1 1 2-1 2-1 4-1zM151 123l-2 1h1l1-1zM155 120l-1 1v1l1-1c2-1 1-1 0-1zM156 119h-1 1z"></path><path class="st0" d="M154 121l1-1h1-1l-1 1zM153 122c-1 0-2 1-1-1l-1 2 2-1zM144 125h-1l-1 1 2-1zM164 113h-1l-1 1 2-1zM163 113l1-2-1 2zM156 118l-1 1-1 1 1-1 1-1zM162 107v-1 2zM160 112h-1v3l1-3zM158 117l1-2-1 2zM167 108a164 164 0 01-5-2l1-1 4 2v1zM167 108l-4-3v0l4 3zM166 109l1-1-1 1zM160 115c1-1 2-3 0-2v2zM165 109v1l-1 1s0-1 0 0l1-1v-1zM166 108l-1 1 1-1z"></path><path class="st0" d="M160 114l-1 3 1-4v1zM162 110zM154 126zM161 113v-2l-1 2h1zM157 120l1-2-1 2zM161 110zM161 110v1l1-1h-1zM155 131v-2l2-3h-3v2l2-2-2 3-1 3 1-2 1 1zM156 123l1-1-2 2-1 2 2-4v1zM158 119s0 2 1 1l1-3c-2 4 0-1-2 2l1-2-1 1s1 0 0 0v0l-1 4 1-3zM161 111h0z"></path><path class="st0" d="M163 110l-1 1h-1s-1 2 1 0l2-2h1l-2 1z"></path><path class="st0" d="M163 111h-1v3l1-2h-1l1-1zM154 126l-1 1v1l1-1v-1zM152 130h-1v1zM35 33l1-1-1 1zM30 39c1 0 1 0 0 0zM58 153l-2-2v1l2 1zM16 96v0zM14 95v-2 2zM70 12l1-1-1 1zM117 157h-3 3zM37 39v-1 1zM111 158h1l2-1-3 1zM71 107zM104 131h-2 2zM144 141zM103 163zM141 142l-1 1 1-1zM141 142v-1 1zM139 144l1-1-1 1zM67 37c-1 1-1 1 0 0zM36 142zM33 140l3 2v-2h-2-1z"></path><path class="st0" d="M49 22h-1l-1 1c2-2 4-3 2-3l-2 2-2 2-4 3-1 1h1c-3 1-1 2-4 5h-2l-1 2-1 1c0 1 0 0 0 0l-1 1-1 2h-1l-1 3v-1l-1 3 1-3c-3 1-1 2-5 6l2-2-2 2-3 3c1-1 4-5 3-2l-2 3-1 3h-1v3c-1 2-2 2-3 2-1 4 2-2 1 3l-2 4v4c-1 2-1 0-1 0v5c1 1-2 5-1 8h-1l1 7v3c0-2 1 1 2 3v-2 1l1 1v2l-1-1 1 1h-1v-2l-2-1 1 1h-1l1 1-1 1 1 3v2l5 11c-1-1-1 0-1 1l-3-7v1a113 113 0 002 4l1 3 1 1 2 4-2-2c1 3 3 3 4 5l-1-1 2 4h-1l5 7 4 3-2 1h2l2 1 3 2h1c-1 0-1 3-3 1l3 3v-1l1 2 2 2h2l-1 1 2 1h2v2l1 1 3 1-1-1 4 2 4 1s-2 1 0 2h10v1h1-3a32 32 0 01-6 0l3 1h-2l3 1 2 1h4-2l-3-1 8 1-1 1 4 1h-1-1 4l3 1h3v-3l6 1c1 1-3 2-1 2h3c0-1 4 0 1-1h5l1-1 3-1 1 1 5-1 3-1h4l2-1c1 0 1 0 0 0v1l4-3-2 1-2 1h-2l2-1 5-3 1-1h1c5-2 4-4 8-6l2 1-6 3 2-1-3 2 6-3 4-3 2-1 2-1v-2l-1 1 1-1 2-2 2-3h1l-2 1 2-1 2-3-1 2 1-3 3-4-2 2c1-1-5 5-2 4-2 0-3 2-5 3l-1 1v1-1c0 1 0 1 0 0h1l-4 4c-1 1 1 0 0 0l-1 1c-1 0-3 2-1 0l-2 1-5 3-1 1h-1l-1 1-2 1-3 1-3 2-6 2-5 1h-1l-6 1H81h1-5l-2-1-3-1 2 1-7-2-3-1-3-1-2-1v-1h-1 1l-3-1v-1l-1 1-1-1-4-3-3-1-3-2h1l-3-2v-1l-3-1v-1l-2-3-3-2-2-3-2-3-1-2-2-2-5-11v-1l-1-3s0-1 0 0l-1-4-1-4 1 1-1-2 1 1-3-4v-4c0-1 0-2 0 0a139 139 0 000-10v-3-3-1l1-3 1-3v-1l1-3h-1l1-3 2-4-1 1 2-3 2-2v1l1-2v-2l1-1 2-3 1-3 2-2h-1l3-3 2-4h1l2-3 2-2 5-4 3-2h1l2-2 2-1h1l3-2 2-1c0-1 0 0 0 0l3-1 2-1 4-2h1l4-1 7-1c1 0 0 0 0 0l4-1h3l2 1h4l2-1h1l-1-3-3 2c5-2 0 1 2 0l-3 1c-1 1-1 1 0 0 1 0 0 0 0 0l-2 1h-2l-1 1-4 1-3 2-2 3-3 2-3 2-2 3-3 3-2 2h1l-1 1-1 1 1-1-2 2v2c-3 4 0-2-1-1l-1 2 1-1-1 2v1l-1 2-1 1v1h-1v2l-1 2 1-2v2l-1 3-1 3-1 3-1 5v10c1 0 1-1 1 2v7c0-1 0 0 0 0l1 3c0 1 1 3 1 1l-1 2 4 8 4 9s0-2 1-1l1 2v2c1 1 2 0 3 2 0 0-1-1 0 0l7 7a63 63 0 0016 10 247 247 0 0010 4v-1h1l2 1h1l1 1h6-1c2-1-3-2-3-3h-2l-2-1-6-2h1l-5-1h1l-4-2-3-1-7-5v1l-2-2 1 1 1 1-2-2-1-1-2-1-3-3-1-2-1-1-1-1-1-2 1 1-4-5 1 1v1l-5-9-4-9v1l-1-9-1-2v-2c0 1 0 0 0 0h1l-1-4v-3-4c0 2 1-2 1 1l1-7v-1-1l1-1c0-3-2 4-2 3v-1l1-3 1-3a40 40 0 002-2l1-2-1 1 1-2 1-1 1-1 1-3-2 3 1-3 2-4v2l2-3-2 3-1 2-1 2 1-2 1-1 2-3 2-3 1-1v-1 2l5-5-2 2h-1s0-1 0 0l1-2h1l1-1 5-3-2 1 2-1 1-1 1-1 3-3v1l3-2 2-2-1 2 2-2v1l4-2v-4l-1-1c1 1 0 1-2 1h-3 3l1-1h-6 2l-3 1h-2c-1 0 0 0 0 0h-3l3-1h-3l-2 1h-2l-9 2-1 1-10 3h-1-1c-3 2 3 0-1 2l-2 1h-1l-6 5 2-2zM24 48l1-2c1 1 0 1-1 2zm-8 53v-2 2zm116 48c-1 1-1 1 0 0zm3-2l-1 1 1-1zM59 44c0 1 0 1 0 0zM14 95h0zM70 12zM90 166l-1-1 1 1z"></path><path class="st0" d="M146 136v1h-1l1-1zM159 123v0zM149 136l2-2h-1l-1 2zM151 133l1-1-1 1zM138 145v-1l-1 1v1l1-1zM151 136h-1zM143 143l1-1 1-1-2 2zM145 141l1-1-1 1zM149 138h-1v1l-1 1 1-1 1-1zM122 157l-2 1 1-1h1zM130 154l-2 1h1l1-1zM123 158s-3 2 0 1c0-1 2-2 0-1zM86 164h1v-1zM53 156l3 2-1-1-2-1zM55 157h0zM111 133h2-1zM115 132v1l2-1h-2zM20 52l2-1-2 1zM37 31h-1 1zM54 17l-2 2c2-1 3-1 2-2zM77 94s0-1 0 0zM77 92v1-1zM78 92h-1v1l1-1zM79 93zM79 93v0zM79 93zM79 93s0-1 0 0zM79 93l-1-1 1 1zM78 91h-1 1zM79 93zM79 93v-1 1zM78 92h1-1zM80 93v1-1zM80 93v0zM80 93zM79 93h1-1zM79 93zM79 93zM79 92v-1 1zM79 92zM79 92zM80 93v-1 1zM80 93zM80 92zM80 92c-1 0-1 0 0 0zM80 93zM80 93zM80 93v-1 1zM80 90v0zM80 92v0zM80 92v-1 2-1 1-1zM78 90zM79 91l-1-1 1 1v0zM79 91zM80 92v1-1zM81 92v1zM80 100zM80 100zM82 92h-1 1zM82 96zM83 98v-1 1zM77 101v0zM82 92v0zM78 96zM82 93zM72 92zM76 93zM81 91zM83 90zM81 92zM81 93zM81 93v-1 1zM73 98c0 1 0 1 0 0zM85 95zM86 95h-1l-1-1a17 17 0 002 1z"></path><path class="st0" d="M79 101v1-2 1l1-1v-1 1h2l-1-1 1 1-1-1 1 1v-1-1 1-1h1v-1l-1-1-1-1 1 1 1 1v1-1h1l-1-2 1 1v1-1 1-1c1 1-1-1 0 0 0-1 0-1 0 0v-2l1 1-1-1-1-1 2 2 1-1h-1 0v-1l1 1v-1l-2-1 2 1a38 38 0 00-3-1h2l1 1v-1l1 1v-1h-1 1-2 1v-1c1 0-1 0 0 0v-1l-3 2v-1h1l1-1s0-1 0 0h-1l-1 1v-1-1c0 1 0 0 0 0l-1 2c0-1 0 1 0 0v-1l-1-1v2s0-1 0 0l-1 1 1 1v-1-1 1-1 1s0 1 0 0h1c1 0 0 0 0 0-1 0 0 0 0 0h1-1l1 1h-1 1-1v1h-1c1 0 0 0 0 0s-1 0 0 0h-1l1 1s-1 0 0 0h-1v1c1 0 0 0 0 0 1 1 0 0 0 0l-1-1v0l-1 1h0v1c0-1 0-1 0 0l-1-1v1c0-1 0-1 0 0l-1-1c0 1 0 0 0 0v1h-1v-1h-1c1-1 0 0 0 0v-1 1l1 1h-1 1-1s0-1 0 0l1-1h-1v-1h1v-1l1 1-1-1h1v-1s1 0 0 0l-1-2h-1c0-1 0-1 0 0v-1 1h-2l1 1h-1 1-1c0 1 0 0 0 0l-1 1h1l-1 1h1v1h-1 0l1 1h-1v1l1-1-1 1 1 1v0-1h-1 1v1h1-1v1h1-1 1-1l1 1v-1 0h1c0 1 0 0 0 0v1l1-1v1h-1l1 1v-1 1h1s0-1 0 0h2v-1 0l1 1zm2-1c0-1 0-1 0 0zm2-3zm-2-5c1 0 0 0 0 0zm0 0zm-6 5zM83 97zM77 101zM85 90zM81 93v-1 1zM80 90z"></path><path class="st0" d="M81 91h-1 1c0 1 0 0 0 0zM80 91zM81 92v0zM80 90h1zM81 90zM81 90zM81 90zM82 90c1 0 1 0 0 0zM82 89zM83 89zM84 91h-1zM87 94l-1-1 1 1zM86 93zM77 94zM77 93zM82 101v-1 1zM80 101v-1zM78 102zM65 95h-1 1zM63 97v1zM62 98h1v-1l-1 1zM60 98v-1 1zM59 98zM59 99zM60 98v0zM60 98v0zM62 99zM58 99zM58 99v0zM60 99v1zM57 100v-1 1zM56 100zM56 101v-1 1zM58 100h-1 1zM58 100h-1 1zM58 100zM59 100zM58 100zM58 100zM56 101h0zM57 100zM55 102zM57 101zM55 101h0zM57 100zM57 100v0zM56 105v-1l-1-2v1h0l1 2v-1 1zM55 102zM56 101v1c1 0 0 0 0 0v-1l-1 1 1-1zM60 101zM59 101h-1 1zM58 101l-1 1h1v-1zM55 102h-1zM54 102zM49 110zM48 111zM41 112h-1 1zM40 117v-1 1zM40 115zM54 108v-1 1zM49 107h-1 1zM50 115v-1 1zM48 107zM70 99zM67 95v-1 1zM53 105zM48 110zM52 104zM52 104zM52 104zM64 105zM41 118zM40 118h1l-1-1v1z"></path><path class="st0" d="M51 109v-1c0 1-2 1-1 2h-1 1c-1-1 0 1-1 1v-1l-1 1v1c-1 0 0 0 0 0h-1v-1h-1-1l1 1h-1-1v1l-1 1v-1 1-1 1l-1 1-1-1v1h-1l1 2v1l-1-1v-1-1 1l-1-1h1-1l-1 3-1-1 1-1h-1l-1 1h1-1l1 2h1v0l1-1 1 1-1-3 2 2-1-1h2l-1-1 1 1v-1 1l1-1h-1l1-2s0 2 1 1l-1-3 1 3s0 1 0 0l1 1v-2 1-2 1h1v-1h1l-2-2h1l1 2v-1s0 1 0 0c0 0 1 0 0 0l1-1-1-1h1l1-1 1 1v-1 0c0-1 0 0 0 0l-1-2h1c1 0 0-2 1-1l1 1h-1l2-1-1-1 1-1v1l1-1h-1l1-1-1-1v2l-1-1v2h-1v-1l-1 1c0-1 0 0 0 0h-1v1l-2 1h-1v1c-1-1-2 0-2 1l-1 1h1l-2 1h1c-2-1-1 1-2 1h-1 1-1v1h-1v2l-1-1v2l-1-1v1l-2 1 2 3 1-1h2v-1l1-1v1l1-1h1v-1h2-1l2-1h-1l2 1c1 1-1 0 0 0 1 1 1-1 2-1h-1c1-1 2 0 1-1h1v-1c1 2 1-1 2 0h1v-1l1 1 1-2v1l2-1s2 1 2-1v-1c-1 1 0 0 0 0 0-1 0 0 0 0h1l4-1v-1 1l1-1v0h1v-1c1 1 2-1 3-1v-1h2v-1h1l1-1 1-2h-1l1-1h-1v-3h-2l-1-1-3-1v1h-1l-1 1 1 1v1h2l2 1v-1 0l-1 1h1-1 1c1 0 0 0 0 0v1-1 2l-1 1h-1v2l-1-1h-1v2l-1-1h-1v1h-1l1-1h-1v1h-1v-1l-1 1h1-2 1-1v1c0-1 0 0 0 0l-1 1v-1h-1v1h-1s0-1 0 0v-1 1h-1v-1l-1 1-1 1h-2v1h-1-1 1zm-5 3l1-1-1 1zm-7 4h0zm12-11c-1 0 0 0 0 0zm0 0zm15 2zM40 115zM54 108zM48 113l-1-1 1 1zM53 103zM57 104v0zM54 104c0-1 0 0 0 0zM54 104h0zM52 104h-1 1zM55 105zM53 106l1-1-1 1zM54 105zM55 105h-1zM50 108zM52 108z"></path><path class="st0" d="M51 109s0 1 0 0c0 0 1 0 0 0zM46 112v-1zM44 116s-1 0 0 0c-1 0-1 0 0 0zM43 116v-1 1zM66 95h-1 1zM65 96v-1 1s0-1 0 0zM45 111zM49 110zM51 108s1 0 0 0zM91 75zM90 73zM90 72v0zM92 71h-1l1 1v-1zM92 71zM91 70v0zM91 71v-1 1zM91 71zM89 72s1 0 0 0zM92 70h-1 1s0-1 0 0zM91 70v-1 1zM90 70l1 1-1-1zM92 69h1-1zM92 68h0c1 0 1 0 0 0zM92 67c0 1 0 0 0 0zM91 69h1-1zM91 69zM91 69zM91 70l-1-1 1 1zM91 69zM91 69zM92 68v-1l-1 1h1zM92 68zM92 66zM91 68zM92 67zM92 68zM92 68h-1zM89 65v1h3-1-1 1l-2-1zM92 67v-1 1zM91 67h-1 2-1 1-1zM89 69zM89 69h0zM90 68zM92 66zM92 66v-1zM96 61zM96 60zM94 53s1 0 0 0zM93 53h-1 1zM95 53l-1 1 1-1zM97 65h0zM93 60s-1 0 0 0zM92 61zM93 60zM90 82zM90 76zM91 64h-1 1zM90 58zM92 64zM92 64zM92 63v1zM97 73zM90 50zM90 49h1-1z"></path><path class="st0" d="M97 63v-1l1 1-2-1h1l-1-1c0-1 0-1 0 0v-1h-1 1v-1l1-1-1 1-1-1h0l1-1h-1v-1h1-1-1l1-1-1-1-1-1-1 1v-1h3-1l1-1-3-1h2v1-1l-1-1h0v-1-1h-3l1 1h-2l3 1-3-1v1h0l1 1-1-1 1 1h-1l2 2-2-1 3 2-3-1h-1l1 1-1-1 2 1h-2l1 1-1-1v1s-1 0 0 0l4 1h-2-2 1v1l1 1-1 1h-1l1 1v-1l2 1-1 1s2 0 1 1h-1v-1l-1 2h2v1h-1 1s-1 0 0 0l1 1v-1h1-1v-1 1l-1-1h1l-1-1 1 1v-1h1v-1h-1 1v-2-1l1-1h-1v-1-1c1 0 0 0 0 0l1-2-1-1h1l-1-1h1l-1-1h1l-1-1h-2v3h-1l1 1h-1 2v1h-1l1 1v2h1l-1 1 1-1-2 1 1 1h-1l1 1v1l1 1c-2 0 1 1-1 1l1 1h-1 1l1 1h-1v2c1 0-1 2 1 2h1l-1 1v3c-1 0 0 0 0 0h-1v1h1v1h1l-1 1v2l-1-1v1h-1-1v1h1v-1s0 1 0 0v1l-1-1-1-2h-1 1l-1-1-1 1h-1v2l1 3 1-1v1l1 1v-1 1l1-1v1h-1l1 1h2v-1l-2 1v-1l1 1 1-1h1l1-2 1-1v-1l1 1-1-2h1-1 1v-1l1-1-1 1-1-1 2-1s-1 0 0 0l-1-1v1l-1-1h1l1 1v-1l-1-1h1v-1l-1 1 1-2v0h-1c1 0 0 0 0 0v-1h1l-1-1s1 0 0 0h1v-1 1l-1-1h1-1l1-1-1-1v-1h0v-1-1 1zm-1-4c-1 0 0 0 0 0zm-2-6h-1 1zm-2 9zm0 1v-1 1zm2 12v-1 1zM94 53zM97 65zM89 56zM92 65v-1 1zM89 66c1 0 0 0 0 0zM91 65c-1 0-1 0 0 0zM91 65zM92 63s1 0 0 0c1 0 0 0 0 0zM90 65v-1zM90 63v0zM90 64zM89 64h1zM91 61l-1-1 1 1zM89 61zM89 60s0 1 0 0zM91 56h1zM89 52c-1 0 0 0 0 0h1-1zM89 52h1-1zM91 75zM90 75h1-1zM97 58zM97 61h-1zM98 63s-1 0 0 0z"></path></svg>