<svg xmlns="http://www.w3.org/2000/svg" viewBox="0 0 183 174.5"><path class="st0" d="M68 8zM66 8zM65 7v1l1-1h-1zM65 5v1-1zM65 5zM64 6zM65 6h-1 1zM65 6zM65 8zM64 4v0zM64 5h-1 1zM64 6zM63 4zM62 4l1-1-1 1zM62 4zM63 5V4v1zM63 5zM63 5zM64 6l-1 1 1-1zM63 5v0zM63 6V5zM62 4v0zM62 5zM61 4zM62 5zM61 4c1 0 0 0 0 0zM62 5c0-1 0 0 0 0zM62 5zM59 7l1-1V4v1c0 1 0 0 0 0l-1 1v1zM61 4zM61 4v0h1-1 1-1zM62 7zM62 7h1V6l-1 1zM62 6h-1 1zM61 4V3l-1 1zM60 4V3v1zM42 15zM42 15zM49 4h-1 1zM44 10V9v1zM45 11h-1 1zM40 18l1 1-1-1zM55 3s0 1 0 0zM38 13zM55 3zM39 29zM37 35v-1 1zM58 5zM54 6zM58 3zM58 3c1 0 1 0 0 0zM58 3zM38 23zM48 9zM48 9V8v1zM41 17h1l-1-1v-1h1-1 1l-1-1h1-1l1 1v-1l1 1h1l-2-1h1v-1l1 1-1-1h1l-1-1 1 1-1-1h1v-1-1l-1-1h1v2h1V9l1 1-1 1h1v-1-1 0h1V8l1 1V8l-1-2 1 3h1l-1-1 1 1V8v0l1 1c-1 0 0 0 0 0V8 7 5h1v3h1s0-1 0 0c0 0 1 1 0 0V4v1l1 2s0 1 0 0l1-2v1h1v1l1-1-1 1 1-3v1l1-1v1l-1 1h2V5h1s0 1 0 0l1-1V3l-1 1V3h-1v0h-1s-1 1 0 0h-1-1-1-1-1l-1 1h1-3v1 0l-1-1v2h-1V5v1h-1s0 1 0 0h-1l-1 1c1 1-1-1 0 0h-2l1 1v0l-1 1v1h-1v1h-1-1v0h-1v1h1l-1 1v1h-1v2 1l-1-1v2-1c0 1-2 1-1 2l1 1h0-1l-1 3h0l1 1h-1 1v1 2h1l-2 1h1v2h1l-1 1s1-1 0 0h1v3h1v1h1-1l3-2h-1l1-1h-1v-1h-1l1-1h-1l1-1-1-1v-1l1-1h-2 1-1 1v-1c-1 0 0 0 0 0h-1l1-1c1 0 0 0 0 0l-1-1h1l1 1v-1h-1 1v-1c0 1 0 0 0 0h1l-1-1c1 0 0 0 0 0 1 0-1 0 0 0h1v-1h-1 1v-1 0l1 1-1-1v-1-1l1 1-1-1h1v-1 1zm1-3zm3-4h-1 1zm12-7zm0 1zM34 24c1 0 1 0 0 0zM45 11h-1 1zM40 18zM53 8zM59 3v0zM60 7V6v1zM59 5c1 0 0 0 0 0zM59 5c1 0 1 0 0 0zM58 4V3v1zM59 6zM58 6s0-1 0 0zM58 6zM59 6zM56 5s0 1 0 0zM56 7V6v1zM56 7s-1 0 0 0zM52 6V5z"></path><path class="st0" d="M50 9c1 0 0-1 0 0V8v1zM50 8zM37 35l-1 1 1-1zM37 35v1-1c0 1 0 0 0 0zM43 15v-1 1zM42 16h-1zM42 18v-1 1zM36 35s1 0 0 0zM39 37h-1 1zM40 40l-1-2 1 2zM39 42v-1 1zM40 43l-1-1v1h1zM40 43zM40 42v0zM40 42v-1 1zM40 39zM41 46v-1 1zM41 46h0zM41 42h-1l1 1zM42 49zM43 51v1h1l-1-1zM44 51v0zM42 47v1-1zM42 47v0zM42 47zM41 44h0zM42 46v-1 1zM43 46h-1zM44 50v1-1-1 1zM43 49zM47 48h-1zM44 49h-1 1zM45 50h-1 1zM43 49zM43 49zM46 44v4l1-2h-1l1-1c-1 0 0 0 0 0v-2l-1 1zM46 48l-1 1h1v-1l-1 1 1-1zM45 50v-2l-1 1c1-1 0 1 1 1h-1 0l1-1v1zM43 43zM43 44h-1l1-1-1 1h1v0zM43 47h1v-1 1h-1zM47 48v-1 1zM48 47v-1zM69 18v-1 1zM70 18zM58 34l1-1h-1v1zM66 20h-1v1l1-1zM66 18v0zM67 14h-1v1l1-1zM50 36v-1 1zM75 20v-1 1zM50 35c1 0 1 0 0 0zM48 29zM39 31zM52 42zM49 42zM48 33zM51 42h1-1zM51 42v0zM52 42zM59 18zM58 27zM58 26v1h1l-1-1z"></path><path class="st0" d="M69 16l-1 1h1l1 1h-1 1l1 1h-1 1l-1-1h-1v1-1l-1-1 1 1 1 1v0l-1-1 1 2-1-2v1l1 1h-1v-1 0l-1 1h-1l-1-1v2h-1v-1h1v-1h-1v-1l-1 1-1 4-1-1 1-2h-1v2h-1v0 1l-1 1-1 2-1-1 2 4-2-3-1 1 1 1h-1l1 1-1-1v1h-1-1 1v3l-1-2v4h-1l1-1v-1-2h-1v-1c0 1 0 1 0 0v2l-1 1v-2h-1v-1l-1 4-1-1v-1-1 1l-1-1v1h-1v1l1 1h-1l-1 2-1 1h1-1 1v0h1l1 1 1 1 1 1h-2v-1 1l-1-1 1 1v2h1l-1 2v-1 1h-1 1l-1 3h1v-2h2v-1s-1 0 0 0v-1-1h1v-1-1l-1-1v-1h-1v-1-1h1v-1h1l2 1h-1 2v-1h2v-1h0v-1h1v-2s1 0 0 0h1v-1h1v-1l1-1 3-2v-1h1v-1 1h1v-2h1v1h2-1 2l1 1v-1l1 1h1l1 1h1v1-1-1l1 1v-2l-1-1v-1-2l-2-1v-2-1l-1-1-1-1-1-1-1-1-1-1-1-2h-1V7v1h-1l-1 2-1 1h1v1l-1-1v1l-1-1v1l-5 3h1l-1 1v-1 1l-1-1v1h-1v2c-1-1-2 2-3 1v3c-1-2-1 0-2-1v2l-1-1-3 2 1 1h-2v1s1 0 0 0c-2 1-3 4-6 4v1h1-1l-1 2v-1l2 2 2-1 1-1 3-1-1-1h0l2-1v-1l1 1-1-1h1v1l1-1 3-3h-1l2-1v-1h1v-1-1l1 1c1 0 1-2 2-1 0-2-1 0-1-1v-1h2v1l1-1v-1l-1 1 1-2v1l1-1-1 2h1v-2l1 1v-1 1l1-1h-1c1-2 2 0 2-1h1l-1-1 1-1v1l1-2v0h1s0 1 0 0v1h1l1 1-1 1 2-1-1 1h1v0zm1 3s-1 0 0 0zm-6 1h0zM51 39zm0 1zm4-23h0zM66 19zM67 14zM50 30zM50 45v-1 1zM45 45v0zM48 44c0-1 0 0 0 0 0 1 0 0 0 0zM48 44l-1 1 1-1zM51 41h0zM47 43h1zM49 41v0zM49 42h-1 1zM48 42zM49 37h-1 1zM48 39zM47 38s-1-1 0 0zM51 32v0zM55 29v0zM55 30zM38 31l-1 1h1zM38 32h-1v1l1-1zM68 18h0zM69 17zM67 16v0zM65 65h1-1zM63 65zM62 64l1 1-1-1zM62 63zM62 63v-1 1zM61 63zM62 63h-1 1zM62 63c0 1 0 0 0 0zM62 65zM61 61l-1 1h1v-1zM61 62h-1 1zM61 63zM60 61zM60 61v-1h-1l1 1zM59 60zM60 62v-1 1zM60 62zM60 62zM60 63zM60 62zM60 62zM59 61h-1 1zM59 61zM57 60zM59 61zM58 60v0zM59 61zM59 61zM56 62l1-2v1c-1 0 0 0 0 0l-2 1h1zM58 61v-1h-1l1 1zM58 61v0h0zM59 64zM59 64v-1 1zM59 62h-1v1l1-1zM58 60h-1zM57 60zM50 46zM49 46zM46 53v-1 1zM43 49zM42 47zM54 48h1-1zM53 57l-1-1 1 1zM47 50zM52 56zM67 61zM62 66zM55 60zM50 58zM55 59zM56 59zM55 58v1-1zM60 54zM41 54zM40 54h1-1z"></path><path class="st0" d="M52 47l1-1-2 1v-1l-1 1v-1h-1-1l1-1h-1v-1l-1-1 1 1-1 1v-1h-1v-1 1l-1-2v1l-1-1v3l-1 1v-1 2h-1l1 1 1 1h-1l-1-1h1l-1-1v1h-1 0l1 3-2-1 1-1h-1v1h-1c2 0 1 1 1 1s-1 0 0 0c-1 0-1 0 0 0v1h-1v1h2l-1 1 2-1h1l-1 1h-2l1 1 1-1v1l1-1-1 1h1v1l2-1-1 1 3-2v1l-3 2v1l1-1-1 1 2-1-1 1h1v1l2-3v1l-1 2 1-1-1 1 1-1v1l2-2v2h1l-1 1h1l-1-1 2-1v1h2l-1 1v-1 1l-1-1 1 2h1v-1h1v1-1h1l1-1-1 1v-2l-1 1h-1v-1h0c0-1 0 0 0 0l-1-1-1-1h-1 1l-1-1-1-1h-1v1l-1-1-1-1v-1 1h-1v-1 0l-2 1h1l-1-1h1-1 1-1-1 0v-1l1-1h1l-1-1c1 0 1 0 0 0h1v-1c0 1 0 0 0 0v-1h1-1c0-1 0 0 0 0l1 1v-1 3h1c0-1 0-1 0 0v-1l1 1h1v1h2l1 1 1 1s0 2 1 1h1v-1c1 0 1 1 0 0v2l3 2v-1 1l1-1-1 1h1v1h1v-1s0 1 0 0l2 1v1l1-1-1 1h1v1l-1 1h1-1 1l-1 5c0-1 0 0 0 0h1-1l1 1h2v-1h1l-1-1h1v-2h-1l1-1c0-1 0 0 0 0v-1h1v-1-1-2h-1l-1-1h-1 1-1-1-1l1-1-1-1v1h-1v-1-1l-1 1h1-2l1-1h1v-1l-1 1v-1h-1 1l-1-1v1-1h-1c0-1 0 0 0 0h-1 1-1v-1c0 1 0 0 0 0l-1 1v-1h1l-1-1v1h-1 0l1-1h-1v-1h-1-1v-1 1-1h-1zm-5-2h0zm-5 4v-1 1zm12 9zm0 1v-1 1zm5-2c1 0 0 0 0 0zM42 47c0 1 0 0 0 0zM54 48zM47 59v-1 1zM57 59h-1 1zM57 63v-1 1zM56 60v0zM56 61zM55 59v-1 1zM55 62v-1zM54 61h1-1zM55 61zM55 62v-1zM52 59zM52 60l-1 1 1-1zM51 60s-1 0 0 0zM48 57v-1z"></path><path class="st0" d="M43 57h1v-1l-1 1zM44 56zM62 67h-1 1zM62 67zM47 43zM51 46h-1zM53 47v-1 1zM42 89zM44 91l1 1zM46 94l-1-2 1 2zM45 96s1 0 0 0zM46 97zM47 97c-1 0-1 0 0 0zM46 97s1-1 0 0c1 0 0 0 0 0zM46 96c0-1 0 0 0 0zM46 94v-1 1zM47 99h1l-1-1v1zM48 99c0-1 0-1 0 0zM47 96h-1 1l1 1-1-1zM48 100h1zM49 101v1h1l-1-1zM50 102zM49 99v1-1zM49 100zM49 99zM48 98l1-1-1 1zM49 99v-1l-1 1h1zM49 99zM50 101h0zM49 100zM53 103zM50 101zM51 102zM49 101zM49 101h1l-1-1v1zM55 101h-1l-1 2v-1l1 1 1-1h-1l1-1zM52 102v1h1l-1-1zM51 102l1-1h-1v1h0zM50 97zM50 97h-1 1-1v1l1-1zM50 100h1v-1 1h-1zM53 103l-1 1 1-1zM53 104h1zM92 90zM93 91zM77 107h1-1zM90 98zM89 96h0zM87 83l-1 1 1-1zM63 108h1-1zM96 87c0 1 0 1 0 0zM65 108h-1 1zM64 80zM66 70zM57 104zM67 106zM57 106zM57 106c-1 0-1 0 0 0zM57 106zM81 79zM81 101zM81 100v2-2z"></path><path class="st0" d="M90 87v1h-2 3v1h1v1h0l1 1h0v1h-1 2c-1 0-1 0 0 0-1 0-1 0 0 0h-1-1 1v2l-2 1v-1 2h-1v2h1l-1 1v-1-1l-1-1v1h-1l-1 3-1-2h1v-1l-1 1-1 1v1h-1l-2 2-1-2v4l-1-3v1l-1-1v0l-1 1v0h-1l-1 2-1-1-1 3 1-4h-1 1-2v1l1-1-1 2v-1h-1-1-1l1 3h-1l-1-1 1-1h-1s0-1 0 0c0 0-1 0 0 0h-1l-1 2v-1h-2l-1-1v-1l-1 1h1l-2 2v-1l-2 1v-2l1 1c0-1 0-1 0 0l-1-1-1-1h-1v1h-2v-1l1 1-1-1v1h-2 1l1 2 1-1h2l-1 1h1l1 1s1 0 0 0h4l1 1h5l2-1h1c2 1 2-1 3-1h2v-1l1 1 1-1v-1h1v-1l1 1 1-1h1l4-2h1l1-1h1v-1-1l1 1 1-2 1-1 1-1v1l1-1h1l-1-1 2-1-1 1 1-1h2v-1h-1 1l-2-1-1-2s0 1 0 0l-1-1-2-1c1-1-2-2-1-2v-1l-2-1h1l-2-2-1-2c-1-1-1-3-3-3v1h-1v-1-2l-1-1v-1h-1l-2 2-1 1-1 1v0l-1 1v-1l-1 1h-1l1 1c-1 0-1 0 0 0l-2 1h-2l-1 1v1l-1-1v-1l-1 1v-1h-1l-1-1h-1l1-1h-1l-1-3v-4c0 1 0 0 0 0h-1l1-1-1-1-2 1s-2 1 0 2h-1l1 1h-1l1 4c1 1 0 0 0 0v3h1v1l1 1h-1l3 2h6s1 0 0 0l1-1h1v-1 1h3c0-2-1 0-1-1v-1h2v1l1-1v-1 1l1-2v1l-1 1h1l1-1h1l-1-1h1v0l1-1-1 1h1v1h1s-1 0 0 0h-1v1h1l1 1h-2 1v1l2 1v1l1 1v1h1c1 0 0 0 0 0l1 1zm4 5l-1-1 1 1zm-5 6v-1 1zm-30 9c1 0 1 0 0 0zm0-1zm18-29c0 1 0 0 0 0zM90 96zM87 83zM69 104h0zM55 105zM53 101v-1 1s1 0 0 0zM55 104v-1 1zM55 103c-1 0 0 0 0 0zM58 106h-1 1zM56 102v1z"></path><path class="st0" d="M58 104l-1-1v1h1zM57 104v-1 1zM56 103h1zM63 106v-1 1zM61 104h1-1zM63 104s1 0 0 0c0 0-1 0 0 0zM70 105v1zM76 102c0-1 0 0 0 0s1 0 0 0zM76 102v1-1zM66 69l1-1-1 1zM66 68zM92 92h0zM91 90l1-1zM88 87s0-1 0 0zM102 151h1-1zM98 150zM95 149l2 1v-1h-2zM94 146v0zM91 146h1v-1s-1 0 0 0l-1 1zM90 146h0zM92 146h-1 1zM92 146v1h1l-1-1zM94 149l1 1-1-1zM88 145v0zM88 146h-1 1zM90 147h2v-1l-2 1zM85 145h1l-1 1zM84 145s-1 0 0 0h-1 1zM82 146l1-1-1 1zM86 146zM86 146h-1 1zM86 146zM89 147c-1 0-2 0-1 1l1-1zM86 147h1v-1l-1 1zM86 147zM83 146h-1 1s1 0 0 0zM84 146zM79 146zM83 146h0zM81 146h1-1zM84 146zM84 146zM78 149h1v-3l-1 1c1 0 2 0 1 1h-1l-1 1h1zM80 146h-1 1zM82 146l-1 1h1v-1c-1 0-1 0 0 0h-2 2zM88 148z"></path><path class="st0" d="M87 148h1l-1-1v1zM84 147l-1 1h1v-1zM79 146h-1zM77 146h1-1zM25 118zM25 120zM45 146h-1 1zM28 138h0zM27 138v-1 1zM25 106h-1 1zM64 146h-1 1zM30 119l-1-1 1 1zM62 146h0zM27 63zM38 55v0zM74 148h-1 1zM59 149zM73 146h-1 1zM73 146zM72 146zM26 86zM37 150zM36 150h1v-1 1h-1z"></path><path class="st0" d="M25 113h-1l1 2v1 4l1 1v1l-1-1v2-1l-1 2 1-1v2h-1l1 1-1 1h1v3c0 1 0 0 0 0v1l1 1v2h-1l2 2-1 1c1-1 2 0 2 1l1-1v1h-1-1l-1 1h1v1l3 3-1 1-1-2h-1l1 1h1v1h1l1 1h-1v1h1l1 1h-1l1 1 2 1h2l-1 1 1-1h1l1-1v-1 2l-1 1h1v-1l2 1v-1 1l1-1 1 1h1-1c2 0 2-2 3-1v1l3-3h1l-3 3 1 1h-1 2l1-1-1 1c-1-1 1-2 2-2v1h1l-1 1 2-1 1 1v-4l2 1v2h1c0-1 1 0 0 0h1l2-2 3 1v1l1-1v1l1-1h-1l2-2v1c2 0 2-2 4-1v1h-2 1-1l4 1 1-1h-1 1l2-1v1l-1-1h2-1l3-1h-1c0 1-2 0-1 1l-2-1h-1 1l-2 1-1-1h-2s-1 0 0 0h-6-2-1l-4-1v1h-2v1l-3-1h1-5-1 0v1h-1l-1-1-2 1h-1-1v-1l-2 1v-1h-1l-1-1-2-3c-1 1 0-1-1-1h1l-1-2v-1 1l-2-1v-1h1l-1-2v-1-2l-1 1v-2-3-1l1-2h1l-1-1h1l-1-3v-3l-1-2c2 0-1-3 1-3v-2l-1-2h1l-1-3h1v-8l-1-1c0 2-1 0-1 0h1l1-2v-8h-1v-1h1l-1-1h1l-1-1 1-1v-1h-1-1l1-5v-3h-1l2-2c-1 1 0-2-1-1v-1l1-2 1-2-1-1h1v-1l3-5c1-1 2-3 4-3-1 0 0 0 0 0v-1h1l1-2v1l-2-2h-1l-2 2v-1l-1 1-2 2-2 2h1l-1 1v-1h1l-2 2-1 1v1l-1 1-1 2 1-1v1h-1v9l-1 1 2 1-1 1 1 1h-1c-1 1 1 2-1 3 1 1 1-2 1-1l1 1-1 2h-1v2h1v-1l1 3-1-1v1l-1-2v1l1 2h-1v1-1 2l1-1c0 2-2 1-1 3-1 0 0-1 0 0v1c0 1 0 0 0 0l1 2h-1l1 1h-1l1 1h-1v1l1 1v1l-1-1v1l1 1h-1v1l-1-1 1 2h-1l1 3v3l-1 1h1v3zm0 10v-1 1zm3 16zm41 7zm1 1v-1 1zM29 83zM27 138zM25 106zM55 151v-1 1zM75 146h-1 1zM80 149l1-1-1 1zM76 147v0zM77 147zM71 146c1-1-1 1 0 0zM76 149v-1 1zM73 148zM73 148h0zM75 149h-1zM65 148c-1 0 0 0 0 0z"></path><path class="st0" d="M68 150l-1-1v1h1zM65 150s-1 0 0 0c0 0 1 0 0 0zM54 149v-1zM44 151h1-1zM45 151v-1 1zM40 55h1-1zM40 54h0zM24 125v-1 1zM25 117zM24 111v0zM66 108h-1 1zM69 109h1zM72 112l-1-2h-1l2 2zM73 114h-1 1zM74 115l-1-1v1h1zM75 115l-1-1 1 1zM74 114zM74 114c-1 0-1-1 0 0-1-1-1 0 0 0zM73 111h-1 1zM76 117v-1 1zM76 116h0zM75 114h-1 1zM78 118h-1 1zM79 119l-1 1h1v-1zM80 120h-1 1zM78 117v1-1zM78 117v0zM78 117zM76 115h1-1zM78 116h-1 1zM78 117v-1 1zM80 119s-1 0 0 0zM79 118zM83 121zM80 118h-1 1zM81 120zM79 118zM79 118zM85 120l-1-1-1 2h1l-1-1 1 1 2-1h-1zM82 120v1h1l-1-1zM81 120l1-1h-1v1l-1-1 1 1h0zM78 114zM78 115v-1l-1 1 1 1v-1zM80 117zM83 121l-1 1h1zM84 122h-1 1zM114 170zM116 169zM107 141l1 1v-1h-1zM122 154l1-1h-1v1zM124 154zM103 171h-1 1zM94 130v0zM114 165l-1 1 1-1zM95 131h-1 1zM63 171zM52 166zM88 123zM99 131zM87 125zM87 125zM88 126l-1-1 1 1zM84 170zM115 142zM116 142h-1v1l1-1z"></path><path class="st0" d="M109 171v1l1-1h2l1-1h2v-1 1l1-1 1-1 1-1-1 1h1l1-1v1l2-1h-2l1-1h2v-1l1-1v-1l1-2c0-1 0 0 0 0v-1-2-1h1l-1-2v-1l-1-1-1 1v-1h1l1 1v-1-1-1l-3-2 1-1v1l1 1v-1l-1-1v-1c-1 1-1 0-2-1h1v0h-1-1 1l-1-1-4-2h1l-3 1c1-1 1-3 2-2l-1-1v1l-1-2-1 1 1-1h-2l1-1-1-1v1h-3l1-2c-1 1-3 2-4 1h-1l4-1v-1h1l-1-1h-2l2 1h-3l1-1-1-1h1l-2-1v-1l-3 3v-2l1-1h-1l-1-1-2 1v-1l-2-2v-1h-1l1-1h-1c-1 1 0 1 1 1h-3c-1 0 0 0 0 0l-3-1 1-2 1 2v-1 1l-3-4v1h-1l-2-1h1l-1-1v1l-2-1v1c0-1 2 2 2 0v2h3l-1 1h0l1 1 1 1h1l1 1 3 2 1 1 1 2 2 2h1l1 1 1-1 2 2h-1l3 2 1 1h1l-1 1h1v-1l1 1 2 1h1l-1 1h1v1h2l1 1 1 2h1v1h1v1c1-1 0 1 1 1h-1l1 1v1h1l1 1h-1l1 2v3l-1 1-1 1h1v1l-1 1h-1-1v1l-1-1v1l-1 1h-1l-1 1-1 1h-2l-1-1h-2l-2 1v-1l-2 1v-1h-8l-1 1v0l-2-1h-8l1 1h-1v-1l-1 1v-1l-1 1-1-1h-1v1s-1 0 0 0l-5-1-2 1v1c0-2-2-1-2-2l-2 1v-1h-5v1l-1-1h-1v1l-10-1h-1v1l-1-1-2 1h1c-1 1 1 2 1 2s1 2 2 0v1h7l-1-1 3 1h1l1 1h1v-1h6-1 4s1 0 0 0l2-1v1l1-1v1h2l1-1 2 1h2-1l2-1v1h1l-2 1h1l2-1v1h2l-1-1 3 1h-1 1c2 0 0 0 1-1h1v1l2-1-1 1 1-1v1h1l1-1h1l-1 1h1l1-1v1h1v1l1-1v1l3-1h3v1c1 0-1-1 1-1 1-1 0 0 0 0h3-1zm10-4v0zm4-15v0zm-33-25zm-1-1c1 0 1 0 0 0zm-7 40c-1 1-1 0 0 0zM124 154zM103 171zM103 131v0zM85 124h0zM83 118v0zM86 122h-1 1zM85 122v-1 1z"></path><path class="st0" d="M88 126c0-1 0 0 0 0-1 0 1 0 0 0zM86 121v1l1-1zM89 123h-1 1zM88 123v-1 1zM87 121v1h1zM94 128v-1 1zM93 125v1-1zM95 126s1 0 0 0c0 0-1 0 0 0zM102 133v1zM111 137h-1 1zM110 137zM50 166h-1zM49 167v-1l-1 1h1zM121 167zM114 171l-1-1zM107 172h1-1zM55 166v-1 1zM53 167zM52 167h1v-1l-1 1zM51 165zM51 165zM51 166zM51 166zM51 166zM52 168v-1 1zM50 165v1-1zM50 166h-1 1zM51 167v-1l-1 1zM49 165zM48 165v-1 1zM48 165zM49 166v-1 1zM49 166zM49 166zM50 166v0zM49 166zM49 166zM48 166zM49 166zM47 166zM48 166zM47 165l1 1-1-1zM49 166zM49 166h-1 1zM46 169l1-1v-2l-1 1h1-1v2-1 1zM47 166v-1 1zM48 166v1-1h-1 1zM50 168zM50 168v-1 1l-1-1 1 1zM49 167h-1v1-1h1zM47 166v-1 1zM46 166v-1 1zM32 155zM32 156zM37 166v-1 1zM34 162zM32 162zM34 150h-1 1zM42 166h-1 1zM36 156zM41 166c0-1 0-1 0 0zM49 146zM54 151h-1 1zM45 167zM40 168zM45 166h-1 1zM45 166zM44 166zM41 147c1 0 1 0 0 0zM32 168zM32 168h1v-1l-1 1z"></path><path class="st0" d="M32 153l-1-1 1 2v1c0 1 0 0 0 0v1h1-1l1 1-1-1-1 1h-1 2v1h-1 1v1h-1l1 1h1l-1 1h1l-1 1h2-1-1 1-1v1l2 1h-1l-1-1v1l1 1-1-1v1h1l-1 1v-1l1 2h-1 3l-3 1v1l1-1-1 2 1-1-1 1 1-1-1 1h1l2-2v2l1-2 1-1v-1l-1 2-1 2v1l2-1h-2l1-1h1v1h1s0 1 0 0v-3l1 1v1h1v-1h1v1h1v0h-1l1-2c1 0 0 0 0 0l2-1v2l-1-1v1h2-1l1-1s0-1 0 0h1-1l1-1v-1 1l-1-1s0 1 0 0v1l-1 1v-1 0l-1-1v1h-2v-1h-1-1l-1 1c0 1 0 0 0 0 0-1 0 0 0 0h-1c0-1 0 0 0 0s-1 1 0 0h-1v0h1-1v-1l1-1c-2 0 0-1-1-1h1v-1h-1s0-1 0 0v-1-1c-1 0 0 0 0 0v-2h-1 2c1-1 0 0-1-1h1v-1h-1s1 0 0 0l-1-1h1v-1-1-1l1 1 1-1v-1-1c0-1 0 0 0 0l1 1 2-1h1v0l1 1v-1-1l1 1h1v-1l1 1v-1l1 1h1l1 1v-1c1 1 3-1 4 1v-1h1l-1-3h-1l-2-1v1l-1-1v1-1 1l-1-1h1-1l-2 1h-1v-1l-1 1h-1l1-1h-2l1 1-1 1v-2h-1v1h-1 1-1l1-1s-1 1 0 0h-1-1 1-1c0-1 0 0 0 0h-1-1v1c0-1 0 0 0 0l-1 1v-1h-1l1 1h-1s0-1 0 0v-1l-1 1h1v1l-1-1v1l-1-1v2l-1 1h-1l1 1-1-1v2h1zm0 4s-1 0 0 0zm1 6v-1 1zm10 3zm1 0zm-1-15l-1-1 1 1zM32 162h1-1zM34 150zM39 170zM45 165v0zM47 168zM46 167zM46 167zM44 166v-1 1zM46 168zM45 168zM45 168zM45 168zM42 168zM43 169zM42 169v0zM38 169v-2z"></path><path class="st0" d="M33 171h1v-1l-1 1zM34 170zM54 151zM55 150v1-1zM30 158h1v-1l-1 1zM31 154l1 1zM32 151l-1 1 1-1zM8 167zM8 166zM9 165H8v1l1-1zM10 166zM10 166h0zM10 165c0 1 0 1 0 0zM10 166v-1 1zM10 166v0zM8 165zM12 166l-1-1 1 1zM11 165h1-1zM10 165zM13 165v1-1zM13 165v1l1-1h-1zM14 165zM12 165zM12 165zM12 165zM11 165v-1 1zM12 164h-1v1l1-1zM12 164zM13 164s0 1 0 0zM13 165zM15 164zM13 164zM14 164zM13 165zM13 165v-1 1zM14 161s0 1 0 0l1 3v-1l-1-1h1v-1h-1zM14 164h1-1zM14 164l-1-1v1h1zM11 163zM11 163l1 1-1-1zM12 163zM15 164zM15 164h1zM36 167zM36 165zM28 156s0 1 0 0zM34 157zM36 157zM32 171c0 1 0 0 0 0zM21 161h0zM32 165zM22 161zM12 171zM8 166zM17 162v-1 1zM22 158zM18 163zM18 163zM18 163zM22 170zM30 151zM30 151v0z"></path><path class="st0" d="M36 171l1-1v2h1l-1-2-1-2h1l-1-1c0-1 0-1 0 0v-2-1h-1 2-1v-1l1 1 1-1h-2v-1h1l-1-1v-1h-1l1-1-1-1h1l-2-1h-1 2-1 2v-1l-3-1 1-1 1 1h1l-1-1v-1h-2 1-1v-1h-3l1-1-1 1v1l-1 1v-2l1-1h-1v1l-1-1v1l-1-1-1 1h1l-1 2-1-2 1 4v-1 1l-1-2v-2c-1 0 0 0 0 0h-1v2l-1-1v1-1l-1 1 2 3h-1l-1-2v1l-1-1 1 1h-1l1 1v1h-2c-1 0 0 0 0 0l-1 1 1-1v2c0 1 0 0 0 0l-1 2-1-2h-1v2h-1 0v1h2c-1 0-1 0 0 0h-1l1-1 1 1 1-1h1l1-1 1-1h1v-1h1v-2h2v-1h1v-1 1l1-1v-1 1h2v1h1c0 1 0 1 0 0l-1 1c1 0 0 0 0 0h0s1 0 0 0h2v1h-1l1 1c-1 0 0 0 0 0v1l-1 1h1v1l-1 1h-1 1l-1 1 1 1 1 1-1 1c1 0 1 0 0 0l-1 1v-1h-1c-1 0-2-2-2 0l-1 1 1 1-1-1v-1h-4-1v-1 1h-1v1l-2-1-1 1h-1v-1l-1 1v-1h-3s1 0 0 0h-1s1 0 0 0h-2l-2-1v1l-1-1v1l-1 1v1l1 1h1v-1l2 1v-1l2 1h1l-1 1h1v-1h5v-1 1l1-1v1h1c1-1 0 0 0 0v-1l1 1h1l1-1v1s0-1 0 0l-1 1s0-1 0 0l1-1v1l1-1-1 1h1v-1l1 1h1v-1c0 1 0 0 0 0v1l1-1v1-1 1h1v-1 1h1-1l1-1v2-1l1 1 1-1h3l1 1v-1c-1 0-1 0 0 0l1 1v-1-1 1zm0-8v0zm-1-7v0zm-16 6zm0 0zm2 4c0 1 0 0 0 0zM36 157h-1 1zM32 171zM22 155zM17 164v-1c0 1 0 0 0 0v1zM13 162c1 0 1 0 0 0zM16 162h-1 1zM15 162zM18 162v0zM15 161h1-1zM17 161h-1 1zM16 161zM16 161zM20 160v-1 1zM18 159h1-1zM19 158zM23 156l1 1z"></path><path class="st0" d="M26 151l-1 1h1v-1zM26 152zM7 165v0zM6 167zM37 163zM37 168v-1h-1zM36 172h0zM88 76zM88 74l-1-1zM88 72v0zM90 72zM90 71v1h1l-1-1zM90 71zM90 71zM90 71h-1 1zM88 72h-1 1zM91 70zM91 70l-1-1 1 1zM89 70v1-1zM92 69zM92 68v0zM92 68zM91 69zM91 69zM91 69zM90 70h-1 1zM90 69zM90 69zM91 68v-1 1zM91 68zM92 66zM91 68zM92 67zM91 68zM91 68zM90 65l2 1h-1v-1l-1-1v1zM92 67v-1 1zM92 67l-1-1v1h1zM88 69zM89 69h-1 2-1zM90 68v-1 1zM92 66h1-1zM92 66h1zM112 55zM112 55zM98 66h1v-1l-1 1zM105 55v0zM105 53h0zM110 63c1 0 0 0 0 0zM95 60h-4l4-1v1zM106 60zM91 61v-1 1zM98 80zM91 80zM92 63zM94 60zM93 64l1-1-1 1zM94 64zM94 63zM105 72c1 0 1 0 0 0zM99 59zM99 58v1l1 1-1-2z"></path><path class="st0" d="M111 59l1-1s0 1 0 0l-1-1h1c1-1-1 0-1-1h1v-1h-1 1v-1-1-1l-1 2v-2-1l-1 1h-1v-1l-1 1h-1-1v1l-1 2v0l1-2-1 1 1-1-1 1v-1 1l-2 3v-1l1-1v-1 1h-1l-1 2 1-1-1 1h-1l-1 2v-1l1 3-2-2h-1l1 1h-1l1 1-1-1v0 3l-1-2v5h-1v-1l1-3v-2-1 3h-1l1-1s-1 0 0 0v-1h-1c0 1 0 1 0 0 0 0 1-1 0 0l-1 4v-2-1l1-1h-1-1v-1-1h-2v-1l2 1h-2v0h2l-1 1 1 1h-1v2l-1-1v-1l-1 2v1-1l1 1v1h-1l1-1-1 1h1v1h1l-1-1h1l-1-1h1v-1l1 1v-1s0-1 0 0v-1l1-1h-4v2h1v2l1 1 2 1v-1l1 2v1l1-2h1v-1l1 1v-1-1c0 1 0-1 0 0l1-2h1v-1 0h1s-1-1 0 0v-1h1c0-1 0 0 0 0v-1 1h1l-1 1 1-1-1 1 1-3 1-1-1 1 1-1c0 1 0 0 0 0l1-1c0 1 0 0 0 0v1l1-1v-1 1h1l-1 1-1 2-1 1 2-2-2 2h1s0-1 0 0l1-1-1 1h1-1l1-1-1 1v1 1c-1 0-1 0 0 0l-1 1c0 1-2 1 0 2v1h0l-1 1-2 3h1v1l-1-1 1 1h-1v1h-1 1l1 1h-1-1v2l-2-1v1c0 1 0 0 0 0l-2 1v1l-1-1v1c-2 0-2 3-5 2v1h1-1l-1 1h1l1 2c0-1 2 0 1-1l1 1v-1l2-1h1l-1-1h2s-1 0 0 0h1l2-2 1-1v-1 1l1-1v-1l1 1 1-2c-1-1-1 1-1 1v-1l1-1 1-1h-1v-1 0l1 1s-1 0 0 0v-1h1v-1h-1l1-1s0 1 0 0h0v-1-1 1-1l1 1v-1l-1-1h1v1l1-1h-1v-1 0l1 1v-1-1l1-1h-1l1-2 1-1h-1l1-1v-1 1zm0-6v0zm-7 2h0zm-10 7zm0 0s-1 0 0 0zm8 10zM105 53zM110 63zM96 60zM93 65v-1 1zM90 66zM92 64l-1 1 1-1zM91 65c1 0 0 0 0 0z"></path><path class="st0" d="M94 63c-1 0 0 0 0 0s0-1 0 0zM90 64h1zM91 63s1 0 0 0zM91 63zM91 63zM93 60v-1 1zM91 60h1-1zM92 59h-1 1zM95 62v1zM97 59v0zM97 60zM90 80zM90 81v-1 1zM112 52zM112 55v1zM112 60v-1 1zM70 26h-1 1zM71 26zM71 27c1 0 0 0 0 0zM69 28h1-1zM70 28h-1 1zM70 28zM70 28zM70 28zM72 27h-1 1zM69 29h0zM70 29zM71 28h-1 1zM70 30h-1 1zM70 30h-1 1zM70 30zM70 29zM70 29zM70 29zM71 29l1-1-1 1zM71 29h-1 1zM71 29zM70 30h1-1zM70 30zM71 31zM71 30h-1 1zM70 30zM70 30zM70 30h1-1zM73 31v-1l-2 1h2zM71 31h-1 1zM71 30h0-1 1-1 1zM73 28zM72 29v-1 1h-1 1zM72 29v1-1zM70 31h1zM71 31h-1zM72 46zM72 46zM72 38h-1 1zM72 42h-1 1zM73 43h-1 1zM72 49zM71 34s1 0 0 0zM68 45zM71 35v-1 1zM63 56zM59 52zM72 32zM74 35zM71 32zM71 32zM71 32zM68 53zM76 40zM76 41l-1-1h-1 1l1 1z"></path><path class="st0" d="M72 48h1l-1-1v-1-1 1-1 1c2 0 0-1 1-1h-1c1 0 1 0 0 0h1v-1h0l-1-1c1 0 1 0 0 0h1l-1-1-1-1 1 1 1 1v-1 1h1l-1-2 1 1c-1-1 0 0 0 0v-1 0h1v-1h1l-1-1-1-1 2 2s1 0 0 0l-1-1 2 1-1-1h1l-2-1h2-2l-2-1h2l2 1v-1l1 1v-1h-2 1-2l2-1h-1 0l1-1-4 1h1l2-1h-1-2 1v-1h1-1l1-1h-1v1h-2l1-1h-1l1-1v1l1-1h-1-1s-1 0 0 0v-1 1l-1-1h-1l1 1h-1 1l1 1h-1s-1 0 0 0v2 1l1 1v-1 1c-1 0 0 0 0 0v1c-1 0 0 0 0 0s1 0 0 0h1s-1 0 0 0h-1 1-1v1-1 1h-1c1 1-1 0 0 0h-1v0l1 1v1l-1-1v2l-1 1h-1l1 1h-1c-1 0 1 0 0 0h1l-1 1 1 1h-1v2h-1v1c-1 0-1 0 0 0v1h0v-1l-1 1v0 1l-1-1v1h-1v1l-1-1v1h-2s1 1 0 0h-2v1-1 3c0-1 1 2 1 0v1c0-1 0-1 0 0h2-1 1l-1-1 1 1v-1l1 1v-1 1l1-1h1v-1l1 1v-1-1 1h0v-1l1 1h1v-1h-1v-1l1 1v1s0-1 0 0v-1h1v0c0 1 0 0 0 0h1v-1-1 0h1l-1-1h1v1l1-1h-1 1v-1-1l1 1-1-1h1l-1-1v1zm0-3h1-1zm0-3c1 0 0 0 0 0zm-1-9zm0 0zm-6 18c1 0 0 0 0 0zM73 43zM72 49zM76 35zM70 32zM73 30zM72 31c-1 0 0 0 0 0zM72 31z"></path><path class="st0" d="M71 33c0-1-1 0 0 0-1 0 0 0 0 0zM73 31zM73 32zM73 32zM73 31zM73 33c0 1 1 0 0 0zM74 33zM75 33zM74 36h-1zM77 38s-1 0 0 0h-1 1zM76 38zM59 52v-1 1zM59 52zM74 45zM73 47h-1zM73 48s-1 0 0 0zM136 5zM136 7v1zM135 9l1-1-1 1zM133 9c0 1 0 1 0 0zM133 10zM133 11v-1 1zM133 10c0 1 0 1 0 0zM133 10h0zM136 10V9v1zM132 12v-1 1zM132 12h0zM134 11v-1 1zM131 13v-1 1zM131 13h-1 1s0 1 0 0zM131 14v-1 1zM132 13s0-1 0 0zM132 13zM132 13zM133 12h0zM133 13v-1 1zM133 13zM131 14c1 0 0 0 0 0zM132 13zM131 15zM132 14zM131 14zM132 13c-1 0 0 0 0 0zM132 13v0zM132 17v-1l-1-1 1 1h-1v1h1zM131 15v-1 1zM131 14l1 1v-1h-1v1-1zM135 13zM134 13h-1 1zM133 14v0zM131 14h-1v1zM130 15v-1 1zM140 29zM140 30zM129 28s0 1 0 0zM137 34zM138 32zM145 23zM121 20h-1 1zM144 32v-1 1zM119 21l1-1-1 1zM141 15zM141 7zM129 17zM124 22zM128 16h-1 1zM127 16c1 0 1 0 0 0zM127 16zM150 21zM135 26zM136 27l-1-1v1h-1 2z"></path><path class="st0" d="M141 26v0h-1v1l1 1h-1v2h-1l-1-1 1 1v1c0-1 0 0 0 0v-1 4l-1-1v-1 0l-1 2v-1 1l1-2v0-1 1-1l-2 1 1-2v1l1-1-1 1v-1h-1 1-1v-1s-1-2-2-1l2-1h-2l-1 1 1-1 1-1v-1h-1v0h-1v0h-1l1-1h-1l-2 1 1-2-3 2h-1l2-1h1v-1s1 0 0 0l1-1-2 1h1v-1l-1 1h-1l2-1h-1c1 0 0 0 0 0s-1 0 0 0c0 0 1 0 0 0l-5 2 1-1 2-1h1-2-3l1-1h-1 4l-1-1v1c-2 0-3-1-2-2h1l1-1 1 1h-1c1 0 0 0 0 0h1l2-1h-1v-1l1-1v1l1-1h-1l1-1h-1v1l-1-1v1l-1 1h-2-1l-1 1v1h-2l-2 1-1 1h-1l2 1v1l2 1 1-1 2 1h1l1 1 1 1 2 1c0-1 0 0 0 0h1-1 1v1l2-1v1h1v3h1v2c1-1 0 0 0 0h1l-1 1 1 1v1c1 1 1 0 1-1l1 1s0 1 0 0v1l1 1v0h1v-1-1h1v-1 1h1v-1h1v-1l1-1-1-1h1l1-1h-1 1l-1-2c2 1 1-2 2-1v-1h1l1-1v1l2-1 2-1 1-1v-1h-1-1 2-1 3l4-2-2-1h-1 1l-2-1h2-3l1-1h-2-1l-1-1-1-1h-2s0 1 0 0v-2l-1 1v-1h-1v-1h-1l1-1h-1c0-2-3-3-2-6h-1v1-1l-1-1-2 2c1 0-1 1 1 1l-1 1h1l1 3v-1 2h1v1 1h1v2l2 1v-1l2 1h-1 1v1l1-1v1l1-1-1 1h1v0h1l-1 1h2-1 1v1h-1v-1l-1 1h2-1 1-2 1v1 0h-1 1l-1-1v1s1 0 0 0c0 0-1 0 0 0v-1l-1 1h1-1v-1 1l-1-1-1 1v1h-1v1l-1-1v1s1 0 0 0v1l-1-1v2h-1zm-1 5v-1 1zm-3 2c0-1 0 0 0 0zm-12-15c-1 0 0 0 0 0zm1 0v-1l-1 1h1zm27 1zM138 32v0zM145 23zM128 22zM129 15h-1 1zM133 16h-1 1zM130 16c0 1 0 0 0 0zM130 16z"></path><path class="st0" d="M127 17l-1-1v1h1zM131 17h-1zM129 18zM129 18v-1 1zM130 18zM125 20zM128 20h-1 1zM127 21h1-1zM126 23h-1zM132 23h-1v1l1-1zM131 24zM141 6V5v1zM140 5h1-1zM139 29v0zM140 28v1zM142 24h-1v0h1zM160 38zM160 40zM160 41v-1 1zM158 41zM158 42v-1h-1l1 1zM158 42zM158 42zM158 41l1 1-1-1zM160 41zM157 42v1-1s0 1 0 0zM157 43c1 0 1 0 0 0zM159 42h-1 1zM156 43zM156 44v-1 1zM156 44zM157 43zM157 43v1zM157 43zM158 43h0zM158 43zM158 44v-1zM157 44zM157 44zM156 44h1-1zM157 44zM156 44h1zM157 44zM157 44zM158 47v-1l-1-2v3h1zM157 44h-1 1z"></path><path class="st0" d="M157 44l1 1-1-1c0 1 0 0 0 0zM160 44zM159 44h-1 1zM158 44v0zM156 44zM156 45v-1 1zM163 54zM163 54zM155 54v1-1c0 1 0 0 0 0zM161 59v-1 1zM162 56zM166 50zM149 49h-1 1zM166 58zM147 49h1-1zM163 45zM165 39zM155 47zM152 50zM153 46zM153 46zM153 46zM170 49c-1 0-1 0 0 0zM160 53zM161 53h-1l-1 1 1-1h1z"></path><path class="st0" d="M164 53h-1v-1 2c-1-1 1 0 0 0v0s0 1 0 0l-1-1v1l1 1c0-1 0 0 0 0l-1-1 1 1-1-1 1 1-1 1v-1 2l-1 2v-1 1l1-2v-2l-2 2 1-2 1 1v-1l-1 1 1-1h-1c1 0 0 0 0 0l-1-1h-1l-1 1 1-1 1-1v-1 1h-1v-1l-1 1 1-1-1 1 1-1s0-1 0 0h-1l-1 1 1-1-2 1h-2a20 20 0 004-2h1-2 1l-1 1h-1l2-1h-1 1l-6 1 1-1h3-1v-1h-4 4l-1-1 2 1-1-1-1 1-2-1s1 0 0 0c1 0-1-1 1-1h2l-2 1h2l1-1h-1v-1h1-1 1-1l1-2h-1v1h-2s1 0 0 0l1 1s-1 0 0 0h-1v1l-1-1-2 1s1 0 0 0l-1 1-1 1h-2l1 1c-1 0-1 0 0 0l1 1h3l1 1 1 1h2v1l1-1v1l1-1 1 1h-1 1v1l1 1v2h1s0 1 0 0l-1 1 1 1v1s0-1 0 0l1-2c0 1 0 1 0 0v1l1 1c0 1 0 0 0 0v0h1c0 1 0-1 0 0v-1c0-1 0-1 0 0h1v-1 1l1 1v-2 0l1-1h-1l1-1v-1-1c1 1 1 0 1-1h1l-1-1 1 1v-1h2l1-1h2v-1h-1l-1-1 1 1 2-1 3-1-1-1h-1-1 2-1-1v-1h-2v-1h-3-1c2-1 0-1 1-2h-1v1-2h-1v1l1-1h-1l-2-4h-1l1-1h-1l-2 2v1s1 0 0 0l1 2h1l-1 1h1v1-1 1h-1l1 1v-1 1l1 1h2v0l-1 1 2-1h-1 1l-1 1h1l1-1-1 1c-1 0 0 0 0 0h1s1 0 0 0h-2 2l-1 1h1-2c1 0 1 0 0 0h1 1-1c-1 0 1 0 0 0h-1l1 1h-1v-1h-1 1v1l-1-1c-1 0 0 0 0 0s0 1 0 0v1h-1-1v0l-1 2h1zm-1 2v-1 1zm-2 2h1-1zm-9-10c-1 0-1 0 0 0zm0 0zm22 1c-1 0 0 0 0 0zM162 56v0zM166 51v-1zM156 50zM154 45zM158 46zM156 46zM156 46zM153 47l-1-1 1 1zM157 47h-1 1zM155 47h1-1zM156 47zM157 47h-1zM153 49zM155 49h1-1zM155 49h1-1zM154 51h-2zM159 51h-1 1zM158 51zM165 38zM164 38z"></path><path class="st0" d="M162 53h1v1l-1-1zM163 53v1zM164 51h-1 1z"></path></svg>