<svg xmlns="http://www.w3.org/2000/svg" viewBox="0 0 183 174.5"><path class="st0" d="M118 144l-1 1c2 0 1-1 1-1zM134 141l2-1zM149 135l-3 2-5 2-1 1 9-5zM157 131l-2 2 1-1 1-1zM162 127l-1 1-1 1 2-1v-1zM163 125l-1 1 1-1zM160 128l2-2-1 1-1 1zM159 129c-1 1-2 2-1 0l-2 2 3-2zM149 134l-1 1h-1l2-1zM171 117h-1l-1 2 2-2zM170 117l1-1v-1l-1 2zM162 125l-1 1-1 2 1-2 2-2-1 1zM167 114v-1l-1 2zM165 119h-1l-1 2v0l2-2zM162 125l1-2-1 2zM168 111l-1 2 1-1v-1zM168 112l-1 2 1-2zM169 111h-1 1zM167 120c1-1 2-4 0-2v2zM172 113l-1 2s0-1 0 0l1-2zM169 111l3 1v1l1-1-4-2v1zM164 122l-1 3 1-2v-1l1-1-1 1zM166 117zM156 136zM165 121l1-2-1 2zM160 128l1-1-1 1zM166 118v-1 1zM166 118v-1 1zM156 141v-2l3-3c1-2-1-2-3 0l-1 2c1-1 4-4 3-2l-3 3-1 3 1-2 1 1zM159 132v-1l-2 3-1 2 1-2 1-1v-1h1z"></path><path class="st0" d="M162 127c0 1-2 3 0 2l1-2v-2l-1 2 1-2-2 2h1c-1 1-1 0 0 0l-1 1-1 1-1 2 3-4zM168 116c0-1 0-1 0 0zM169 114v2h-1s-1 2 0 0h1l2-2 1-1-3 1zM167 118l-1 4 1-2v-2zM155 136v-1 3zM152 140l-1 1zM69 9h1-1zM60 12v0zM40 145l-1-2h-1l2 2zM16 66v0zM15 64v-1l1-1-1 2zM117 8h1-1zM108 165l-1 1h-3 2l2-1zM67 15l1-1-1 1zM100 166h4-4zM65 111c1 0 1 0 0 0zM102 142h-2 2zM142 152zM89 169zM138 153h-1 1zM138 153l1-1-1 1zM136 154l1-1-1 1zM79 31c-1 1 0 0 0 0zM19 125zM17 121l2 4 1-1v-1l-3-2z"></path><path class="st0" d="M90 6h-1l-1-1h-1 4l-1-1-6 1-4 1-2 1h-1-1 1l-3 1h-1l-2 1h-2l-4 2c-1 0-1 0 0 0l-2 1-3 1v-1l-3 3 1-1-3 2 3-2-3 1-2 1-3 2 1-1 1-1-7 3c1 0 7-2 4 0a15 15 0 00-3 2l-4 2c-2 1-2 1-2 3l-4 2c-3 2 3-2-1 2l-7 8c-1 2 0-1 0 0l-1 1v1h-1c-1 2 1 1-1 3l-2 3-3 5c0 1 0 0 0 0l-2 4-1 4v2l-1 1c0-1 0-1 0 0v4l1-2v2l-1 2c0 1 0 0 0 0-1 2-1 1-1 0l1-2-1-2v3l-1 1v1l-1 2-1 2v1l1 14h-2l1-4v-5c0 2-1 2-1 1v5l1 1-1 3 1 3v5l-1-4 1 4 1 4-1-2 1 2v4-1l2 9 2 4 1 2h-1a79 79 0 005 5l1 1c-1 0-1 4-3 0l2 5c0-1 0-3 1-2l2 6c-1-1 1-1 2 1h-1l1 2 2 1v2l1 1 2 3-1-2 4 4 2 1 3 2c-1 0-2 0 0 2l4 1 6 3 2 1a10 10 0 001 1l-2-1-3-1-4-1-2-1 2 2c1 1 0 1 0 0a43 43 0 01-1 0l2 1 2 2h1l2 1 3 1h-1l-3-2-2-1-1-1 9 4c1 1-2 1-2 1l5 2h-1l-1-1 4 2h2l2 1 3 2c-2-1-1-4 0-4l3 2 4 1c1 1 0 1-1 1s-2 0-1 1h2l2 1h5l2 1c-1-1 3-1 5-2l1 1h13s3 0 2 1l2-1c2 0 1 0 0 0l-1 1 3-1 3-1c-1-1-5 1-7 1l3-1 6-2c3-2 1 0 2 0l4-2 2-1 2-1 2-1 2-1c2 0 0 1 1 1l-2 1-2 1-3 1 3-1-4 2 3-1 2-1h1l1-1 5-2 5-3 1-1h-1v1-1c1-1 1-1 0 0l3-3 2-2 2-1h1l-3 2 3-2 2-2h-1l-1 1 3-3 1-2 2-2-3 2-1 2-1 1-1 1h1l-3 1-2 1v1h-1l-2 1v1l1-1-2 2-3 2c-1 1 0 0 0 0l-2 1-2 1 1-1-1 1h-2l-5 3-2 1h-1l-2 1-2 1v-1l-4 2-4 1h-2-6l-6 1v-1h-8-1l-1-1h-4l-4-1-3-1-1 1-3-1-2-1-3-1v1l-10-5 2 1-3-3-4-2-3-2-3-2-2-2-1-1v1l-2-3v-1h-1c0-1-1 0 0 0l-2-1-1-2-2-2-2-3-3-2s0-1 0 0l-2-4v-1l-1-1-2-1c0-2 0-3 1-2l-2-3-1-2-1-2-2-4-2-10-1-15v-4h1v-5l1-2v-3-1 2l1-5-1-1 1-5v1l1-2 1-3 1-3v-1l1-2 2-4 2-3-1 1c0-2 2-2 3-5l2-2 1-1 1-1 2-3v1l7-7-2 1 4-2 2-1 1-1-1 1c5-3 0-1 3-3h2l4-3 5-3v-1l5-2 4-2h1l4-1 2-1 1-1c2 1 5 0 8-1h19l6 1 5 1h1l5 2 8 3 6 4 2-4-4-1-3-1h-4-5c6 1-1 1 2 2l-4-1c-1 0-1 0 0 0h1l-3-1h-4c-12 1-23 5-32 12h2l-2 1h-1l-1 1 1-1-2 1-1 2-2 1 1-1 1-1-1 1-1 1v-1l-1 2-2 2-1 1-1 1-2 2-1 1v0h1l-1 2c-1 1-1 1 0 0l-6 9-3 8-2 10v2l-1 2v3l-1 3 1 3v4l2 10 3 11h1v1l1 1v2l3 4v-1c4 7 10 13 16 17 6 5 13 8 20 11h1v-1l1 1h2l2 1h1l4 1 4-1-1 1h-1c1-1 1-1-1-2l-2-2h-2l-3-1-4-1h-3v-1l-5-1h1l-8-5-8-6v1l-2-3 1 2 1 1-5-6-4-5-2-2v-1l-1-3 1 2-4-7 1 1v2l-4-12-3-12v-1-1-2-6-2-2c0 1 1-3 1-1l1-7v-1l1-4c0 2 2-2 1 1a72 72 0 004-9l2-2c0-2-1 0-1 1l-2 2 2-4 6-6v1l1-2 1-1 1-1 1-1 2-3-2 2-1 1 2-3a15 15 0 015-3l-2 2 3-3-2 3-4 3 2-2h1l1-1 2-2 2-1 2-1 2-2-1 1v1l7-4c-5 3-1 0-4 1l6-2 6-1h-3 5c5-2-1-1 1-2h2l3-1v1l7-1-2 1h1l1-1v1h7c-1 0 0 0 0 0h3l2 1-3-1-1 1 6 1-1-1 4 1 1-4h-1c-1-1 0-1 1-1l-4-1h3l-2-1h-2l-1-1-2-1c-2-2-7-2-11-4h-1l-6-1-3-1h-3l-2-1c-4 0 3 1-3 1-4 0-1-1-3-1h-2-2l-2 1h-3 4zM49 19l2-2-2 2zM14 72v-3 3zm113 87c-2 1-2 1 0 0zm3-1l-2 1 2-1zM68 37l1-1-1 1zM15 65v-1 1zM116 8h1zM74 169l-2-1 2 1z"></path><path class="st0" d="M145 146v1h-1v1l1-1v-1zM161 133l1-1h-1v1zM148 146l3-2h-1l-2 2zM151 144l1-2-1 2zM134 156l1-1c0-1-5 3-1 1zM150 146h-1v1zM140 154l2-1v-1l-2 2zM142 152l2-1-2 1zM147 149l-2 1zM113 166l-3 1h2l1-1zM122 165h-1v1l1-1zM114 168s-4 1 0 0c0 0 3-1 0 0zM70 166l1-1zM35 147l3 3-1-2-2-1zM37 148l1 1-1-1zM110 144l3 1-2-1zM115 144h2-2zM43 22l1-1c1 0 0 0 0 0l-1 1zM71 8h1zM98 4h-4 4zM138 101h0zM137 96zM137 92v0zM138 90zM138 90h0zM138 89zM138 90v-1 1c0-1 0 0 0 0zM138 90h-1 1zM136 92zM139 90v-1 1zM139 89zM137 89zM143 89v1h-1l1-1zM146 89h3-3zM150 88l-1 1 1-1zM141 89h1-1zM141 89h0zM141 89zM138 89v-1 1zM140 88h-1v1l1-1zM141 88h-1 1zM147 88h-1 1zM144 88zM155 87h-1 1zM146 88h-1 1zM151 88h-1 1zM145 89zM145 89v-1l-1 1h1zM148 85h0l6 2v-1h-4 2l-2-1-2-1 1 1h-1zM152 87h3-3zM150 88l-2-1c-1 0 0 0 0 0h1s-1 1 1 1h-2 2l2-1-2 1zM138 87c1 0 1 0 0 0zM139 87h-1l1 1v-1l1 1-1-1zM143 87h2-2zM155 87h1zM155 86h1-1zM112 69h1-1zM112 68h-1 1zM134 65h-1 1zM123 63v-1 1zM124 64zM114 80c1 0 0 0 0 0zM141 75h1-1zM103 63h0zM143 74h-1v0h1zM120 93h1-1zM132 100h-1 1zM146 82zM142 70zM147 80h-1 1zM147 80c1 1 1 0 0 0zM146 79v0zM114 85zM128 65zM127 65h1l1-1h-1l-1 1z"></path><path class="st0" d="M114 71h1-1l-1-1c1 0 0 0 0 0l-2-1h1l-1-1 1 1-1-1-1-1h1l1 1 1 1c-1-1-1-1 0 0l1 1 1 1-1-2-1-1s0 1 0 0l1 1v0l1 1v-1h1l2 1c1 0-1 0 0 0h3l1-2 1 1v-3-1h1v-1h-1v-1h-1l1-2v0l1 1h-1l1 2v-1 0l1 1-1-1h1v-3l1-4v4h-1v2c0-1 0 0 0 0v-1l1-1v-1 1c0 1 0 0 0 0h1-1 1v2l1 1-1 1 2-1 1 1h1l-3 1v1l1-1v3l1-1v1l-1 1 2 1v-1l-1 1 1 1c-1-1 1-1 2-1h-1c2-1 2-3 4-3v2l1-2 3-3h1l-3 2-1 2v1l2-1h-1l-1 1 1-2 2-1v1l-1 1 1-1-1 1h1l1-1-1 1 7-6h1l-3 3-2 1-2 2 1-1-1 1h1l-1 1 1-1 1 1h-1l-2 3-1 1v1c-1 0 0-2-1-1v2l1-1v-1l1 1v1l-1 1 2 1h1v1h-1-1v-1 1l-1-1 2 2 2 1h2l1 1 2 1h-1v-1 1l2 1v-1l2 1 2 2 1-1c-1 0-1 0 0 0l-2-1h-2v-1l-1-2h-1-1l-3-1s1 0 0 0l-1-1v-1h1-1v-1h-1s-1 0 0 0h-1v-1l1-1 1-1 1-2 1-1 1-1v-2l3-3 2-4-1 1 1-2-3 2h-1l-2 1h-3 1l-3 1-4 1-1 1-1-1 1 1h-1c0-1 0 0 0 0v1l-1-1s0 1 0 0v1h-1v-1h-1l1-1h-1l1-1-2-2v-1l-1-1-1-4-2-5v1l-1 1v0l-1 2-1 3v-1 1 3l-1 2v-1l-1 1v3l-1 1v1l-1-1-2-1v1h-1l-2-1h1l-2-1-2-2h1-2s1 1 0 0l-2-1h-1l-3-1 1 1-2-1 2 3h-1l3 3 1 3 1 2 1 2v1h1c0 1 0 0 0 0l1 1-1 1h-1l-1 1-2 1-2 1-2 2-2 2-1 1 2-1h1l-1 1h-1l-3 1h1l7 1 3 1 3 1v-1h1l-1 1h1v-1 1h1v1-1l1 1-1 1v8l-1 3-1 4h1c1-1 2-2 1-3v2c1-2 2-3 4-3l3-3v-1h1l1-1v-1h1s-1 0 0 0v-1h1l1-1 1 1 1 1 3 4c0-1 0-1 0 0l1-1 1 2 2 1h-1l1-3-2-3c-1 0 0 0 0 0l-1-1-2-2h-1v-1h-1l-1-2-1-1 1 2-1-2-3 2-1 1-1 1c1 0 1 0 0 0h-1s0 1 0 0l-1 2-2 2v-1-1l1-1h-1-1 1l-1-1h1v-1-1l1-1c-1-1-1 0-1 1 0 0 0 1 0 0h-1v-1l1-1 1-3v-1h-2-1-1 2l-2 1h-2l1-1h-1 2v-1l-1 1-1-1h-1v-1 1h-1v-1 0h-1l-1 1h-1-1v-1h3c-1 0-1 0 0 0-1 0-2 0-1-1h1v1l1-1h-1 3v-1l1-1h1v-1l3-1-1-3v-1h-1l-1-1v-1l-1-1 1 1zm-1-3s0 1 0 0c-1 0-1 0 0 0zm11-6v0zm18 15zm1 1l-1-1 1 1zm-29 11zM124 64zM114 80zM140 68h0z"></path><path class="st0" d="M152 83l-2-1 1 1h1zM147 86c1 0 1 0 0 0zM149 84h0zM150 84l1 1-1-1zM145 79h-1 1zM147 84h1l-1-1zM144 81l1 1-1-1zM145 82h0zM146 83zM139 76v-1l-1 1h1zM138 78h-1 1zM137 76h-1 1zM144 65l2-1zM134 70h2l-1-1v1h-1zM135 69zM133 102v1-1zM134 103h0zM115 70h-1 1zM113 70l-1-1 1 1zM116 72h-1v-1c0 1 0 2 1 1z"></path></svg>