<svg xmlns="http://www.w3.org/2000/svg" viewBox="0 0 183 174.5"><path class="st0" d="M96 29zM97 30zM97 30c0 1 0 0 0 0h-1 1zM95 30zM95 30v-1 1zM96 30h-1 1zM95 30s1 0 0 0c1 0 0 0 0 0zM95 30h0zM97 31zM95 30zM95 30v0zM96 31v-1 1zM94 30h1zM94 30zM94 31v-1 1zM95 31v-1 1zM95 31zM95 31zM96 31zM95 31h1-1zM96 31h-1zM95 31zM95 31zM94 31zM95 31zM94 31zM95 31zM95 31zM96 34v-1l-2-2 1 1v2-1l1 1zM95 31h-1 1zM95 31v0h-1 1-1 1zM97 32zM97 32h-1 1l-1-1v0l1 1zM96 32zM94 31zM94 31zM82 28h-1 1zM82 29zM90 32v-1 1zM85 32h0zM84 33v-1 1zM81 25zM92 32zM86 28zM92 32s0-1 0 0zM88 17zM92 21zM94 33zM92 35zM94 32zM93 31zM93 31zM84 21zM87 35zM86 35h1v-1 1h-1z"></path><path class="st0" d="M81 27h-1l2 1h-1 1v1h1-1 1-1v1l-1 1 1-1h-1 1l-1 1h3v1h-1 2l1-1v1-1l-1 1h-1c0 1 0 1 0 0v1l2-1-1 1c1 0 0 1 0 0l-1 1h1v-1 1h2v1l1-1v-1l-1 2s0 1 0 0l1-1v2l1-2v2l1-3-1 3v1l1-1h-1v1l1-2v1h1v-3 2l1 1v-2l1 1v0c0-1 0 0 0 0v-2-1l1 2h-1 1v-1-1 1s0-1 0 0c0-1 1 0 0 0v-1-1s0 1 0 0v1l-1-1v1h1v1l-1-1v0c0-1 0-1 0 0 0-1 0 0 0 0h-1s0-1 0 0l-1-1v1h-1c0-1 0 0 0 0h-1c1 0 0 1 0 0v1s0-1 0 0c0-1 0-1 0 0v-1l-1 1 1-1h-1s0 1 0 0v-1h-1 1-1l1-1s-1 0 0 0l-2 1c1 0 1 0 0 0h0v-1c-1 0 0 0 0 0s-1 0 0 0h-1v-1 1l2-1h-1l1-1h-1s1 0 0 0h-1l1-1c-1 0-1 0 0 0h-1 1l-1-1h1c-1 0 0 0 0 0v-1c1 0 1 0 0 0h-1l-1-1h3v-1h1-1v-1h1v-1l1 1-1-1 1 1h1l-1-1 1 1v-1h1v-1l1 1v-1-2h-1v-1 1-1h-1v1l-1-1 1 1-1-1v1l-1-1h1-1l-1 2h-1 0v0l-1 1h1v1l-1-1h-1l1 1v0h-1v-1 1s-1 0 0 0h-1 1-1l1 1h-2 1v1c-1 0 0 0 0 0h-1l1 1h-1v0h-1v1s1 0 0 0v1h1l-1 1s1 0 0 0zm1 3v-1 1zm3 2zm8 0zm0 0zm-6-9zM84 33v-1 1zM81 25zM91 36zM94 31zM96 33zM94 32h1-1zM95 32zM93 32v-1 1zM95 34v-1 1zM94 34l1-1-1 1zM94 33h1-1zM95 34zM93 34zM94 35zM93 35v0zM91 35v-1z"></path><path class="st0" d="M88 37v-1h1l-1 1zM89 36zM92 22v-1zM92 21zM81 31v-1 1zM81 28h1zM80 26v0zM39 113h-1 1zM48 112h1zM57 112h-6 6zM62 113h-1 1zM65 113h-1l1 1v-1zM67 113h-1 1zM65 113h0zM64 113c-1 0-2 0-1-1-2 1-2 1 1 1zM58 111h-2 2zM73 114v-1h-1l1 1zM73 113h1-1zM67 112h-3 3zM78 114l1-1zM82 114c-1 0 1 0 0 0h0zM86 113l-2 1 2-1zM76 113h0zM77 113h0zM76 113zM70 112c1 0 3 0 1-1 0 1 1 1-1 1zM75 112h-1v1l1-1zM76 112h-1 1zM83 113h2-2s-1 0 0 0zM80 113zM93 113zM83 113h-2 2zM88 113h-1 1zM80 113c1 0 0 0 0 0zM80 113h0zM95 110h-3c-1 1 0 2 1 3l1-1s-3 0-2-1h3l2-1h-2s1 0 0 0zM90 113h-1 4l-3-1v1zM87 113c0-1 2-1 1-2l-3 1c3 0 0 0 2 1h-2 2s-1 0 0 0h0zM73 111zM74 111h-1c-1 0 0 0 0 0-1 0-2 0 0 0l2 1-1-1zM80 112l3-1h-2l-1 1zM93 113h1zM96 113h1zM105 141v-1 1zM106 144h1-1zM141 137v0zM124 169h0zM124 171h-2 2zM85 135c1 0 0 0 0 0zM127 113h2-2zM110 140h-1 1zM132 113h-1-2 3zM36 147zM40 119v0zM105 111h1-1zM138 110zM107 113h0zM108 113h-1 1zM109 113h-1 1zM69 171c-1 0 0 0 0 0zM146 154zM146 157v-3l-2 1 2 2z"></path><path class="st0" d="M97 134v1h1-2l3 1c1 1 2 2 3 1v1l1 1 2 1v1l1 1c0 1 0 1 0 0a6 6 0 001 3v1c0 1 0 0 0 0v0c-2 2 0 2-1 5v-2l-1 5c0-1 1-4 2-2v2l-1 2 1 2-1 2v2l1 2v5h-1l1 1v2l3-1h6v1l5-1h2c-2-1 0-1 2-2h-2 3v1h-1l-1 1h1s-1 0 0 0h1l3 1 9-3-1 2h-5l1 1 4-1 1 1 1-1h6v-1-2-1-1-2-2l-1-4h2l-3-5c0 1 2-1 3 1v-3l-1 1 1-4c-1 1-2 0-2-1l2 1-2-3c1 1 1 0 2-1v-3l-1 1c1-3-1-3-1-6h1l-3-6 1-1-1-2 4 7v-2 2l1-4c-1 0-1-4-2-3l1 4c-1 0-2-2-2-5h2l-1-3 1 1v-4-2h-4l2-4h1v-2-1-1l-3-1c1 1 0 1-1 1l-2 1h-1l-7-1h-3c-1-1 2 0 1-1l-4 1h5l-6 2h-8c-2 0 0-1-1-1h4-1 2l-10-1-2 1h2c1 0-2 0-1 1h-5l-1-1 2 1h-4 2l-5 1h1 3l4 1 1-1 4-1s-1 0 0 0h1s2 1 0 1h28l1 1v6h1v7 10-1 1l-1 1 1-1v2h-1v1h1v1 3l1 4s0 1 0 0v3h-1l1 2-1 1 1 4h-1v10h-3l-1-1c1 2-3 0-3 1v-1h-6 1-1c-1 0 0 0 0 0l-3 1h-3 1-6-5l-2 1v-1h-1v-8 1c-1-1 1-3 1-5l1 1-1-3s1 1 1-1l-1-6s0 1 0 0v-2-1l-2-4-2-2-2-2c1-1-1-2-3-3l-3-2-1-1-2-1-2-1h-2v-1h-1l-1 1h-1l-2 1-2 2-1-1-3 2-4 3-5 5-1 3v2l1 1v2c0-3 1 1 1-1 0 2 0 4-1 2h1c-1-1-1 4-1 4l-1 8v6h-1l1 1h-2 1-1-1-1c-3 0 1-1 1-1h-2l1 1h-4-4 1c-1 0-2 0-1 1l-11-1h-6l1 1h-1l-2-1 1-1-1-1v-1h-1l1-1v-12s0 1 0 0l1-3-1-2s0 1 0 0c1-9-1-17 1-26-1 1-1 0-1-1v1-4-4 1c-1-2-2 2-3 2v7c0 1 0-1 0 0v3l-1 11h1l-1 2c1 1 0-3 1-2l-1 8c0 2 1 0 1 1l-1 1h1l-1 2v-1 4-1l1 14v7h2l2-1h2v1l4-1h4c-2 0 1 0-1 1h8c1-1-4 0-3-1h3l5 1h3l2-1-2 1 2-1h4-2 3l-3 1h-3 9v-1-2-2l1-1v-1-1c0 3-1 1-1 2-1-4 1-2 1-7 0 1 0 2-1 1l1-2c0-3-1 0-1-1v-3-4 1-1h1l-1-4v-2-1 2h1v-1-1-1l1-1c0-1 0 0 0 0l1-1v1l1-1v-1h2l4-4 1-1 3-1h1l1-1v0h1l1 1 5 2-2-1zm10 17l-1-1 1 1zm21 19h-1 1zm-13-57c2 0 1 0 0 0zm-2-1v1h1l-1-1zm-51 55h1-1zM124 171c-1 0-1 0 0 0zM85 134v1z"></path><path class="st0" d="M146 113v1l-1 1 1-2zM102 113h1-1zM90 110h-1v1l1-1zM100 112h-2 1 1zM98 112h-1 1zM111 113h0zM100 110v1l1-1zM107 111h-1-1 2zM105 111h-1 1zM102 110h1zM124 111h0zM119 109l1 1v-1h-1zM124 109s3 0 0 0c0 0-2 0 0 0zM144 116h-1zM146 139v-2 2zM146 138l-1-1 1 1zM41 114v-1h-1zM40 111v-1 1zM105 155l1-1-1 1zM104 140zM92 133l2 1-2-1zM138 101h1-1zM136 102zM134 102h0zM133 101zM132 101v-1 1zM132 101zM132 101s0 1 0 0zM132 101v0zM134 103zM130 101zM130 101zM132 102zM129 100v1zM128 101v-1h-1l1 1zM127 101v-1 1zM129 101zM129 101zM129 101zM131 102l-1 1 1-1zM130 102v-1 1zM129 102h1-1zM128 101h-1 1zM128 101zM125 101zM128 102v-1 1zM127 101zM128 101zM128 101zM125 104h1l-1-3v2l-1 1h1zM126 101h-1 1zM127 101v1-1h-1 1zM130 104v-1 1zM130 103s1 0 0 0v-1 1zM128 102v0zM125 101zM124 101h1-1zM83 106zM84 106zM106 101s0-1 0 0zM94 104v-1 1zM94 106l-1-1 1 1zM76 107zM117 101h-1 1zM83 102zM116 101zM52 106zM45 102h0zM122 103zM114 104zM122 101zM122 101zM121 101h1-1zM65 105zM102 106zM102 106v-2 2zM80 106v2l1-2h1v1l1-1h1l1-1v1-1l-1 1h2l-1 1 1 1v-2h1v0l1 1v-1h2s-1 0 0 0v-1h2v1l1-1 1-1-1-1h1v1l-1 1h1v1h1l2-2v1l-2 1h1v-1l1 1 1-1-1 1 1-1h3v1l1-3v3h1v-1 1l1-2v2-1 1h1l1-2 1 2 1-4v1l1-1-2 4v1h1l1-1h-1s0-2 1-1v1h2v-3l1 1-1 2 1-1v0h1l1-1h2v2l1-1h-1l1-2c1 0 0 0 0 0l2-1v2l-1-1 1 1h-1 3v-1h2-1l2-1-1-1-1 1-1-1s1 1 0 0v1l-1 1v-1 0h-1v-1l-1 1h-1-2-1v-1h-1-2l-1 1h-2-3 0c0-1 0 0 0 0h-1l-1 1h-1v-1 1-1l-2 1-4-1c0 1 0-1 0 0-1 0-1 0 0 0h-2v-1s0 1 0 0l-1 2c0-1 0-1 0 0v-1l-2 1c0-1 0 0 0 0h-1-2-1l-1-1v-1l-1 1v-1l-1 1h-2l-1 1c0-2-2 1-2-1h-1l-1 1v-1l-2 1v-1h-4l-1 1v0l-1-1h-5l1 1h-1v-1 1-1h-1-1v1l-3-1-1 1s0 1 0 0l-2-1v1l-1-1h-2l-1 1v-1h-1v1l-6-1v1l-1-1-1 1 1 2s1 2 2 0v1c0-1 0-1 0 0h3v-1l2 1h1v1h1v-1h4l-1-1h3v1l1-1h1l-1 1h2v-1c-1 0 0-1 0 0l2 1h-1 1l1-1h-1 2l-2 1h2l1 1v-1c1-1 1 1 2 1l-1-1 1 1v-1h1l1-1v1h1v-1l1 1h-1v1h1l1-1h-1 1v1h4l1-1v1l1-1zm6 0h-1 1zm9-1h-1 1zm25-4zm0 1v-1 1zm-57 0zM94 105zM76 106v1zM112 106v-1 1zM123 101zM126 104v-1 1zM123 102h0zM124 103c0-1 0 0 0 0z"></path><path class="st0" d="M121 101c0-1-1 1 0 0zM124 104v-1l-1 1zM122 103zM122 103h1-1zM123 104zM118 103h-1s0 1 0 0h1zM119 105v-1 1zM118 105s-1 0 0 0zM111 104h1v-1zM106 106h0zM106 106v-1 1zM44 101zM44 102v-1l-1 1h1zM87 107h-1 1zM82 107h1l-1-1zM79 107c0 1 0 0 0 0zM137 92v0zM131 93h-1zM125 93h4v-1l-4 1zM122 91h0zM120 91h0zM120 92zM121 92h-1 1zM121 92c1 0 1 0 0 0 2 0 2 0 0 0zM125 94h0zM115 91l1 1v-1h-1zM116 92h-1 1zM119 93l2-1-2 1zM112 91h1-1zM110 91v-1l-2 1h2zM108 91zM113 92v-1 1zM113 92h-1 1zM114 92zM117 92v0zM114 92h1-1zM114 93v-1zM109 92h-1 1zM111 92zM103 92zM110 92c-1 0-1 0 0 0zM106 92h0zM111 92zM111 92h-1 1zM102 95l2-1-1-2-1 1h1-1c1 1-1 1-1 2l1-1v1zM105 92h-2 2zM107 92l-1 1h2c-2 0 0-1-1-1h0c-1 0 0 0 0 0h-2 2zM116 94h-1 1zM115 94h1v-1h-1-1l1 1zM111 93h-1v1-1h1zM103 92v-1l-1 1zM101 92v-1 1zM68 52zM65 54zM55 92l-1-1v1h1zM49 74zM48 72zM82 43v0zM82 92h-2 2zM69 57l1-1-1 1zM79 92h2-2zM134 71zM136 89v-1 1zM96 93h-1 1zM75 94zM94 92zM94 92s0-1 0 0zM93 92h1l-1-1v1zM109 50zM43 96zM42 94l1 2 1-1v-1h-1-1z"></path><path class="st0" d="M74 48h-1v-1c1 1-3 2-2 3h-1l-1 2h-1l-1 1-1 1h-1v2-1l-1 1v-1c-1-1 0 1-2 1-1-1-1 0-2 1h2l-1 1-2 1v-1l-1 2h-1c-2 1 1 0 0 1l-3 3v1l-1-1v2l-1 1-1 1h-1l-1 3-1 1c1-1 1 1 1 2l1-1-1 2v-1 1l-1-1v-1h-1l-2 2v6l-1-1v-1l1-2h-1v3l-1 1v1 3l-1 2 1-1v6h-1l2 2h2l-1 1-1 1h-1v1l2-1v-1l1 1h2l1-1-1 1 2-1v2l2-1c2 0 2-2 4-1v1c0-1 2-3 4-3h1l-4 3 1 1h-1 3l2-1-3 1 3-2v1h2-1 3l1 1v-4l2 1v2h4c-1-1 1-2 2-2-1 0 0 0 0 0l4 1 1 1 1-1v1l2-1h-3l4-2v1c3 0 3-2 5-1v1h-2 1-2l7 1v-1c-1 0 1 0 0 0l3-1v1l-1-1h3-1l3-1h-1c1 1-3 0-2 1l-2-1h-1l-2 1c-1 0 0 0 0 0h-1v-1H79h-2v-1h-8l-3 1H55h-1c-1-1-1 0 0 0h-1-2l-3 1h-1v-1 1h-1v-1h1-1l-1-1h0v-1l1-1v-1-2l1-4v-1-1l1 1v-1l1-1v-2 1l1-1v1l-1-3 1-1s1 0 0 0l2-1v-2h1l1-2 1-2v1l3-2-1-1 3-2h-1l3-1v1c2-1 0-1 1-2l1 1c1-1 1-3 3-3l-1-1 3-2h1l2-2c1 1 3-3 4-2l2-1 2-2 3-2h1l4-2 2-1h4c-2-1 1 0 0-1l1 1c-1 0 2 1 1 2l10 6v-1l1 1s0 1 0 0l1 1h-1l1 1h2v1h1l1 1v-1h1c0 2 4 4 5 5l2 2h1l1 3h2v1l5 6h1v1l1 1 4 7v7h1v5-1c1 1 2-1 3-1v-2-2h1l-1-2-1-4v-4l-1 1v0l-1-3-1-2-1-1v-1l-1-2v1l-6-7-3-2-2-1 1-1-3-1-2-1h1c-1-3-3-2-3-4-2 1 1 2 0 2l-1-1-2-3v1l-2-2h-1l1 1-3-1h1l-1-1 3 1-1-1-3-1v-1h-1 1l-3-2c2 1 1 1 1 2-2-1 0-2-3-4v1l-1-1h-1-1v-1h-3 1l-1-1h1l-3-1v1l-2-1-1-1 2 1h1l-3-2-1 1 1-1-3 2h1-1l-1 1 1-2-2 2h-1l-3 2-4 2h-1c-1 1 2 0 0 2h-1c-1 0-1 2-3 2l1-1zm-12 9v-1 1zM47 75v-1 1zm42 17zm2 0h-1 1zm19-37c1 0 1 0 0 0zM48 73c0-1 0-1 0 0zM82 43zM70 96h-1 1z"></path><path class="st0" d="M98 91h-1l1 1v-1zM105 94h1-1zM99 93h0zM100 93zM92 92h0zM99 94h-1zM94 94h2-2zM95 94h0zM98 94h-1zM84 94h-1 1zM87 95zM84 95s-2 1 0 1v-1zM68 95v-1zM54 97h1v-1l-1 1zM55 96zM135 92v1-1zM135 93v0zM59 58h1-1zM68 51l1 1zM76 45l-1 1 1-1zM34 28s0 1 0 0zM33 29v1zM33 29c0 1 0 0 0 0v1-1s0 1 0 0zM32 28zM32 28v-1 1zM32 29v-1 1zM32 28s0 1 0 0c0 1 0 0 0 0zM32 28v0zM33 30zM32 28zM32 28h-1 1zM32 29zM31 28v-1 1zM31 28v-1 1zM31 28zM31 28zM31 28zM31 28zM32 29v0zM31 29zM31 29zM31 28h-1 1zM31 28zM30 28v1-1zM31 29v-1 1zM30 28zM31 28zM31 28zM30 31s0-1 0 0v-2 2zM30 29v-1 1zM30 29v0s1 0 0 0v-1 1-1 1zM32 31zM31 30h1l-1-1v1zM31 30zM30 28zM30 28zM17 33zM17 33zM24 28s0-1 0 0zM20 31zM20 33v-1 1zM15 34zM27 28s0 1 0 0zM17 29zM27 28zM7 33zM5 29zM29 30zM27 31zM29 28zM29 28zM29 28zM11 32zM23 33zM23 33v-2 2z"></path><path class="st0" d="M16 33v1l1-1v-1 1l1-1-1 1 1 1v-1c0 1 0 1 0 0v0l1 1v-1c0 1 0 0 0 0v1-1-1l1 1v-1-1l1-1v2l-1-1v2l1-1v-1 2c0-1 0 0 0 0l1-1v1l1-1v1-3 3l1-1v1-1-1 2l1-3v-1l-1 4h1v-1 1s0-1 0 0h1v-3 2l1-1v2l1-1h-1l1-2c0-1 0 0 0 0l1-1v2l-1-1v1h1v-1s0-1 0 0h1-1l1-1v-1 1l-1-1v1l-1-1s0 1 0 0v1h-1v-1h-1v1h-1c0-1 0 1 0 0h-1c0-1 0 0 0 0s0 1 0 0v1-1 1-1l-1 1v-1 1l-1-1c0 1 0-1 0 0h-1v-1 2c0-1 0-1 0 0v-1l-1 1c0-1 0 0 0 0s0-1 0 0l-1-1v1c0 1 0-1 0 0v-2 0l-1 1v0l-1 1v-1h-2v1-1h-1s-1-2-1 0v0h-2c0-1 0 0 0 0v-1 1h-1 1l-1 1v-1l-1 1v-1 1l-1-1c0 1 0 0 0 0v1l-1-1s0 1 0 0H5v1-1 3c0-1 0 1 0 0v1l1-1v1h1l-1-1 1 1v-1 1c0 1 0 0 0 0h1v-1h1v0h1v1s0-1 0 0v-1s0-1 0 0l1 1v-1s0-1 0 0h1l-1 1h1v1c0-1 0 0 0 0v-1 0l1 1v-1c0 1 0 0 0 0s0-1 0 0v-1l1 1h-1 1v1-1 1h1v-1s0 1 0 0v1l1-1zm2 0zm3-1h-1 1zm7-3c0-1 0-1 0 0zm0 0v-1 1zm-17 0zM20 33v-1 1zM15 34zM26 33zM29 28zM30 31zM29 30h0zM30 30c0-1 0 0 0 0zM29 28s0 1 0 0z"></path><path class="st0" d="M30 31l-1-1v1zM29 30zM29 30zM29 31zM28 30v0zM28 32v-1 1zM28 32s-1 0 0 0zM26 31v-1zM24 34v-1 1zM24 33zM5 28v1zM5 29c-1 0 0 0 0 0zM18 34zM17 34v-1zM16 35s0-1 0 0zM33 20v-1 1zM31 21h1-1zM30 21h0zM29 19c0 1 0 1 0 0zM28 20v-1 1zM28 20zM28 20zM29 20zM30 22s0-1 0 0zM27 19v0zM27 20zM28 21v-1 1zM26 19zM25 19v-1 1zM24 19h0zM26 20v-1 1zM26 20zM26 20zM27 20v0zM26 20h1-1zM26 21v-1zM25 20h-1 1zM25 20zM23 20zM25 20zM24 20s0-1 0 0zM25 20zM25 20zM23 23v-1-2 1l-1 2 1-1v1zM24 20h-1 1zM24 20v0zM27 22zM27 22l-1-1 1 1zM25 21v1-1c0 1 0 0 0 0zM23 20v-1 1zM22 20v-1 1zM11 8zM10 9h0zM9 20v-1 1zM6 16h0zM5 15zM16 5l-1-1 1 1zM17 20h-1 1zM14 12h-1 1zM16 20s0-1 0 0zM34 14zM32 21v-1 1zM21 21v0zM14 22zM20 20zM20 20zM20 20zM25 8zM3 24zM3 24c1-1 1 0 0 0l1-1h0l-1 1z"></path><path class="st0" d="M13 7l-1-1v2 1l-1-1v2h-1V9c-1-1 0 1-1 1V9H8l1 1H8v1l-1-1 1 1-1 1v1l-1 1v-1 2H5l1 1h1v1l-1-1v0l-1-1v1-1 1l-1-1v1l1 2H4v-1 1H3l1 1H3h1v1c-1 1 0 3 1 2l-2 1 2-1h1v-1 1l-1 1H4v1c-1 0 0 0 0 0l1-1v1l1-1-1 1 2-1-1 1h1l2-2-1 2 1-2 1-1-1 3v1h1v-1 1l1-2-1 1h2v-3l1 1v1h1v-1h1l1 1v1l1-1h-1l1-2h1l1-1v2h-1 1-1l2 1v-1-1h2-1l1-1v-1 1l-1-1-1 1v0h-1-4-1l-1-1v1h-3 1-2l-1 1 1-1-2 1H6h1l1-1-1 1H6l1-1s-1 0 0 0v-1l1-1H7c1 0 1 0 0 0h1s1 0 0 0h1l-2-1h1v-1c1 0 1 0 0 0l1-1c-1 0 0 0 0 0l1-1h1l-1-1 2 1v-1 1l1-1v-1h1v-1c1 1 1-2 2 0v-1-1l1 1V9h2c0-1 0 0 0 0l1-1V7v1-1 2c2 0 2 1 3 2v-1h1l-1 1h1s-1 0 0 0h1l-1 1h1v-1h1c-1 1 1 1 1 2h2l-1 1h1v1l1 1h0v1h1s0-1 0 0l1 1v2h1l-1 1 1 1h-1 3v-2-1-2h-1v-1-1h-1 1-1l1-1-1-1v1l-2-2-1-1h-1l1-1-2 1 1-1-1 1v-1l-1-1v1l-1-2h0-1 1V7h-1V6h-1v1l-1-2 1 1-1-1v1h-1V5h-1 1-1V4h-1v1l-1-1h1l-1-1-1 1V3v1h-1-1v1l-2 1V5v1c0 1 0 0 0 0l-1 1zm-4 3h0zm-4 6h0zm14 4zm0 0zm5-9c1 0 1 0 0 0zM5 15zM16 5zM13 24zM21 19v0zM24 22s-1 0 0 0zM22 21zM22 21zM20 20v-1 1zM22 22zM20 22h0zM21 22zM21 23v-1zM17 22zM18 23zM17 23v0zM12 23v-1z"></path><path class="st0" d="M7 25h1v-1l-1 1zM8 24zM31 21v1zM32 22h-1 1zM8 9c0 1 0 1 0 0zM11 8h1zM13 5v0zM36 169c0-1 0 0 0 0zM35 161v-1zM35 154v4h-1 1v-4zM36 150v1-1zM36 147v1l1-1h-1zM36 146v0zM36 148v-2 2zM36 148h-1c0 3 1 2 1 0zM34 153v0zM37 141h-1v1l1-1zM36 141v-1 1zM35 146v2-3zM37 136v1l-1-1zM36 134l1-1v-2l-1 3zM36 130l1 1-1-1zM36 138v-1 1zM36 138v-1 1zM36 138zM35 143c0-1 0-2-1-1l1 1zM35 139v1h1l-1-1zM35 138v1-1zM36 132v-1 1zM36 135zM36 124v1zM35 133l1 1v-1h-1zM36 129zM36 135zM36 135l-1-1 1 1zM33 123v2l2-1v-1l-1 2v-2l-1-2v2s0-1 0 0zM36 127v-1-1l-1 2h1zM36 129h-1v1c0-2 0 1 1-1v1-1 1-3 2zM33 141zM34 140v1s0 1 0 0l1-2-1 1zM35 135l-1-2v1l1 1zM36 124v-1zM36 122v-1zM8 64zM8 60zM36 61v-2 2zM15 37h1v-1l-1 1zM15 39l-1-1 1 1zM8 86v0zM36 96v-2 2zM3 62v0zM36 92v0zM8 166zM26 171h-1 1zM34 114zM33 87zM36 112zM36 112v0zM36 111v0zM7 124zM31 47zM31 45v2l2-1-2-1z"></path><path class="st0" d="M8 74v-2l1 2-1-6v-1 1c1-2-1-1-1-4h1l-1-2h1v-3l-1-1c0-1 0 0 0 0v-1 1c2-1 0-1 1-4v2l1-4-1 2-1-2 1-2v-2l1-1c0-2-1 1-1-1l-1-5 1-1v0H7v-2l1 1 1-1v1l1-1h4l2-1-1-1h2l-1 1-1 1h1v1-1l3 1 7-2v1h-4v1l3-1 2 1c-1-1 0-1 1-1h4v3l1 3-2-1 3 5c0-1-2 1-3-1v2h1l-1 3c1-1 2 0 2 1l-2-1 2 2-2 1v2l1-1c-1 3 1 3 1 5l-1 1 3 5h-1l1 2-4-6v1l-1 3 2 2-1-3 2 4h-2v2-1 6l4-1-2 4-2-1 1 1-1 1c1 0 0 2 1 1v2l2 3h-1v6l-1 1v1c0 2 0-1 0 0v-1c1 0 2 2 2 5v1c0 3 2 3 1 6h-2l1-3-1 1v-2 10-1h1v6-1l1 4 1-1c-1 1 0-4-1-2l1-4s0 1 0 0l-1-1v1l-1-3h1l-1-1 1-1v-1l1-3v-1l-1-3v-7-3l1-1v-3-7-4h-1l1-6v-8 1-1l-1-2h0v-1-3l-1-3 1-2v-1l-1-1h1l-1-4h1v-2-3-4h-9-2v-1l-5 1 1-1h-1l-2 1-3 1c0-1-1-1 1-1h-5-6 1l-1 1v11-1c1 1-1 3-1 4v2s0-1 0 0v6h1v5H3l1 4c-2 1 1 6-1 6l1 3H3l1 3c0 1 0 0 0 0v6l-1 7c1 3-1 8 1 9v2c0-3 1 0 1-1 0 1 0 3-1 2l1-1-1 4-1 15h1v2l-1-1 1 2c-1 3-1-1-1 0v1l1 2-1 1v3l1-1v1 14h1c-2 0-1 3-2 4 1-1 0 4 1 3l-1 1v10h1v1H3v1l1 1v2c0-1 0-1 0 0v2h11l10 1 1-1c-1 0 0 0 0 0h6-1c1-1-2-2-1-3h-6c-1 0 0 0 0 0h-3l-9-1v1h-1-1-1l-2-1h0s0 1 0 0l1-1v-1-1l-1 1v-17-2c0 1 0-1 0 0l-1-4h1l-1-2h1v-4l-1-2 1-5v-2-2 2l-1-4 1 1v-2l1 4v-2l-1-4h1l-1-1 1 1v-4c0 3 0 0-1 2l1-6v-1c0-3 0 0-1-1v-2h1l-1-4 1 1-1-1h1v-3l-1-2v-1l1 2v-3 1l-1-3h1l-1-1 1 1v-3l1-1-1-5v-1-6c0-2 0 2-1-1l1-2v-4 2zm0-20v1-1zm10-16h-1 1zm18 68c0-1 0-1 0 0zm-1 2h1v-1l-1 1zM3 129c1 1 1 0 0 0zM15 38zM8 86zM31 80l1-1-1 1zM36 117v-1 1z"></path><path class="st0" d="M33 127v1h1l-1-1zM35 118l-1 2 1-2zM34 120v0zM36 110c1 1-1-2 0 0zM33 119h1l-1-1zM34 113v0zM34 114v0zM33 117v-1zM34 99v-2l-1 1 1 1zM32 103l1-1h-1v1zM32 99s0-2 0 0c0 0 0 1 0 0zM33 78h1zM31 59v0zM31 60l1 1-1-1zM30 172h1zM32 171l1 1v-1h-1zM9 51l-1 1 1-1zM8 65v1zM9 77v-1 1zM177 28s0 1 0 0zM177 29v1zM176 29c0 1 0 0 0 0v1l1-1h-1zM176 28zM175 28h1l-1-1v1zM175 29v-1 1zM175 28s0 1 0 0c0 1 0 0 0 0zM176 28v0zM176 30zM175 28zM175 28c0 1 0 0 0 0zM175 29zM174 28v-1 1zM174 28v-1 1zM174 28zM175 28h-1 1zM175 28h-1zM175 28zM175 29v0zM175 29zM175 29zM174 28zM174 28zM173 28v1-1zM174 29v-1 1zM174 28zM174 28zM174 28zM173 31s0-1 0 0v-2 2zM174 29l-1-1 1 1zM174 29v0-1 1-1h-1l1 1zM175 31zM175 30v-1 1zM174 30zM173 28zM173 28zM160 33zM160 33zM167 28s0-1 0 0zM164 31zM163 33v-1 1zM158 34zM171 28h-1 1zM160 29zM170 28h1-1zM151 33zM148 29zM172 30zM170 31zM172 28zM172 28zM172 28zM155 32zM166 33zM166 33v-2 2zM159 33v2l1-2v0l1-1v1-1 1h1v0c0 1 0 0 0 0v1l1-1v-1 0l1 1v-3 3l1-2v2h-1 1v-1 1l1-1v1-3 2l1 1v-1 1-1 1l1-2v-2 4h1s0-1 0 0c0 0 0 1 0 0v-3 3l1-1v-1l1 1v0c0-1 0 0 0 0v-2l1-1v1h1s0 1 0 0v-1-1 1l-1 1v-1 0c0-1 0-1 0 0 0-1 0 0 0 0h-1v-1h-1c0-1 0 0 0 0v1h-1c0 1 0 0 0 0h-1c0-1 0 0 0 0v0l-1 1v-1 1h-1l-1-1c0 1 0 0 0 0s0-1 0 0v-1 0l-1 2c0-1 0 0 0 0v-1 1h-1c0-1 0 0 0 0 0 1 0 0 0 0-1 1-1-1-1-1 0-1 0 0 0 0v-1 2l-1-1v1c0-2-1 1-1-1v1h-1l-1-1v1h-1v0l-1-1v0l-1 1v-1 1h-1l-1 1v-2 0h-1v1-1s0 1 0 0v1c-1-1-2 1-2-1v1l-1-1v4h2v-1 1l1 1h-1 1l1-1c0-1 0 0 0 0v1l1-2v1l1 1-1-1 1-1v1l1-1v1l-1 1h1v-1 1-1 1s0 1 0 0v-1s0 2 1 1c0 0-1 0 0 0v-1 1h1v-1s0 1 0 0v1-1 2-1 1l1-1h1v0c0-1 0 0 0 0s0-1 0 0l-1-1zm2 0zm3-1zm8-3c0-1 0-1 0 0zm0 0v-1 1zm-18 0zM164 33v-1 1zM158 34zM169 33zM173 28h-1 1zM174 31zM173 30c0-1 0-1 0 0zM173 30c0-1 0 0 0 0zM172 28s0 1 0 0zM173 31v-1 1zM172 30zM172 30zM173 31zM171 30v0zM171 32v-1 1zM171 32zM169 31v-1z"></path><path class="st0" d="M167 34l1-1h-1v1zM167 33zM148 28v1zM148 29zM161 34zM160 34v-1zM159 35s0-1 0 0zM177 20v0zM175 21zM173 21h0zM172 19c0 1 0 1 0 0zM172 20v-1h-1l1 1zM171 20zM172 20h-1 1zM172 20zM173 22s0-1 0 0zM170 19v0zM170 20zM171 21l1-1-1 1zM169 19zM168 19v-1 1zM168 19zM169 20v-1 1zM169 20zM169 20zM171 20l-1 1 1-1zM170 20zM169 21l1-1zM168 20zM169 20zM166 20zM168 20zM167 20h1-1zM169 20zM169 20h-1 1zM166 23l1-1-1-2v3-1 1zM167 20h-1 1zM167 20v1h1l-1-1h0zM170 22zM170 22v-1 1zM169 21h-1v1-1h1zM166 20v-1 1zM166 20v-1 1zM155 8zM154 9zM152 20l1-1-1 1zM150 16zM148 15h0zM159 5V4v1zM160 20h-1 1zM157 12zM159 20s0-1 0 0zM177 14zM175 21v-1 1zM164 21v0zM158 22zM164 20h-1 1zM164 20zM163 20zM169 8zM147 24zM146 24h1v-1h0l-1 1z"></path><path class="st0" d="M156 7V6l-1 2v0l-1 1V8v2-1c-2-1 0 1-2 1l1-1h-2l2 1h-2l1 1-1-1v1l-1 1v1c1 1-1 0-1 1v-1 2h-1l1 1h1v1l-1-1-1-1v1-1 1-1 1h-1l1 3-1-1v-1h-1l1 1-1 1c1-1 1 0 1 1l-1-1 1 1v1c-1 0 0 2 1 1l-2 1h2v-1h2-1l-1 1-1 1 1-1v1l1-1-1 1 2-1-1 1h1l2-1-1 1 1-1 1-2-1 3v1c1 0 0 0 0 0h1v-1 1l1-2v1h1v-3l1 1v2c0-1 1 0 0 0h1l1-2 1 1v1l1-1-1 1 1-1h-1l1-2 1 1s0-2 1-1v1h-1 0l2 1v-1s1 0 0 0l1-1v0h1-1l1-1v1l-1-1h-1 1l-1 1v-1h-1-3-1-1l-1-1v1h-1v1l-2-1h1-2v1h-1l1-1-2 1h-1 1v-1 1h-1 1l-1-1 1-1h1l-1-1s1 0 0 0h2l-2-1c1 0 1 0 0 0h1v-1l1-1c-1 0 0 0 0 0h1v-1c-1-1 0 0 0 0h2c1 1-1 0 0 0l1-1v-1s1 1 0 0h1v-1c1 1 1-2 1 0l1-1V9l1 1V9h2c0-1 0 0 0 0l1-1V7v1-1 2c2 0 2 1 3 2v-1h1l-1 1h1s-1 0 0 0h1l-1 1h1v-1h1c-1 1 1 1 1 2h2l-1 1h1v1l1 1h0v1h1l1 2v1h1l-1 1 1 1h2v-2h1l-1-1v-2-1l-1 1v-1-1-1-1 1l-3-2-1-1v-1l-1 1v-1l-1 1 1-1-1-1v1h-1V8h-1s0-1 0 0h-1 1V7h-1V6c0 1 0 0 0 0v1l-1-2v0l-1 1c0-1 0 0 0 0V5h-1-1 1V4h-1l-1 1V4 3h-1 1l-1 2V4l-1 1V3v1h-1l-1 1-1 1-1-1 1 1h-1l-1 1zm-3 3s0-1 0 0zm-4 6c-1 0 0 0 0 0zm13 4zm0 0zm6-9zM148 15h0zM159 5zM156 24z"></path><path class="st0" d="M165 19h-1v1l1-1zM167 22zM165 21zM165 21h0zM163 20v-1 1zM165 22zM164 22zM164 22zM165 23v-1h-1zM160 22zM161 23zM160 23v0zM156 23v-1zM151 25s0-1 0 0v-1 1zM151 24zM174 21v1zM175 22h-1 1zM151 9h1-1zM154 8h1zM157 5l-1 1 1-1zM179 169h1-1zM178 161v-1zM178 154v0zM180 150c-1 0-1-1-1 1l1-1zM179 147l1 1v-1h-1zM179 146v0zM179 148v-2 2zM179 148c0 1 0 1 0 0 0 3 0 2 0 0zM177 153v0zM180 141h-1v1l1-1zM179 141v-1 1zM178 146l1 2-1-3zM180 136v1-1zM180 134v-1-2 3zM180 130v0zM179 138v-1 1zM179 138v-1 1zM179 138zM179 143l-1-1 1 1zM179 139l-1 1h1v-1zM178 138l1 1v-1zM179 132v-1 1zM179 135zM179 124v1zM179 133v0zM179 129s1 0 0 0zM179 135zM179 135v-1 1zM176 123v2c1 1 2 0 3-1l-1-1c0 1 0 3-1 2l1-2-2-2 1 2h-1zM179 127v-1-1 2zM179 129h-1v1c0-2 1 1 1-1v1-1 1-3 2zM177 141zM177 140v1s0 1 0 0l1-2-1 1zM178 135v-2l-1 1 1 1zM179 124h1l-1-1zM179 122h1l-1-1zM151 64zM151 60zM179 61l1-2h-1v2zM159 37v-1 1zM158 39l-1-1 1 1zM151 86l1 1-1-1zM179 96v-2 2zM146 62l1 1-1-1zM179 92v0zM151 166zM170 171h-1 1zM178 114h-1 1zM177 87c-1 0-1 0 0 0zM179 112zM179 112v0zM179 111v0zM150 124zM175 47zM174 45l1 2 1-1-2-1z"></path><path class="st0" d="M151 74v-2c1 2 1 3 2 2-2 0-1-5-2-6v-1-3s0-1 0 0v-2c0-1 0 0 0 0v-3l-1-1c0-1 0 0 0 0v-1c1-1 1 0 1 1v-4 2l1-4-1 2v-2-2h1l-1-2 1-2c0-2-1 2-1-1v-4-1s0 1 0 0l-1-1v-1h2v0h2l2-1 1 1c-1-1 0-1 2-2h-1 2v1h-1l-1 1h5l7-2-1 2h-4 4 4v-1 1h-1 1l1-1v1l1-1v4l1 3-1-1 3 4h-3v2h1l-1 2 1 1h-1l1 2-1 1v2-1c0 3 2 3 2 5-1 0-2-1-2 1 1 0 3 2 3 4v3l-3-6-1 2v-2 4l1 2-1-3c1-1 2 2 2 4h-1v2 3l-1 1h4l-1 3h-2v5c1-1 2 1 2 2l-1 1v6l-1 1 1 1c-1 1 0-2-1-1l1 3v-3l2 4c0 2-1 1-1 1 0 4 2 3 1 6 0 2-1 0-1 1v-4-1l-1 9c0 1 0 2 1 1v-1 1l1 4h-1l1-1v3-1l1 4v-2c-1 1 0-3-1-2l1-3v-1l-1-3s0 1 0 0v-1s1-2 1 0v-2-3-3-8-3-4l1-7h-1v-4h-1l1-5v-8-1 1l-1-2 1-1h-1v-1l1-2-2-4h1v-2l-1-2h2l-1-4v-2-3-4h-5-1-1-1-3v-1l-4 1v-1h-1 1l-3 1-2 1v-1h-5-5v3h-1v5h1l-1 4 1-1-2 4v-1c-1 3 1 1 1 3h-1v6h1v5l1 4c-2 1 0 6-1 6v7l1 5h-1v7c0 3-2 8 0 9v2c1-3 1 0 2-1l-1 2c-1-1 0 3-1 3v16-1 1 2c0 3-1-1-1 0v1h1v6-1c0 1 0 2 1 1l-1 9v5c1-1 1-1 1 1-1-1 0 2-1 3 0-1 0 4 1 3l-1 1v10s0-1 0 0v5s0-1 0 0v2h12l10 1c-1 0-1 0 0 0v-1l3 1 3-1c1-1-2-2-2-3h-6c-1 0 0 0 0 0h-2l-10-1 1 1h0-2-1-1-1v-1c0 1 0 1 0 0h-1l1-1v-1-1 1l-1-12v-5-2h1l-1-4v-2h1v-6c-1-1-1 3-1 2l-1-2c0-1 2-2 2-5v-2l-1-2v-2-1l1 4v-6-1 1l1-4c0 3-1 1-1 2-1-4 1-2 1-6l-1 1 1-2c0-3-1 0-1-1v-2l-1-4 1 2v-2-3l-1-1 1-2v2h1v-3l-1 1v-2c0-1 0-1 0 0v-2l1 1v-2-1-5l-1-1 1-5v-2c0-1-1 2-1-1 0-2 1 0 1-1l-1-4v2zm0-20v1-1zm11-16h-2 2zm17 68c0-1 0-1 0 0zm0 2v-1 1zm-32 21c0 1 0 0 0 0zM158 38zM151 86zM175 80v-1 1z"></path><path class="st0" d="M180 117l-1-1v1h1zM177 127v0zM178 118v0zM178 120v0zM179 110c1 1 0-2 0 0zM177 119v-1zM177 113v0zM177 114v0zM176 117h1v-1zM177 99v-2 2zM176 103v-1h-1l1 1zM176 99c-1 0-1-2-1 0h1zM176 78h1zM174 59v2l1-1-1-1zM175 60v0zM174 172h1-1zM176 171v1l1-1h-1zM152 51v1-1zM152 65l-1 1zM152 77v-1 1z"></path></svg>