<svg xmlns="http://www.w3.org/2000/svg" viewBox="0 0 183 174.5"><path class="st0" d="M65 140h-1 1zM74 138l1-1zM83 134l-2 1-3 1-1 1 6-3zM88 133l-1 1v-1h1zM90 131l-1 1 1-1c1-1 1-1 0 0zM91 129v0zM90 131v-1 1zM89 131h-1l-1 2 2-2zM83 133l-1 1h-1l2-1zM96 125h-1v1l1-1zM95 125l1-1-1 1zM91 129l-1 1-1 1 1-2 1-1v1zM91 122v-1 1zM90 125l-1-1v2l1-1zM89 128v-1 1zM93 120l-1 1 1-1zM92 121v0zM93 120zM93 126v-1 1zM96 122v2-2zM93 120l4 2h-1 1l-4-2zM90 126l-1 2 1-2s0-1 0 0zM91 124zM85 134h1-1zM91 126v-1 1zM88 130v-1 1zM91 124zM91 124v0z"></path><path class="st0" d="M86 137v-1l2-1c0-2-1-2-3-1v1l2-1-2 2v2l1-1zM87 132v-1l-1 1-1 1 1-1h1v-1 1zM89 129v1l1-2c-1 3 0 0-1 1v-1l-1 1h1c-1 1 0 0 0 0h-1v1l-1 1 2-2zM93 123h0zM94 123h-1c0 1 0 2 1 1v-1l2-1-2 1zM92 124v2-1-1zM85 134v-1 2zM83 136zM39 61h0zM34 63c1 0 1 0 0 0zM22 137v-1l-1-1v1l1 1zM9 93v0zM8 92v-1 1zM67 61h1-1zM59 149h-2 2zM39 66zM54 149h3-3zM37 118zM56 138h-1 1zM78 143zM48 152zM75 142v0zM75 142h0zM74 143h1-1zM45 75zM9 126zM8 124l1 2 1-1H9l-1-1z"></path><path class="st0" d="M51 59h-1c2-1 3 0 1-1l-3 1-3 1h-1c-2-1-1 1-4 1h-1l-2 1-3 1-1 2v-1l-2 1 2-1c-2-1-1 1-5 2l1-1h-1l-3 1h3l-1 1-1 1c-1-1-1 0-2 1l-1-1-1 2-2 1-1 1-2 2-1 3h-1v1h-1v2l-1 2-1 1-1 2-1-1v3l-1 2-1 2h1v2l1-1v2H9 8l1-1-1-1v1l-1 1v2l-1 1 1 4v5l-1-1v-5l-1 1 1 3-1 2c1-1 0 3 1 4l-1-2 1 2v5-1l1 3v3l2 3H8h1l1 1 2 2s-1 3-2 0l1 3 1-1v4l1-1 1 1h-1l2 2v2l2 2-1-2c1 2 2 2 3 2l2 2v2l6 1 2 1h-3l-4-1 1 1h-1l1 1 1 1 1 1h3l-2-1h-1l-1-1h2l4 2-2 1 3 1h-1l2 1h1l1 1 2 1c-1-1 0-4 1-4l1 1 2 2c1 0-2 0-1 1h1l1 1c0-1 3 1 1-1l3 1 3-1h1l3 1h7c1 0-2 0-1 1l1-1h-2l2-1 3-2h1a7 7 0 004-1l1-1 2-1v1l-2 1-1 1 1-1-2 1h1l3-1 3-1 2-1 1-1h-1v-1l4-3h1l-2 1 3-2h-1l1-2 2-1h-2l-1 2v1l-4 1v1l-2 2h-1v1c-1 0-3 0-1-1l-1 1h-1l-3 1-1 1h-1l-2 1h-2l-2 1h-1-7l-4-1-7-2v1l-5-1a6 6 0 01-2-1l-3-2 1 1-4-3-3-2-1-1-1-1-1-1v-1l-1 1-1-1-1-2-3-3s0-1 0 0l-2-2 1-1-1-1h-1c0-1 0-2 1-1l-1-2-1-1-1-1h1l-1-2v-2l-1-2v-1-1-4-6s0-1 0 0l1-5v-1l1 1v-2l-1-1v-3c1 0 1-1 1 1l1-3v-1l1-1v-2l1-1 1-2 2-3 1-2h1l1-2h-1l2-1 1-1 1-1h-1l2-1h2c3-1 0 0 2-2l1 1 2-2 3-2s-1 0 0 0l2-1 3-1 4-2h15l3 1h3l3 2 5 2h-1l4 2 2-4c-3-1-6-2-7-1h-2c3 0-1 1 1 1h-2v-1c1-1-4 0-4-1l-10 2-1 1h-1l-2 1-2 1-1 1h-1 1l-2 2v-1l-1 1-1 1c-2 2 1-2 0-1l-1 1v1l-1 1h-1l-1 1-2 2h1v1l-2 2-2 3-2 5v2l-1 2v2l-1 1-1 4c1-1 1 0 1 1v3l1 6v3l1 1 1 2s0-1 0 0v1l1 1 1 2h1c1 4 5 7 8 10l11 7h1v-1a47 47 0 004 2h4-1c1-1 0-1-1-2l-1-1h-1l-2-1-1-1h-2v-1h-3 1l-3-2-2-1-1-1-1-1-2-2v1l-1-2 1 2-3-3-1-3-1-1v-1h-1v-1l-1-3v1l-1-3-1-3-1-3-1-3v-3l1-3v-2c0 1 0-2 1 0v-2-1l-1-2h1v-3c0 2 1 0 1 1l1-2 1-1 2-3c0-2-2 3-2 2l1-3 1-1 3-2-1 1 1-1 1-1h1l1-2-2 2 1-2 1-1 2-1-1 1 2-1-2 1-1 1-1 1 2-1 2-1 2-2v1l1-1-1 1 2-1 2-1h-2l3-1h4-2 3c2-1-1-1 0-1l3-1h4-2 2l-1 1h4l2-1 1 1h-2l3 1h-1 2l2-4h-1 1l-2-1h2l-2-1h-1v-1l-1-1-6-2h-1l-3-1h-4l-1-1c-2 0 2 1-2 1-2 0 0-1-1-1l-6 1 2-1zm-23 7l1-1-1 1zM7 96l1-1-1 1zm62 50c-1 0-1 0 0 0zm2 0v-1l-1 1h1zM38 77h1-1zM8 92zM67 61zM40 152h-1 1zM79 139l-1 1 1-1zM89 133v-1 1z"></path><path class="st0" d="M81 139c1 1 1 0 2-1l-2 1zM83 138h1-1zM73 144v-1c1 0-2 2 0 1zM83 140h-1zM77 144l1-1-1 1zM78 143l1-1-1 1zM81 141v1h-1zM62 150l-2 1h1l1-1zM67 150h-1v1l1-1zM62 152s-2 1 0 0c0 0 2 0 0 0zM38 150v-1zM17 140c2 1 1-1 2 1v-1h-2zM19 140zM61 139l1 1-1-1zM63 139v1l1-1h-1zM24 67v1l1-1h-1zM41 60h-1l1 1zM56 58h-2 2zM65 135h0zM64 135zM63 134v1h1l-1-1zM64 133s-1 0 0 0zM63 133h1v-1l-1 1zM63 133zM63 133zM63 133c0 1 1 0 0 0zM63 135zM63 132zM63 132h-1 1zM62 133h1-1zM63 131h-1zM62 131l1-1-1 1zM62 131zM62 132zM62 132zM62 132zM62 133zM62 132v0zM62 132zM62 131h-1 1zM62 132zM61 131zM61 132h1-1zM61 131s1 0 0 0zM62 132zM62 132zM59 132l2-1h-1v1-1l-1 1zM61 131v-1 1z"></path><path class="st0" d="M61 131l-1 1h1v-1zM61 134zM61 134s0-1 0 0v-1 1zM61 132h-1v1l1-1zM61 130zM61 130zM42 118zM43 118zM54 123zM48 121v-1 1zM46 122v-1 1zM39 116zM58 127s-1 1 0 0zM46 115h-1 1zM57 127h0zM31 106zM32 100v0zM59 130h-1 1zM55 128zM60 129zM60 129zM59 129h1zM37 110zM49 125zM49 125l1-1-1 1zM41 117l-1 1 2-1v1h-1l1-1v1h1v1l-1 1 1-1h1-1v1h1l-1 1 1-1h1l-1 1h1v-1l1 1h-1 1v1l2-1v-1 1h-1 1l-1 1h-1 1v1l2-1-1 1h-1 1-1 1s0 1 0 0h0v1h2l-1 1 2-2-2 2h1v1l1-1-1 1 1-1-1 1h2l-1 1 3-2-3 2h-1l1 1 1-1h-1 2l-1 1s1-1 0 0v1l3-3-1 1-1 1v0l1 1 1-1v2h1l-1-1 2-1v1h1l-1 1v-1 2h1v-1h1v1-1h2-1v-1l-1 1v-1h-1 1v-1s-1 0 0 0h-1l-1-1v-1l-1-1h-1c0 1 0 0 0 0l-1-1v-1 0h-1v0h-1v-1 0h-1l-1-2c0 1 1-1 0 0v-1h-1-1 0v-1h-1v-1 1-1h-1l1-1c1-1 0 0 0 0l-1-1v1l-1-1h1-1c1-1-2 0-1-1v-1h-1 1-1v-1h-1v-1h-1l-1 1v-1l1-1-1-2-1 1v-1c1 0 0 0 0 0h1-1v-1l-1 1v-2h-1-1l1-1h-1v-2l-1 1v-1c0-1-2-1-2-3l-1 1 1-1h-1l-2 2h1l-1 1h1v1h1v2l2 1c1 0 0 0 0 0h1l-1 1h1v1h1l1-1-1 2h2-1-1v1h1-1l1 1v-1 2l1-1c-1 1 0 0 0 0h1l-1 1h1c0 1 0 1 0 0l-1 1h2-1 1l-1 1h1v1h1v1c0-1 1-1 0 0zm2 2c1-1 0 0 0 0zm4 2c0 1 0 0 0 0zm12 8c0-1 0-1 0 0zm0 0zm-20-22l-1 1 1-1zM46 122l1-1-1 1zM40 116h-1zM53 129v-1 1zM60 129v1zM59 133l1-1-1 1zM59 131c1 0 1 0 0 0zM59 131c1 0 0 0 0 0z"></path><path class="st0" d="M59 129s1 0 0 0c1-1 0 0 0 0zM58 132l1-1h-1zM58 131zM58 131zM58 132v-1zM57 129h-1 1zM56 130zM55 130s1 0 0 0zM54 127h1zM50 127s1-1 0 0l1-1-1 1zM51 126zM32 100l1-1-1 1zM32 100v-1 1zM43 120zM42 118zM40 117zM17 79h1-1zM12 70l-1-1 1 1zM10 61v2l1 3v0l-1-2v-3zM11 56v0zM10 53l1 1v-1h-1zM10 51v0zM10 53v-1 1zM10 54v0zM9 61v0zM11 45v0zM11 45v0zM9 51l1 2-1-2zM13 40v-1 1zM14 36h1v-2l-1 2zM15 33v0zM11 41l1-1-1 1zM12 41v-1 1zM11 42v-1 1zM10 47l-1-1 1 1zM11 42l-1 2h1v-2zM11 41v1zM14 35l1-2-2 2h1zM13 38zM19 27zM13 35v0zM16 31v0zM13 37zM13 37v-1 2-1zM19 23v1l-1 1-1 1c-1 1 1 1 2 1l1-2-2 1 1-1 1-1v-2l-1 1s1 0 0 0zM17 29l2-1v-1l-2 2zM16 31c-1 0 0-2-1-1l-1 2 2-1-1 2 1-1h-1 1-1v-1h1v1l1-3-1 2zM8 45v-1 1zM9 43v1l-1 1h1l1-3-1 1zM12 37v-1-1-1 2 1zM20 26v1-1zM22 24v1-1zM174 39v0zM172 34h-1 1zM88 41l2 3 1-1h-1l-2-2zM134 12v-1l-1 1h1zM135 10h0zM173 70v0zM51 14l2 1-2-1zM169 38v0zM56 15h-1-2 3zM104 153zM81 152l1 1-1-1zM29 18v-1 1zM63 14zM31 18h0zM32 18h-1 1zM33 17l-1 1 1-1zM143 111c0 1 0 0 0 0zM99 25zM101 22l-2 2 2 1v-2-1z"></path><path class="st0" d="M176 53v-2c1 2 0 4 1 2l-1-4-1-4v-1-1l-2-3c0-1 0-2 1-1l-1-1-1-1h1l-2-4-1-1c-1-1 0 0 0 0l-1-2 1 2v-2l-2-3 1 1-1-2-1-2 1 2h-1l-2-2v-1l-1-1-2-1-1-2v-1c-3-2 1 2-2 0l-1-1-2-1h-1l-2-1v-1h-4l-2-1-2-1-2-1h1-6l-1-1h-1c2 1-1 1-2 2h-1-1v-1h1c1 0 2 0 1-1h-1-1-2-2l-4 1-2 1-3 2v-2h2l4-1c-2 0-1-1-1-1l-4 2h-2l-1 1-3 1 2-1-2 1-2 1-3 1h1l-1 1h-2l-2 2-3 4v-2 1h-1v3l-1 2v1c0-1-3-1-1-3l-3 2 2 1-4 2c1-1 1 1 1 2l-1-1-1 3-1-1h-1v1l-1 1 1-1-1 3-2-1v-2h-2l-4-2v-1l-2-1 8 3-1-2 1 1-2-3-1-1-2-1 2 2 2 1c-1 1-4-1-6-3l2-1-1-1-1-1h1l-2-1-2-2-2-2c1 1 0 3-1 3l-2-1-1-2c-1-1 2 0 1-1l-1-1-1-1c0 1-3-2-1 0l-1-1h-1l-1-1c1 1-2 1-4 1v-1l-4-1-4-1-1-1h-1c-2-1 2 0 0-1h-1l-3 1h5l-2 1-4 1c-2 0-1-1-1-1l-3 1h-1l-2 1h-2l-1-1 2-1h3-2 1-3l-4 1-3 1-1 1 1-1v1s-1 1 0 0l-2 2-2 1h-1l2-1-4 2h2l-1 1h-1v1l-2 2 2-1 1-1v-1l2-1h2l1-1h-1l2-1 2-1c1-1 0 0 0 0l1-1c1 1 3 0 1 1h2l2-1h3v-1h3c3 0 6-1 9 1h4v1l3 1h2l1 2h1l1 1 2 1 2 1 4 3v-1l1 1h1l1 1 1 2 1 2-1-2 3 4 3 4 2 3v-1 1l1 1v-1l2 3v1l1-2 1-1 1-2 2-2 2-4 2-2 1-2h1l2-2 1-2 2-2 1-1h1l4-2 2-2h2l4-2h1l1-1 1 1 5-1c1 0 0 0 0 0h0l3-1h5l1 1h5l4 1h-1l4 1h-1l3 1 1 1 1 1v-1l2 1 3 3-1-1 1 1 1 1 1 2h-1l1 1h1v2l1 1h1v1l2 3h1a16 16 0 011 3l1 2v1l2 4v2l1 3-1 4 1 2-1 2v-1l1 5h-1l-1 4v3l-2 4-1 2-1 3v-1c-1 5-6 8-5 11l-1 1v1c2-3 0 1 1 0-1 1-3 3-2 1l-3 3-14 16 1-1-1 2v-1c-1 1-2 2-1 3-3 2 0-2-1-1l-1 1-1 2-1 1h-1l-2 3 1-1c0 1-2 2 0 2-2 0-8 7-9 8l-4 4v2c-1-2-3 2-5 2 2 0-3 4-1 3l-2 1-9 9v1l-2 1-2 2s1 0 0 0l-5 5-2 2-2 2-1 1-1-1h-1l-1-2-4-5h-1-1l-2-3-4-3 1 1v4c2 0 3 4 6 5h-1l3 3v-1l2 3 1 1 2 2 1 1 2-2 3-3 1-1c1-1-2 3-2 1 2 0 6-6 8-6v-1h1v-1h2-1l3-3-1 1 11-11h-1l5-5 2-2h1l2-4 1-1 2-2v1l6-6c0-2-3 3-2 2l1-3 5-3h-1l3-3c0-1 2-1 1-2l-2 2 4-5-1 2 2-2-3 5 2-2c0-2 2-2 3-5v1l1-2v2l4-4-3 1c3-4 3-1 6-5h-1l2-1c2-3-1 0 0-2l2-2c3-3 0-2 2-4v1l1-1 3-3v-3l1-1-1 2v1l3-4-1 1 1-1v-2h1v-2 2l1-2 1-1 1-1v-2l1-2 1-4 1-4 1-4 1-1c0-3-2 2-1-2 0-3 0-1 1-2l-1-2v-4l1 3zm-9-27l1 2-1-2zm-37-15h2-2zm-91 4c1 0 1 0 0 0zm-2 0v1l1-1h-1zm99 99c0 1 0 0 0 0zM135 10zM173 70zM73 17v0z"></path><path class="st0" d="M27 21l1-1-2 1h1zM15 28c1 0 1-1 0 0zM25 21c-1-1-1 0-2 1l2-1zM23 22h-1 1zM34 17c0 1 3-2 0 0zM23 20h1v-1zM30 16l-1 1h-1l2-1zM29 17l-2 1 2-1zM25 19v-1h1zM48 12h1-1zM42 11h1-1zM48 11c0-1 3-1 0-1 0 0-2 0 0 1zM74 20l-1 1zM90 34c0-1 0 1 0 0v1-1zM90 35h-1 1zM78 148l-1-1 1 1zM76 147v-1h-1l1 1zM165 22l1 1-1-1zM175 41v-1l-1 1zM177 58v-2 2zM27 48zM26 47zM26 46c-1 0 0 0 0 0v0zM28 45zM28 45zM27 45c1 0 1 0 0 0zM28 45h-1 1c-1 0 0 0 0 0zM28 45h-1 1zM26 45h-1l1 1v-1zM29 44h-1 1zM28 44v-1 1zM27 44v1-1zM29 43v1-1zM29 43zM29 42v0zM28 43zM28 43zM28 43zM27 44l-1-1 1 1zM27 43l1 1-1-1zM27 43zM28 43v-1 1zM28 43zM29 41zM28 42v1-1zM29 42h-1 1zM28 43zM28 43zM26 40c1 0 1 0 0 0l3 1h-1-1 1l-1-1h-1zM28 42h1v-1l-1 1zM28 42l-1-1 1 1c0-1 0 0 0 0zM26 43zM26 43h0zM27 42h-1 1zM29 41zM29 41zM48 24zM47 24zM36 33v1-1zM41 28zM41 26zM52 24h1-1zM31 37h1-1zM48 29zM32 37h-1 1zM67 31zM67 37zM28 39zM30 34zM30 40zM30 40zM30 39v1zM59 28c0-1 0-1 0 0zM35 28zM35 28l1 1-1-1zM50 24h-1l1-1-1 1h-1 1c-1-1-1 1-1 1v-1l-1 1v-1 1c-1 0 0 0 0 0h-1l1-1h-1l-1-1 1 1-1 1v-1 1l-1-1v1h-1v1h-1v-1l-1 1v0h-1l-1 2v-1c0 1 0 0 0 0v-1 1h-1v1c-1 0-2 0-1 1l-1-1 1 1v2c0-1-2-2-1-3h-1l1 1h-1v1l-1-1v2l-1-1 1 3-1-3h-1v-1l-1 1 1 1v-1 2l-1-1v1l-1-1 3 3h-2l-1-2v1s0-1 0 0c0 0-1 0 0 0l1 2-1-1-1 1h-1v1l1-1 1 2h-1v1l-1-1h1l-2 1h1v1h1-1v1l1 1h1l-1-1h1l-1-1h1-1 2v-1l1-1v-1 1l1-1h1v-2c-1 0 0 0 0 0 1 0 0 0 0 0l1-1h1v-1-1h1v1-1 1l1-1s0-1 0 0h1l1-1c0-1 1 1 0 0l1 1v-1h1v-1h2l-1-1h2v1c1 1 0 0 1-1v1h1v-1s0 1 0 0h3c0 1 0 0 0 0h1l2 1s1 2 1 0h1v-2 2l3 2v-1 1h1l1-1c-1 1 1 1 1 2h1v1l1-1-1 1 2 1v1s1-1 0 0l1-1 1 2v2l1-1v1h1l2-2-1-1-1-2h-1v-1c0-1 0 0 0 0h-1l1-1h-1l-2-1-1-1h-1-1l1-1c0-1-1 1-1-1v1l-1 1v-2c1 0 0 1 0 0l-1 1h0v-1h1s-1 0 0 0h-1v-1h-1v1l-1-2 1 1-1-1v1h-1c0-1 0 1 0 0v-1h-1v0c0-1 0 0 0 0h-1v-1h-1-1-1v-1l-1 1c0 1 0 0 0 0h-1 1zm-4 1v-1 1zm-6 2zM30 38zm0 1zm29-8zM41 26zM52 24zM30 32zM30 40h-1 1zM26 41c1 0 0 0 0 0zM28 40zM28 40zM30 39c1 1 0 0 0 0zM27 39zM28 38v0zM28 39zM27 39zM29 36zM28 36zM28 36v-1 1zM31 33l1 1zM33 29c-1 0 0 0 0 0v0zM33 30zM67 38v1-1zM68 38l-1 1 1-1zM45 23v1-1zM48 24zM51 23h-1 1z"></path></svg>