<svg xmlns="http://www.w3.org/2000/svg" viewBox="0 0 183 174.5"><path class="st0" d="M102 113c1 0 0 0 0 0zM109 111l1-1zM115 108l-1 1h-2l-1 1 4-2zM119 107l-1 1 1-1zM121 105v1h-1 1v-1zM121 104v0zM121 106v-1 1zM120 106h0zM115 107l-1 1 1-1zM125 101l-1 1 1-1zM125 101v-1 1zM121 104v1h-1l1-1zM120 98v1zM119 100s0 1 0 0v0zM119 103v-1 1zM121 97v0zM121 98zM121 97zM123 102v-1 1zM125 99v1-1zM122 97l3 1v1-1l-3-1zM120 101l-1 2 1-2zM121 100zM117 107zM120 101v-1 1zM118 104l1-1-1 1zM120 100zM120 100zM118 110c-1-1 0-2 1-2l-3-1v1l2-1-1 1v2-1l1 1zM118 105l-1 1v0h1v-1zM119 104v1l1-2-1 1v-1 1-1 1h-1v1l1-1zM123 100c0-1 0-1 0 0zM123 99v1s-1 1 0 0l2-1h-2zM122 100l-1 2 1-1v-1zM116 107v-1 2zM115 108v1zM82 55zM78 56zM72 111l-1-1v-1 1l1 1zM61 79v0zM59 78l1-1-1 1zM102 54h1-1zM98 118h-2 2zM82 60v-1 1zM95 119l1-1-1 1zM82 97zM95 111zM112 114s-1 0 0 0zM90 121c1 0 1 0 0 0zM110 113h-1 1zM109 113h0zM109 114v-1 1zM87 66zM61 104zM60 102l1 2 1-1h-1l-1-1z"></path><path class="st0" d="M91 53h-2l2-1-3 1-2 1h-1 1c-2-1-1 1-3 1h-1l-2 1v-1l-2 1-1 2v-1l-1 1 1-1c-2 0-1 1-3 2l1-1-4 1h2l-1 1-2 1v-1l-1 2h-2c-1 2 2 0 0 2l-1 1-1 2h-1v1 2l-1 1-2 2v-1 4l-1 1h1v2l1-1v1l-1 1h-1l1-1-1-1v1c-1 0 0 0 0 0h-1v2l-1 1 1 3 1 3h-2v-4 5c1-1 0 2 1 3l-1-2v2l1 2v-1 4l1 2 1 2h-1a18 18 0 004 2c-1 0-2 2-3 1l1 2 1-1 1 3h0a16 16 0 002 1l-1 1 1 1 1 1-1-1 4 2v2h6l-2 1-4-1 1 2-1-1 1 1 1 1h2l-2-1h2l2 1-1 1 2 1h-1 3l1 1 1 1c-1-1 0-4 1-4l1 1 1 1c1 1-1 1-1 2l1-1 1 1s2 1 0 0h3l2-1 3 1h3s1 0 0 0h1c2 0-1 0 0 0h1l1-1-2 1v-2l3-1h2l1-1 2-1 1 1-3 1h0l3-1 2-1 2-1v-1 1-1h-1l3-2h1l-2 1 3-2h-1v-1l1-2h-1v2c-1 0-1 0 0 0l-3 1v1h-1 1l-2 2-1 1v-1h-1l-2 1-1 1h-1l-1 1v-1l-1 1h-2l-3 1h-2l-1-1h-2l-6-1h-3-1l-1-1-2-1h1l-3-1-2-2-1-1-1-1h-1-1v-2l-3-2-1-1v-1l-1-1h1l-1-2-1-1-1-2v-1-2-1l-1-3v-4h1v-4h1v-2h-1v-2s1-1 0 0l1-2v-1c1 0 1 0 0 0l1-1v-2l1-1v1l1-2 1-2h1l1-1h-1l1-1 1-1 1-1h-1 3c1 0 0 0 0 0 2-1 0 0 1-2l1 1 1-1 2-2 2-1 2-1 3-1h6l1-1h1v1h1l1-1c1 0 0 0 0 0l3 1h2l2 1 3 1 3 2 1-4c-2-1-4-2-4 0h-2c2 0-1 1 0 1l-1-1h-3l-7 1-3 1-2 1-2 1 1 1h-1c0 1-1 0 0 0h-1v1c-2 2 0-1 0 0h-1v1l-1 1h-1v1l-2 1h1v1l-1 1-2 3-1 3v2l-1 2 1 1-1 1-1 2c0-1 0 4 1 3l-1 1 1 4v1l1 1v3h1v2l1 1h1c1 3 4 5 6 7l9 5v-1h2l1 1h3-1v-1l-1-2h-2l-2-1c-1 0 0 0 0 0l-2-1-2-1-1-1-2-1-1-1-1-1v2l-1-3-2-2v-1h-1v-1h1l-2-2 1 1-2-5-1-2v-2h-1v-2-2-2h1v-2-1-2c0 1 1-1 1 1l1-2v-1l2-2c-1-1-2 2-2 1l1-2h1l2-2v1l1-2 1-1-2 1 3-3-1 1 2-1-2 3v-1h1l1-1 1-1 1-1v1h1l2-1h-2l2-1h3-1 1c2 0 0 0 1-1 1 1 1 0 2-1v1l2-1v1h1-1 3l1-1 1 1h-1l2 1h-1 2l2-4h-1v-1h-1 1l-1-1h-1v-1l-5-1h-1c-1-1-3-2-5-1l-1-1c-1 0 2 1-1 1-2 0-1-1-1-1l-4 1 2-1zm-18 6l2-1-2 1zM59 82l1-1-1 1zm46 34c-1 0 0 0 0 0zm2 0v-1l-1 1h1zM81 67v-1 1zM59 78h0zM102 54zM84 122h-1 1zM112 111zM120 106c-1 0-1 1 0 0zM114 111l1-1v1h-1zM115 110zM108 115v-1 1zM115 112z"></path><path class="st0" d="M111 115h1v-1l-1 1zM112 114h1-1zM114 113l-1 1zM100 120h-1 1zM104 120h-1 1zM101 121s-2 1 0 1v-1zM83 120v-1zM67 114c1 1 1-1 2 1l-1-1h-1zM68 114h0zM99 113h1l-1-1zM101 112v1l1-1h-1zM70 60l1-1-1 1zM83 54zM94 52h-1 1zM146 113v-1 1zM147 126v1zM147 138v-8 8zM146 142s0 1 0 0zM145 143v-1h-1l1 1zM143 143h0zM145 143h-1 1zM146 143s1 0 0 0zM148 139v-3 3zM135 142v1h1l-1-1zM135 143h-2 2zM143 144h2v-1l-1 1h-1zM127 142h1-1zM123 142h-4 4zM117 143l2-1-2 1zM130 143h-1 1zM129 143h-1 1zM130 143zM138 144h-1 1zM131 144h2v-1l-2 1zM130 144h1zM121 143h-3 3c1 0 1 0 0 0zM125 143zM108 149zM122 143h-1 1zM113 144l1-1h0l-1 1zM125 143c-1 0-1 0 0 0zM125 143h-2 2zM108 154l3-4c1-1-1-1-3-1l-1 2c1 0 4-3 3-1l-3 2-1 3 2-2v1zM111 147v-1l-2 2-1 1 3-3v1zM115 143h-1v2l1-1h1c1 0 2-1-1-1h2-2 1-1c-2 0 0 0 0 0h1-2l-1 2-1 1v-1l2-2h1zM135 145zM133 145h2c1 0 0 0 0 0s2 0 0 0l-4-1 2 1zM125 144h-4l2 1 2-1zM108 149l-1 2zM105 152l-1 1zM47 29h1-1zM40 29zM37 132l1-3-1 1v2zM23 77h-1v1l1-1zM22 75l2-1-2 1zM77 18l1-1-1 1zM78 152l-2-2 2 2zM44 34l1-1-1 1zM74 148l2 2-2-2zM162 75zM155 103l1-1-1 1zM97 162v0zM65 146zM94 163l-1 1 1-1zM94 163zM92 165v-1h1l-1 1zM126 30h0zM31 111zM28 109l3 2v-1l-3-1z"></path><path class="st0" d="M63 29l-2-1h2l-9 1h-1 1-10c-1 0-1 0 0 0h-4l-2 1h-4v-1h3-3-2v6-4 2l-1 1v5l1-3 1 3-1 4v-1 3l-1 3c0 4 1-2 1 2l1 8c0 2-1 0-1 0l1 2h-1l1 3v1l-3 3h-1l-3 5-3 2c2-2 1 1 0 3l1-1-2 2c-1 1 0 0 0 0h-1v-1h1v-2 0l-1 1h-1v1l-4 3-2 4-1 2-2 2 1 1h-2l-1-1 2-2 2-2 1-1h-1l-4 5H8l2 3 2 1 3 3-2-2c1 3 3 2 5 4l-1-1 2 3 9 8h-1l7 3-1 2h-1l-1-1v1h1v1h1v-1 2l-1 3 2 1h-2l1 4h-1v5l1-2c-1 4 1 4 1 8 0 0-1-1-2 1l2 3 1 3v1l1 1-1 1 1 1-1-1-1-2-2-5v3l-1-2v7c1-1 1 2 1 4l2-1h-2v-3-3l1 1 1 4h3v1h-2 6l-2 1 6-1 3 1c-2-1-2-3-1-4l6 1c1 1-2 2-1 2h8c-1-1 2-2 4-2h1l3 1 2 2 3 3v1l2 2c1 2-2-2-1 0l4 2-4-4 6 4 1 2c4 4 5 2 8 6 1 2-1 1-1 1l-4-4 2 2-3-3 3 4 3 2 2 3 3-2 1-1-1 1v-1c0-1 0-1 0 0l4-6h1l-2 2 4-4-2 1 4-5-2 1c2 0-4 4-2 3l-4 3-1 1v1l1-1-2 3h-1v1h-1v-1l-1-1-1-1-1-2-2-1-3-3-9-9-2-1v-1l-1-1-1-1c0 1 0 0 0 0l-1-2H52l-1 1H38h-1 0v-2-1-5-2-2-2-1l-1-1 1-4-1-6s0-1 0 0v-4-2l-2-1v-1h1l-6-4h1l-3-2-6-7-4-4-2-2-1-1c0 1 0 0 0 0v-1h1l2-2 2-3 1 1 1-1-1 1c3-3 2-4 2-4l2-3h1l5-5 1-2 2-2h1l2-2-1 1 1-2v-1-2-14 1c-1-2 1-5 1-6v-3s1 1 1-1l-1-3v-1-1h1l-1-1h32l1-1 1-1 1-2c1 0 0 0 0 0l7-7v1l9-9-1 1 3-3h1l1-1v1l1 1 2 1 3 2c-3-3 1 0 0-1 1 1 3 3 1 2v-1c-1 0 4 4 3 5l6 6 6 6h6l4 1-1-1h6c4 0-2 1 0 1h1l4-1h6-2c2 0 4 0 2-1l3 1h4v13c0-1 1-1 1 1-1-1-1 4-2 6 1-1 1 7 1 4v8l1 2 1 1 2 2 4 4h1l1 3c1 0 2 0 3 2v-1l5 6 3 3 2 1-1 1-1 2-4 3-7 7-1 1h1l-4 3-4 5 1-2c0 2 4-1 4 0 1-2 5-3 7-7v1l3-3 5-5 2-2 4-4-2-2-2-1v-1h-1 1v1c2 1 3 2 1 2v-1l-1-1-1-1-2-2-3-5-2-1h-1l-1-2 1 1-4-5 1 2-4-4-3-2-1-2v-3-3h-1v-8h1l-1-4c1 1 1-2 1-1l-1-5v-1-4c0 1 0 1 0 0l1 1v-2-1-3h-5-1-1l-1-1c-1 1 0 1 1 1h3l-1 1h-2-1l-7-1 1-1h-5l-3 1h4l-8 1 2-1h-3l7-1h-3l-7 1v-1h-2 1-3v-1h-1 1v2h-1v-1h-1l-1-2c0-1 0-2-3-4l1 2-2-3c-3-3 0 1-1 0l-3-3c-3-4-2 0-4-4l1 1-1-1-4-4-2-1-1-1-2-2 2 1 1 2h1l-1-1V8l-1-1-3-3 1 2-1-2-4 4 1-1-2 2-1 1V9l1-1V7v1l-1 1-1 2-2 1-6 6-1 1-6 6-2 1c-2 2 3-1 0 2l-1 1v-1h-1v1h-6 3zm-31 7v-1-2l1 2-1 1zM19 79l1-1-1 1zm71 85c-1-1-1-1 0 0zm1 1zm45-132h-1 1zM22 75c1 0 1 0 0 0zM77 19v-1zM53 148l-1-1 1 1z"></path><path class="st0" d="M99 157l-1 2 1-1v-1zM113 148l1-1h-1v1zM102 157l2-1h-1l-1 1zM104 155l1-1-1 1zM92 165c0 1 0 1 0 0zM103 158h-1zM96 165l1-2-1 2zM97 163l2-1-2 1zM101 160l-1 1zM80 157l-2-2 1 1 1 1zM84 163l-1-1 1 1zM79 158s-3-2-1 0c1 0 2 2 1 0zM50 146v-1zM32 130v3l1-2c-1-1 0-2-1-1zM33 131v0zM150 107l-1 1 1-1zM149 110h-1l-1 1 2-1zM31 41v-1 1zM49 28h-1l1 1zM66 28c1 0 1 0 0 0zM137 109l-1-1 1 1zM138 120l-1-1 1 2zM138 130v-6l-1-1 1 7zM136 133v-1 1zM136 133h-1 1zM135 134v-1 1zM136 133l-1 1 1-1c0 1 0 0 0 0zM136 133l1 1-1-1zM138 130l1-1-1-1v2zM127 133h2-2zM128 133l-2 1 2-1zM135 134h0-1 1zM121 133l1-1-1 1zM117 133v-1l-3 1h3zM113 133h0zM124 134l-1-1 1 1zM123 134h-1 1zM124 134zM130 134l-1 1 1-1zM125 134h1-1zM124 134h1-1zM116 133l-2 1h2v-1zM119 134zM105 139zM117 134h-1 1zM109 134l1-1h0l-1 1zM119 133zM119 133l-1 1h1v-1zM105 143l2-3c1-2 0-2-2-1l-1 1 3-1-3 2v3l1-2v1zM107 137l1-1-2 1-1 2 3-3-1 1zM111 134h-1v1h2v-1h1-1-1 2l-2-1v1-1h-1l-1 2h-1v1l1-1 1-1h1zM128 136c-1 0-1 0 0 0zM126 136l2-1v0h-3l1 1zM119 135h-3 3z"></path><path class="st0" d="M105 139v-1l-1 2zM102 141v1zM54 39h0zM49 39h-1 1zM47 125v-3 3zM34 79zM33 77l2-1-2 1zM79 30l1-1-1 1zM81 141l-2-1c1 1 1 2 2 1zM52 43h1-1zM77 138h1l1 2-2-2zM151 77zM144 100l1-1-1 1zM92 151h1-1zM96 150zM70 136zM93 150l-1 1 1-1zM93 150h0zM92 151h1-1zM121 40c1 0 0 0 0 0zM41 108zM39 106l2 2v-2h-2z"></path><path class="st0" d="M68 38h-2c2-1 4 0 2-1 0 1-7 0-7 2l-2-1h1c-2-1-2 1-5 1l-1-1-2 1v-1l-4 1h-2c-2 0 0 0 0 0h-3c-1 0 0 0 0 0h3l-2-1h-2v6-4l-1 4v1l1-1v6h-1l1 2-1 3c0 3 1-2 1 1v7c0 2 0 0-1 0l1 2 1 2-1 1v1h-1l-1 2-1-1-3 5-2 1c2-1 1 1 0 3l1-1-2 3v-2h1v-2l-1 1h-2l1 1-3 2-2 4-2 2-1 2h1-2-1l2-3 1-1 1-1h-1v1l-1 1-2 2h-1l2 2 2 1 2 2 1 1-2-1 4 3-1-1 2 3v-1l8 7h-1a196 196 0 006 3c-1 0-1 2-3 1l1 1h1v-1 2l-1 2 1 1h-1l1 3h-1v4-1c0 3 2 3 2 7h-2l2 3 1 2v3h0l-1-2-2-4v2c-1 1-1-1-1-1v6l1 3 2-1h-2a261 261 0 011-1h3v1l-1 1 2-1h2l-1 1h1l1-1h3l2 1v-4l4 1c2 1-1 2 0 2h7c-1-1 1-2 3-2l1 1h2l4 4v1l2 2c1 1-2-2-1 0l3 2-3-3c0-1 3 0 5 2l1 2 7 5-1 1-3-3 1 1-2-2 2 3 5 4 1-1 1-2-1 1v-1c1 0 1 0 0 0h1v-1l1-1 2-2h1l-2 1 3-3-1 1 3-5-1 1c1 0-4 4-2 3l-4 3s1-1 0 0v1h-1 1l-1 1-1 1c0 1 0 0 0 0v1l-1-1 1-1h-1v-1h-1l-1-2-1-1-3-2c-2-2-5-4-7-8l-2-1h-1v-1l-1-1-1-1h-5l-10-1v1H47v-1h-1v-1-4-2-1-2h0v-2-3l-1-5v-3l1-1v-1l-2-1v-1s-1 0 0 0l-4-3-2-3-5-5-3-3-1-1-1-1v-1h-1l1-1h1l1-1 2-3v1l1-1-1 1 2-4 2-2v1l4-5 1-1 2-2 1-1 1-1v-1-3 1l1-6h-1v-6 1l2-5v1l-1-3s1 1 1-1v-1-1l-1-2h1s-1 0 0 0h5l6-1c1 2 8 0 8 1h7l1-1v-1l1-1h1l5-6 7-7v1l1-2h1v-1h1l1 1h2l2 2c-2-3 2 0 1-1l1 2-1-1c-1 1 4 4 3 4l5 5 2 3 2 1 1 2h9l-1-1h3l-1 1 3-1c3 1-2 1-1 1h2-1l4-1 1 1h4l-1-1h6v5l1 6v1c-1-1 0 4-1 5 1-1 0 6 1 4l-1 1v5l1 2h1v1l2 1 3 4 1-1 1 3 2 1 5 5 2 2 1 1v1l-1 1-3 3-7 5c2 0 1 0 0 1h1l-3 3c-1 1-4 3-3 4v-1c0 2 3-1 4 0l6-6v1l2-3 4-4 6-5-2-2v1l-2-3v2l1 1-2-2-1-1-1-2-3-3-1-1-1-1-1-1h1l-3-3 1 1-4-3-2-2-1-1v-3-9l-1-3c1 1 1-2 1-1l-1-4v-1-1-2c0 1 0 0 0 0h1v-5h-6 0l3 1h-3-1l-6-1h1-5l-2 1 3-1-6 1h2l-3-1h6c-1-1-4 0-3-1l-6 1h1-2l1-1h-2-1 1v1h-1v-1l-1-1-2-3v1l-1-2c-3-3 0 0-2-1l-2-2-4-3 2 1-2-1h1l-3-4-1 1-1-1-1-1-1-2 1 1 1 1h1v0l-1-1-1-1-2-2 1 1-2-1-2 3v-1l-1 2h-1v0l1-2-1 1v1h-1l-1 2h-1l-5 6-1 1-5 5h-1c-2 2 2-1-1 2v1l-1-1-1 1-4-1h2zm-26 7v-3 3zM31 81l1-1-1 1zm59 70c0-1 0-1 0 0zm1 1zm37-109c1 0 1 0 0 0zM34 77zM79 30zM60 138h-1 1z"></path><path class="st0" d="M98 146l-1 1 1-1s-1 0 0 0zM109 138l1-1-1 1zM100 146l1-2-1 2zM102 144v-1 1zM92 152v-1 1zM101 146v1zM95 152l1-1v-1l-1 2zM96 150l1-1-1 1zM100 148h-1l-1 1zM82 145l-2-1 1 1h1zM85 150h-1 1zM81 147s-2-2-1 0h1zM57 136v-1zM41 123l1 2v-1c0-1 0-2-1-1zM42 124v0zM140 104h-1 1zM139 106h-1v1l1-1zM41 49v-1 1zM56 38v1zM70 37h0z"></path></svg>