<svg xmlns="http://www.w3.org/2000/svg" viewBox="0 0 183 174.5"><path class="st0" d="M156 17v-1 1zM159 23zM160 28c1-1-1-2-1-3h1-1l1 3zM160 32l-1-1 1 1zM160 34v-1 1c0 1 0 0 0 0zM161 34zM160 33l1 1-1-1zM160 33l1-1c-1-1-1-1-1 1zM161 28v-1 1zM161 39l1-1h-1v1zM162 38v0zM162 34l-1-1 1 2zM162 42v1zM163 44l-1 1 1 1v-2zM164 47l-1-1 1 1zM163 41l-1 1 1-1zM163 41v0zM163 41zM162 37h0zM163 40v-1h-1l1 1zM163 40zM164 45v0s-1 0 0 0zM163 43zM165 51h1-1zM164 45v-1 1zM164 48v-1 1zM163 43zM163 43v0zM169 52l-1-2c-1-1-2 0-3 1l1 1s0-2 1-1v1s1 2 2 1l-1-1h1z"></path><path class="st0" d="M165 49v1l1 1-1-2zM164 47l2 1-1-2c0 2-1 0-1 1v-1 1c1 1 0 0 0 0l1 2-1-2zM164 38zM164 39v-1s0-1 0 0l-1 2 1-1zM164 43l1 1v-1 1l-1-1zM165 51l1 1zM166 53h-1l1 1zM106 121zM109 120v-1 1zM162 90h-1 1zM133 106v-1 1zM133 108h-1 1zM90 129c1 0 0 0 0 0zM171 73v0zM105 116s1 0 0 0zM172 76v0zM31 156zM12 160h0zM169 59zM176 80c0-1 0-1 0 0zM168 61zM168 61l-1-1 1 1zM168 62v-1 1zM62 140c0 1 0 0 0 0zM154 98zM153 99l1-1-1-1v2z"></path><path class="st0" d="M99 124h1l-1 2c0-2 4-2 4-4h1l-1 1c2 0 1-2 2-2h1l1-1c1 0 1 0 0 0l2-1 1-1c1 0 0 0 0 0h1l-1 1 3-1h-1 3s-3 0-2-1l2-1h1v1l1-2 2 1c2-1-1-1 0-2l4-2v1l1-1v-1l4-1 2-2h2l1-2h-1l1-1v2h3l4-5 1 2c-1-1-2 1-3 1v1l2-2h2c-1-1 1-1 2-2l-1 1c1 0 1-2 2-1l1-1c2 0 5-2 5-3v1l2-4c0 1 2 2 1 3l2-1-1-1h2l1-1v1l1-2 1 1 2-1-1 1 3-4 1 2 2-5h1l1-1-3 5h1v1l2-1c0-1 2-1 1-2l-2 2 3-3v1l2-1-1 1c1 0 1-2 3-2h1l-2-3h3l1 1h1c-1 0 0 0 0 0v-1c-1-1-1-3-1-1v-1-1h-1v-1l-2-1 1-1-1-4v-1-1c0-1 0 1 0 0l-1-2 1 3-3-3v-1c0-3-2-2-2-5h1l1 3v-1 1c1-1-1-5-1-7h-1 1-1l-2-3h1v1l-1-3v1l-2-3v1l1 2v3h1v0l1 2c0 1 0 0 0 0v5l1 1 1 2h-1l2 6 1 2h-1l1 3v2l1 1h-1l-1 1h1l-4 2v-1c-2 0-3 3-5 3l-1 1v-1 1h-1 1-2v1h-1l-2 1-2 2-1 1-1-1-1 2v-1l-3 2-1 1c-2-1-6 2-9 3 1 1-2 0-2 1v-1l-3 2v-1l-1 1v-1l-1 3-1 1v-1l-4 2h-1l-2 1-2 1-3 1v1c1 1-2 0-3 1h1-4 1c-2 0 0 0-1 1l-1-1-4 3s1 0 0 0l-3 2h-1l-2 2c-2-2-4 3-5 1l-2 1-3 2v-1l-4 3v-1l-5 3v-1c-2 2-6 2-6 4l-2 1c2-1 0 1 1 1-1 0-2 0-1-1l-3 1-11 5-1 1v-1l-1 1c-2 1 0-1 0-1l-1 1-1 1h-1l-2 1h1l-1 1c-1-1-6 2-7 2 0 1-1 2-3 2v1h-3c1 0-3 1-2 2l-1-1-7 4h-2l-1 1c-5 2-10 6-16 7 1 0 1 0 0 0v1h-2l-2 2 3 2c0-2 3-1 4-2l2-1 7-3h-1 0l6-2v-1l1 1v-1h1l-1 1 3-2-1 1 8-5 4-2v1l1-1h1l2-2h1l1-1v1c3 0 3-2 5-2h-2l1-1 4-1-1 1 3-1 1-2-2 1c1 0 1-2 3-2l-1 1 2-1-3 3 1-1 3-2v1l1-1v1l3-1c-2 1-1-1-2-1 2-1 2 1 5-1h-1 2v-1l1-1 3-1-1 1 1-1v1l2-2 1-1h1l-1 1 2-1 1-1c1 0 0 0 0 0h1v1l1-1h1l4-2v-1c2 0 3 0 4-2l1 1c1-1-1-1 1-2 1-1 0 1 1 1 0-1 1-2 3-2h-1zm15-7l-1 1 1-1zm21-11h-1 1zm34-40zm0-2v0zM57 139c0 1 0 0 0 0zM133 108zM90 129zM179 86c0 1 0 1 0 0z"></path><path class="st0" d="M166 57l1 1v-1h-1zM167 49v-1 1zM168 56v-2 1 1zM168 54h-1 1zM168 62c-1 0 1 2 0 0zM169 55v1zM170 60v-1 1zM170 59l-1-1 1 1zM169 56v1h1zM173 71v0s0-1 0 0zM173 67v1l1-1h-1zM174 70h1-1zM176 86l-1-1 1 1zM163 95l1-1c1-1-1 0 0 0l-1 1zM164 94v-1 1zM9 161H8h1zM8 162H7h1zM116 117h-1 1zM105 122h1l-1-1zM97 127l1-1-1 1zM95 95h0zM94 89h1l-1-1zM94 83v3l1 1-1-4zM96 80s0-1 0 0zM96 77v1s0-1 0 0v-1zM95 77zM96 78l-1-1 1 1zM95 79s0 1 0 0c0 1 1 1 0 0zM94 83h-1l1 1v-1zM96 72l-1 1h1v-1zM96 73l-1-1 1 1zM94 77l1 1-1-2zM96 69h1-1zM96 67l1-1-1-1v2zM96 64v0zM95 70h1-1zM95 70v-1 1zM95 70zM95 74l-1-1 1 1zM95 71v1-1zM95 70v1-1zM96 66l-1-2v2h1zM95 68zM95 59zM95 66v0zM96 63zM96 68c0-1 0-1 0 0zM96 68l-1-1v1h1zM93 58v2l2-1-1-1v2-2c-1 1-1-2-2-1l1 1s0-1 0 0zM95 61v1l1-2-1-1v2z"></path><path class="st0" d="M95 63h-1l1 1v-1 0h1-1 1l-1-2v2zM93 73c0-1 0-1 0 0zM93 72v1h1v-1-1l-1 1zM94 68v-2l-1 1h1v1zM96 59l-1-1zM95 57h1zM154 43h1-1zM153 40s1 0 0 0zM114 20h1v-1l-1 1zM144 14zM146 14v0zM159 60l1 1-1-1zM95 36l1-1-1 1zM150 43zM96 34h-1 1v0zM116 99zM97 103zM94 51zM95 30zM95 50l1-1-1 1zM96 50zM96 48v0zM147 83zM123 11h-1 1zM124 11h-1v2l1-1v-1z"></path><path class="st0" d="M156 50l1-1 1 1c-2 0-1-4-3-4h1l-2-2v-2c0-1 0-1 0 0l-1-2-1-2h1l-1-1 1 2v-4-2c0 1 0 3-1 2v-2l-1-1h1l-1-1 1-2c-1-2-1 1-2 0l-1-4h1l-1-1-1-1-1-4h1l-2-3v-1l-2-1v1l-1-1h1v-1h1l-1 1h2l-1-1 1-1h-1v-1l-1-1h-2l-1 1h-1l-3 1v-2h4-1-2l-1-1-3 1h1c-1-1-1 1-3 1l1-1h-2l-6 2v-1l-1 2-1 1s-2-2 0-3l-2 1 1 1h-3v1l-1-1-1 2-1-1-2 1h1l-3 3s0-2-1-1v2l-2 2-1 1 2-5h-1c-1 0 0 0 0 0l-2 1-1 2 2-2-2 3-1-1-1 1-2 2h-2l3 3h-3c-1 1 0-1-1-1l-1 1s-2 1 0 0l-2 2v2l-2 2-1 1v1l-1 1 1 1h-1l1 2-1-3 3 4-1 1c0 2 2 2 1 4l-1 1v-3 1l-1-2v8-1l1 1v5-1l1 3 1-1c-1 1 0-3-1-2l1-2-1-1-1-2 1-1h-1l1-1v-1-2-3-3-2-2h1l2-2 2-1 2-2 1-1 1-2 1-1 1-1h1l3-1 2-2h1l1-1h1v-1l2-1 3-2h2l1-1v1l3-2v1l2-1h9 2v1h3-1 0l2-1 1 2h-1l1 3v1l1 3v-1l1 2v4h1l1 3-1 3v-1c-1 2 0 0 1 2l-1 1 2 4c0-1 0-1 0 0l1 3v1l2 2c-2 2 2 5 0 6l1 2 1 2v1l1 4 1 6c1 2 0 6 2 6l1 1h1s0 1 0 0v1h-1l-1 1h-1l-1 1-3 1-6 2 1 1h-2 1c-1-1-2 1-2 1-2 0 0-1 0-1h-1l-1 2-1-1v1h-2l1 1c-1 0-1 0 0 0l-7 3-4 2v1c0-2-2 0-3 0l-2 1h-1c-2 2-5 2-7 3v1h-2l-1 1s1 0 0 0c-5 2-10 6-16 7 1 0 1 0 0 0v1h-2l-2 2 3 1c0-1 3 0 4-2v1l2-1c2-2 4-2 7-3h-1l2-1h-2c1 1 5-2 6-1v-1h1l3-1h-1l9-4h-1l4-2 1-1c0 1 2 0 1 1l2-3 1 1 1-2v1c3 0 3-2 5-1 0-2-2 0-2-1l1-1h4l2-1 1-1-2 1c1-1 1-2 3-2h1l-3 2h2c0-2 2-1 3-3v1l1-1-1 1 3-1h-2c3-2 2 0 5-1h-1l2-1c2-1-1 0 0-1h1l1-1 3-1-1-1 1 1v-1h1l-1-2v-1l-1-1-1-1v-1l1 1v-2 1l-1-2-1-1h2l-1-1v-1l-1-4-1-1-1-4 1-1c-1-1-1 1-2-1l1-1-2-3v1zm-4-15v0zm-8-24h1v1h-1v-1zM95 44zm0 2v-1 1zm47 36zM146 14zM159 60zM98 25l1-1-1 1zM96 53v-1 1zM93 61v0zM94 54v2-1-1zM94 56z"></path><path class="st0" d="M95 48h1s-1-2-1 0zM93 55v-1zM93 50v0zM93 51v0zM93 53v-1zM93 39v-2 2zM92 42v-1 1zM92 39l-1-1 1 1zM101 25v1zM113 15l-2 1h1l1-1zM112 16zM94 104h-1 1zM93 105h-1 1zM153 32h-1v1l1-1zM155 44zM158 53v-1 1zM95 32c0-1-1 0 0 0zM90 28h1-1zM87 25l2 2-2-2zM86 22v0zM85 21v0c-1 0-1 0 0 0zM84 21zM85 22h-1 1zM85 22v0zM86 26h0zM81 19h0zM81 19h-1 1zM83 22h1-1zM79 17h1-1zM77 16h1-2 1zM76 16zM80 19l-1-1 1 1zM79 18zM80 19zM82 21h-1 1zM80 19v0zM79 19h1-1zM77 17l-2-1 2 1zM78 18zM72 15zM77 17s-1 0 0 0zM75 15v0zM78 17zM78 17h-1l1 1v-1zM70 16l1 1 1-3-1 1 1 1-1-1-2 1h1zM73 15h1l-1-1-1 1h1zM75 16l-1 1h1v-1c-1 0 0 0 0 0h-2 2zM80 21zM80 21s1 0 0 0l-1-1 1 1zM77 19l-1-1v1-1l1 1zM72 14h-1zM70 14l1-1h-1zM29 69zM30 67zM37 21l-1 1h1v-1zM33 46zM35 47l-1 1 1-1zM32 76l1-1-1 1zM55 10l-1-1 1 1zM25 67zM52 9h0zM77 97zM88 107h-1 1zM66 13h-1 1zM49 12zM65 11zM65 11zM64 11h1-1zM52 87c1 0 1 0 0 0zM39 30zM39 31v-1h-1l1 1z"></path><path class="st0" d="M28 74l1-1h1-1l-1-1 1-1v1c1-1-1-1-1-3h1v-1l1-2v1l-1-2 1 1-1-1c1-1 1 0 1 1l1-3v1l1-1h-1v-1-1h1v-1l1-1c0-1-1 1-1-1v-3h1l-1-1c0-1 2-2 1-3h1l-1-2 1-1-1-2-1 1v-1h2-1l1 1v-1h1l1-1c-1-2-2-3-1-5h1v3c0-1 0 0 0 0v-2l1-1-1-2 1 1v-3l1-5 1 1-2-3 2 1 1-1h-2l2-2h-1 1l-1-2 2 1v-2 1c0-2-2-2-1-4h1l-2-3 1-1-1-1 3 4v-1l1 1v-2-1 2c-1 0-2-2-1-3h1v-1-1l1 1-3-4h2l1 1v1l1 1v-1 1c0-1 2 0 1-1h1l2-2v1h4v1h0c0-1 1-2 3-2h5v2l-2-1h-1l5 2h1l-1-1h4v1l-1-1 2 1-1-1h1l-2-2s0 1 0 0h-1l1 1h-3l1-1-1 1v-1h-1v-1h-5l-5-1h-2-2-2-1-1-1l-2 1h-1v1l-1 5v-1c-2 1 0 3-1 5h-1v2c-1 0 0 0 0 0v1l-1 1 1 2s0 1 0 0v2h-1v1h-1l1 2h-1v1c-1 1-1 5-3 7 2 0 0 1 0 2v-1l-1 3v0c-1 1 0 2 1 2v1h-1v3h-1v3-1 2l-1 3-1 2h1l-2 1h-1c-1 1 1 0 1 2h-1l-1 3h1l-1 3v3l-1 2-1 2v3h3v1h1l1 1h2l3 2c2 1 4 4 5 2h2c-2 0 0 0 0-1v1l2 2 8 5v-1h1v1h1c1 0-1 0 0 0l2 1 1 1v-1h1l5 3 2 1 1-1c-1 1 1 1 2 3-1-1 2 1 1-1l1 1 5 3 1 1h2c3 2 8 3 11 6h1v-1l1 2h2v-3l-3-2c-1 0 0 0 0 0h-2v-1l-4-2-1-1v2c0-2-3-2-3-3h-1l-1-1h1l-2-1v1c-2-1-4-3-7-3h1l-3-1-2-1c1 1 0 0 0 0h-2v-1h-2 1c-1-2-3-1-3-2l1 1h-2s0-2-2-2h1l-2-1h-1l1 1-3-1h1l-1-1 3 1-1-1c-1 1-2-1-3-1l-2-2c2 1 0 1 1 2l-3-3v1l-1-1v1l-2-1h-2l1-1h-1 1l-2-1h-2 1l-1-1h-2 1l-2-1h2l-2-1s-1 0 0 0l-3-1h-1l-1-1-1-1h-1 0v1-2 1zm3-11v1-1zm3-18zm27-34c-1-1-1-1 0 0zm1 0h-1 1zm-8 80zM34 47zM32 76zM45 14h-1 1zM68 12h-1 1zM72 17h1-1zM68 14h0zM69 14v0zM63 11h0zM68 15h-1zM64 14h0zM65 14h0zM67 15h-1 1zM56 12h-1 1zM58 13v1-1zM56 13s-1 0 0 0c0 0 1 0 0 0zM43 12v-1 1z"></path><path class="st0" d="M42 23v-1h-1l1 1zM41 22zM90 108l1 1-1-1zM91 108v1h1l-1-1zM32 62zM30 70h-1zM29 73s0 1 0 0zM24 16v-1 1zM24 22h-1l1 1zM22 28l1-3v-1l-1 4zM20 30v-1 1zM19 32v-1 1c0 1 0 1 0 0zM20 33s-1 0 0 0zM20 32v0c0 1 0 0 0 0zM20 31s0-1 0 0c1-1 0-1 0 0zM23 28v-1 1zM18 37v-1 1zM18 37v0zM20 34v-2 2zM17 41v-1 1zM16 43h-1l1 1v-1zM16 45v-1 1zM18 39l-1 1h1v-1zM18 40h-1 1zM18 39zM19 36l1 1-1-1zM19 39v-1h-1l1 1zM19 40v-1h-1zM17 44l-1 1 1-1c0-1 0-1 0 0zM17 42zM15 50zM17 44v-1 1zM16 47v-1 1zM17 42zM17 42v0zM17 52l1-2h-3v1c1 0 1-2 2-1l-1 2 1 1v-1zM16 48l-1 1v1l1-2zM16 46c0 1 0 2 1 1v-2c0 2 0 0-1 1v-1 1c0 1 0 0 0 0v0zM21 38zM20 38c0-1 0 0 0 0 1-1 0-1 0 0l-1 1 1-1zM18 42v2l1-1h-1v-1zM15 50h-1l1 1zM14 52zM81 117zM78 115zM21 94l1 1-1-1zM53 106h-1 1zM54 104v0zM97 124h1-1zM9 72l-1 1 1-1zM78 120zM8 75v-1-1 2zM156 151v0zM171 163h-1 1zM14 58zM10 80zM12 59v0zM12 59zM12 60zM124 138c1 0 0 0 0 0zM33 95zM35 95h-2v1l2-1z"></path><path class="st0" d="M88 120l-1-1h2c-1 1-4-2-5-1v-1 1c-1-2-1 0-3-1v-1h-2 1l-2-1h-3 2c-1-2-1 0-3-2h1l-2-2s2 2 0 2h-1l-1-1v-1h-2v-1h-2l-3-1v-1h-3l-3-1 1-1h-4l-1-1c1 1 0 1-2 1l1 1-2-1h0l1-1h2-1v-1h-1l-1-2h-6v-1l3 1v-1h-2l-1-1h-3 2l-3-1-1-1-6-2 1-1-4 2c1-1 0-3 2-2l-2-1v1l-2-2-1 1 1-1h-2v-1l-2-1 1 1-5-1 1-1-5 1-2-1 6-1-1-1h1l-2-1h-3l3 1h-4l1-1-2-1h1l-3-1v-1l-2 4-2-1v-2l2-1-1 1v-1h1-1l1-1v-1l-1-2 2-5 1-1v-1-1 2l-2-4h1c1-3-1-3 1-5h1l-1 2 1-1-1 2 3-7h-1-1l1-4h1l-1 1 1-2-1 1v-4l-1 1c1 0-1 3 1 2l-2 2v1l1 3h-1v1s-1 1-1-1v2l-1 2v3l-2 6-1 2v3H6v1l-1 1-1 5 1 1 1-1 2 1 1 1h2l4 2-1-1c1 2 4 2 5 3l1 1h2v0h1l2 1 3 1h1v1h2v1h3v1h1c1 2 6 3 9 5l2 1h-1l4 2h-1 5l-1 1c1 0 3 2 4 1h1l2 2v-1l2 1 3 2v-1l3 2 2 2h-1c2 2 1 0 2 0v1l5 2v-1l3 2h1l3 1c0 2 5 1 4 3l2 1h3v1l4 1v1l5 2c2 1 5 4 6 3h2c-2-1 1 0 0-1l1 1c-1 1 2 1 2 2l11 6v-1h1l-1 1h2c2 1-1 0 0 1h1-1 2l1 1 2 1-1-1h1l7 3 3 2 1-1c-1 1 2 2 2 3h3v1l7 3h1l1 1 1 1v-1c5 3 11 4 16 8-1 0-1 0 0 0v-1l2 2 3 1-1-1v-2c-1 0-2-3-4-3l-2-1-6-3-1-1c-1 1 2 1 1 2-1-2-5-2-5-4l-1 1v-1l-1-1h1l-3-1 1 1-9-4v1l-4-2h1l-2-1v-1h-5v-1l-4-3c-1 1 2 2 1 2h-2l-2-3-2-1h-2l2 1-4-1h1l-1-1c1-1 2 1 4 1l-2-1-3-1-1-1h1l-3-1 1 1-4-3 1 1-1-1h-3v-1h-3 2l-2-1h1l-3-1h-1l-1-1 1 1h1l-2-2v1l-2-1h-1l1-1h-2v-1l-4-1h-1l-4-2v-1h-2v-1l-4-1 1 1zm-15-7l2 1-2-1zm-22-9l1 1-1-1zM11 64c0 1 0 1 0 0zm1-1v0zm115 80v-1 1zM54 105zM97 124zM10 84zM13 56zM18 49v-1 1zM15 55v-1 1zM15 54v-1 1z"></path><path class="st0" d="M12 61c-1-1 0 2 0 0zM16 55v1zM15 60v-1-1 2zM15 59v-1 1zM16 56v1zM12 70l-1 2 1-1v-1zM14 68h-1 1zM13 71s0 1 0 0c0 0 0-1 0 0zM10 86H9h1zM24 90l-1-1v1h1zM23 90zM174 165l1 1-1-1zM176 165l-1 1h1v-1zM72 111v1-1zM82 116v1zM91 120l-1-1 1 1zM174 125h1-1zM173 126zM172 125v1l1-1h-1zM172 124zM172 124v-1 1zM171 124zM172 124h-1 1zM172 124l-1 1 1-1zM172 126zM171 123v1-1zM171 123l-1 1 1-1zM171 125v-1 1zM170 123l1-1-1 1zM170 123v-1 1zM169 122h0zM170 123zM170 123zM170 123zM171 124l-1 1 1-1zM170 124zM170 124zM169 123s1 0 0 0zM170 123zM168 123zM169 123h1-1zM169 123s0-1 0 0zM170 123zM170 123zM167 125s0-1 0 0l1-2v1c-1 0 0 0 0 0l-1 1zM169 123v-1l-1 1h1zM169 123l-1 1h1v-1zM170 126zM170 125v-1 1zM169 124v0z"></path><path class="st0" d="M168 122h1l-1 1zM168 122zM147 118zM147 118zM160 118s0-1 0 0h-1 1zM153 118zM152 120v-1 1zM144 117h-1 1zM164 121v-1 1zM149 114zM164 120zM133 111zM131 106zM166 123zM162 122zM167 122zM167 122zM167 122zM139 113zM156 122zM155 122h1v-2l-1 2z"></path><path class="st0" d="M145 117v2c0-2 1 0 1-1l1-1v1l1-1v1-1 1 1-1s0 1 0 0l1 1h-1 1v0h2c0-1-1 1 0 0v1l1-1 1-1v-1 1l-1 1c0 1 0 1 0 0v1l2-1v1h-1v1-1 1l1-1v0l1 1h-1l2-1-1 2 2-3-1 3v-1 1l1-1-1 1 1-1v2-1l1-1v2l2-3-2 3v1l1-1h-1l1-1v2h1s-1 1 0 0l1-3v1l-1 2v-1 1l1-1v1l1-2v1h1l-1 1h1l-1 1 1-1h-1l2-2v1l1-1v2l-1-1c0 1 0 1 0 0l1 2v-1l1-1v1-1h1v-1 0h-1v0-1h-1-1-1v-1l-1-1v1h-1l-1-1h-1v-1 0l-1 1v-1l-1 1 1-1-1 1v-1h-1c1-1-1 0-1-1 0 1 0-1 0 0v-1h-1 1c-1-1-1 0-2 1v-1h-1-1v-1 1c-1 1 0-1-1-1v1l1-2-1 1v-1c0-1-1 0 0 0h-1s0-1 0 0h-1c0-2-1 0-1-1h-1-1 1l-1-1c-1 0-1-2-2 0l-1 1 1-1v-1l-2-1h-1 0v-1 0h-1v1s0-1 0 0l-1-1h-1v-1l-1 1v-1l-1-1v1-1h-1c-1-1-2 0-2-2h-1v1-1l-1 1-1 2h1v1h1-1l1 1h1v-1 2l1-1v1-1 1h3v1l1-1v1h1v1h1v-1 1h-1v1l1-1v1l1 1v-1 1l1-1c0 1 0 0 0 0v1l1-1-1 1h1-1 1v-1 2l1-1-1 1 1-1-1 1h1v1l1-1v1l1-1v1h1-1zm3 1s0 1 0 0zm5 1zm13 3c0-1 0-1 0 0zm0 0zm-26-12zM152 120v-1 1zM144 117zM160 124v-1 1zM168 122h-1 1zM168 125zM167 123v0zM167 123zM166 122l1-1-1 1zM167 124h-1zM166 124zM166 124zM166 124zM164 123c-1 0-1 0 0 0zM164 124zM163 124zM161 122v-1z"></path><path class="st0" d="M157 123h1v-1l-1 1zM158 122zM131 105zM130 106l1-1-1 1zM148 120v-1 1zM146 118h1zM144 118h1-1zM13 130zM13 128l1 1-1-1zM14 128c0-1 0 0 0 0v0zM16 129h-1 1zM16 129zM16 128c0 1 0 1 0 0zM16 129v-1 1zM16 129l-1-1 1 1zM14 127v0zM17 129v-1 1zM17 128zM16 128zM18 129v-1zM18 128v0zM18 128zM17 128zM17 128zM17 128zM16 128v-1 1zM17 127h-1l1 1v-1zM17 127zM18 128v-1 1zM17 128zM19 127zM18 127h-1 1zM18 128v-1 1zM17 128zM17 128v-1 1zM18 124v1l1 2v-1h-1c0-1 0 0 0 0v-2 0zM18 127l1 1v-1h-1zM18 127v1-1zM16 126zM16 126v1-1 0zM17 127v-1 1zM19 127v1-1zM19 127zM36 114v-1 1zM36 114zM27 123h0zM32 118zM31 116l1 1-1-1zM39 112v-1 1zM23 125s-1 0 0 0zM38 118zM23 125s0 1 0 0zM50 107zM55 110zM20 125h-1 1zM23 122zM20 126zM21 127zM21 126v1zM45 111zM27 118zM28 118h-1l1 1v-1z"></path><path class="st0" d="M37 113v-1 1 1h-1v1l-1-1c0-1 0 1 0 0l-1-1 1 2c0-1 0-1 0 0h-1v-1 1l-1-1 1 1-1 1v-1 1-1 1h-1v1h-1l1 1v0l-1-1h0v-1 1l-1 2v-1-1h-1v1c0-1 1 1 0 0l-1 1v-1 3l-1-3v2l-1-1 1 1-1-1v2l-1-1 1 3v-1 1l-1-4c-1 0-1 0 0 0h-1v1-1l1 2-1-1s0 1 0 0h-1l2 3-1-1-1-1c0 1 0 0 0 0v2h-1l-1-1 1 1-1-1v1l1-1v2l-1 2-1-2h-1l1 1v1h-1 1l-1 1 1 1v-1h1s-1 0 0 0h-1l1-1v1h1s0-1 0 0v-1h4l-1-1h1v-1h2v-1 0c0 1 0 0 0 0v-1h1l1 1v-2 1s0-1 0 0h2v-1 1l1-1v-1s1 0 0 0h2-1l1-1c0 1 0 0 0 0h1l1 1v-1 1l1-1v-1 1l1-1h1v-1h1v-1 1h1c1-1 2 1 1-1l1-1-1-1v1l1 1 3-1-1-1 1 1v-1 1l1-1h-1v-1h2v-1l1 1v-1l1 1 1-1s0-1 0 0v-1h3v-1h1l-1-3-1 1v-1l-1 1h-1v1l-1-1v1-1 1l-1-1v-1l-2 1v1h-1v0l-1 1c0 1 0 0 0 0v1l-1-1v1-1 1h-1l1-1h-1v1-1 1-1h-1l1 1c-1 1-1-1-2-1l1 1-1-1v2-1 1-1h-1v1s0-1 0 0v-1 1h-1v-1 1l-1-1v1h-1v0l-1 1zm-2 1c0 1 0 1 0 0zm-4 3zm-10 9zm0 0zm26-13zM31 117zM39 112zM23 120zM20 127zM17 125c1 0 1 0 0 0zM19 126v-1 1zM19 126zM21 126s0 1 0 0c0 1 0 0 0 0zM19 124v1z"></path><path class="st0" d="M20 124h-1v1l1-1zM19 125zM19 124zM21 124v-1 1zM20 123h1l-1-1v1zM21 122h-1 1zM24 122v1zM25 118v1h1l-1-1zM26 119zM56 110zM56 109v1-1zM34 113v1-1zM36 113zM37 112s1 0 0 0z"></path></svg>