<svg xmlns="http://www.w3.org/2000/svg" xmlns:xlink="http://www.w3.org/1999/xlink" x="0px" y="0px" viewBox="0 0 1000 1000" style="enable-background:new 0 0 1000 1000;" xml:space="preserve">
<g>
	<g>
		<path d="M990.8,267.3l-1.4-20.4l-11.7-95.7l-11.7,10.2c-6.6,5.8-12.8,11.1-18.6,16.1c-88.9,76.7-89.5,78.6-71.1,208.7l0.7,5.3    c16.4,116,16.4,235.9,16.4,351.9c0,27.6,0,56.1,0.2,84.1l0.2,21.2L908,833C1021.1,708.3,1002.1,432.3,990.8,267.3L990.8,267.3z     M990.8,267.3"></path>
		<path d="M760.7,439.8c0.2-9.5,0.4-19.1,0.5-28.7c2-102.2,4-198.7-22.2-247.3l-5.4-10.1l-7.9,8.3c-11.9,12.6-22.2,22.6-31.3,31.5    c-45.2,44.1-55.2,57.7-37.2,140.5c9.8,44.8,37.2,240.9-18.3,309.8c-13,16.1-29.3,23.9-49.8,23.9h0c-4.9,0-10.2-0.5-15.7-1.4    c-47.4-8.1-44.2-138.2-41.5-253c2.5-103.5,4.8-201.3-21.2-249.6l-5.4-10.1l-7.9,8.3c-11.9,12.6-22.2,22.6-31.3,31.5    c-45.2,44.1-55.2,57.7-37.2,140.5c22.9,105,17.2,215.8,9.8,300.5c-1.9,21.4-27.9,31-52.9,31c-21.3,0-40.5-6.7-50.1-17.5    c-36.3-40.9-41-96.7-45.9-155.8c-4.4-53.1-9-107.9-38.9-151l-5.4-7.8c0,0-33.5,5.7-39.1,38.4c-5.6,32.6-4.7,88-106.5,150.4    c-11.6,7.1-23.5,14.4-35.2,22.4C-6.9,593.5-3.6,646.2,4.8,673.2C20.7,724.7,78.6,765,136.7,765c48.6,0,86.7-27.6,107.3-76.6    c28.2,64.4,103.1,121.7,165,121.7c24.2,0,65-9.2,88-65.4c16.1,42,49.7,65.5,95.1,65.5c78.5,0,169.7-74.1,169.7-169.5    c0.7-34.6,0.7-86.8,0.5-124C762,465.1,761.7,447,760.7,439.8L760.7,439.8z M191.2,645c-6.5,4.3-15,6.6-24.6,6.6    c-14.2,0-42.2-5.2-74.3-39c34.9-31.3,75.4-53.1,120.6-65C218.2,575.2,207.7,634,191.2,645L191.2,645z M191.2,645"></path>
	</g>
</g>
</svg>